<?xml version="1.0" standalone="no"?>
<!DOCTYPE svg PUBLIC "-//W3C//DTD SVG 1.1//EN" "http://www.w3.org/Graphics/SVG/1.1/DTD/svg11.dtd" >
<svg xmlns="http://www.w3.org/2000/svg" xmlns:xlink="http://www.w3.org/1999/xlink" version="1.1">
<metadata>
Created by FontForge 20150715 at Thu Nov 19 13:24:36 2015
 By Jimmy Wärting
Sharp Sans is a trademark of Lucas Sharp.
</metadata>
<defs>
<font id="SharpSansNo1-Medium" horiz-adv-x="588" >
  <font-face 
    font-family="Sharp Sans No1 Medium"
    font-weight="600"
    font-stretch="normal"
    units-per-em="1000"
    panose-1="0 0 0 0 0 0 0 0 0 0"
    ascent="750"
    descent="-250"
    x-height="500"
    cap-height="730"
    bbox="-70 -274 1344 1083"
    underline-thickness="50"
    underline-position="-100"
    unicode-range="U+0020-F60B"
  />
<missing-glyph horiz-adv-x="900" 
d="M85 0v730h730v-730h-730zM450 331l-283 -283h566zM167 682l283 -283l283 283h-566zM484 365l283 -283v566zM416 365l-283 283v-566z" />
    <glyph glyph-name="interrobang" unicode="&#x21;&#x3f;" horiz-adv-x="547" 
d="M239 190c-3 100 -3 289 -3 423v55c-55 -10 -88 -45 -113 -89l-69 32c36 70 114 129 221 129c124 0 217 -74 217 -185c0 -189 -192 -139 -192 -356v-9h-61zM413 556c0 57 -42 100 -102 112v-55c0 -69 -3 -151 -8 -228c48 61 110 80 110 171zM230 0v137h78v-137h-78z" />
    <glyph glyph-name="interrobangdown" unicode="&#xa1;&#xbf;" horiz-adv-x="547" 
d="M275 -240c-124 0 -217 74 -217 185c0 189 192 139 192 356v9h61c3 -100 3 -289 3 -423v-55c54 10 87 45 113 89l69 -32c-36 -70 -114 -129 -221 -129zM137 -56c0 -57 42 -100 102 -112v55c0 69 3 151 7 227c-47 -61 -109 -80 -109 -170zM320 500v-137h-78v137h78z" />
    <glyph glyph-name=".notdef" horiz-adv-x="900" 
d="M85 0v730h730v-730h-730zM450 331l-283 -283h566zM167 682l283 -283l283 283h-566zM484 365l283 -283v566zM416 365l-283 283v-566z" />
    <glyph glyph-name="C" unicode="C" horiz-adv-x="787" 
d="M425 -10c-207 0 -375 168 -375 375s168 375 375 375c139 0 260 -76 325 -188l-67 -39c-50 91 -145 153 -258 153c-168 0 -295 -136 -295 -301s127 -301 295 -301c127 0 218 67 266 164l69 -36c-63 -120 -183 -202 -335 -202z" />
    <glyph glyph-name="D" unicode="D" horiz-adv-x="706" 
d="M72 0v730h204c227 0 380 -158 380 -365c0 -208 -162 -365 -377 -365h-207zM270 658h-120v-585h123c177 0 303 126 303 292c0 167 -118 293 -306 293z" />
    <glyph glyph-name="E" unicode="E" horiz-adv-x="575" 
d="M72 0v730h443v-74h-365v-253h365v-74h-365v-254h365v-75h-443z" />
    <glyph glyph-name="F" unicode="F" horiz-adv-x="545" 
d="M72 0v730h413v-74h-335v-253h335v-74h-335v-329h-78z" />
    <glyph glyph-name="G" unicode="G" horiz-adv-x="845" 
d="M428 -10c-212 0 -378 168 -378 375s160 375 382 375c141 0 260 -75 324 -190l-68 -39c-49 93 -141 155 -256 155c-183 0 -302 -136 -302 -301s125 -301 298 -301c172 0 269 109 287 251h-293v74h374v-22c0 -201 -131 -377 -368 -377z" />
    <glyph glyph-name="H" unicode="H" horiz-adv-x="685" 
d="M535 0v330h-385v-330h-78v730h78v-325h385v325h78v-730h-78z" />
    <glyph glyph-name="I" unicode="I" horiz-adv-x="240" 
d="M81 0v730h78v-730h-78z" />
    <glyph glyph-name="J" unicode="J" horiz-adv-x="469" 
d="M217 -10c-86 0 -152 44 -184 103l70 46c22 -44 58 -78 112 -78c66 0 108 47 108 129v540h78v-538c0 -128 -72 -202 -184 -202z" />
    <glyph glyph-name="K" unicode="K" horiz-adv-x="646" 
d="M533 0l-246 385l-137 -161v-224h-78v730h78v-402l345 402h96l-249 -292l281 -438h-90z" />
    <glyph glyph-name="L" unicode="L" horiz-adv-x="533" 
d="M72 0v730h78v-655h326v-75h-404z" />
    <glyph glyph-name="M" unicode="M" horiz-adv-x="859" 
d="M72 0v730h77l277 -383l286 383h75v-730h-78v604l-285 -384l-274 374v-594h-78z" />
    <glyph glyph-name="N" unicode="N" horiz-adv-x="739" 
d="M72 0v730h87l430 -606v606h78v-730h-83l-434 611v-611h-78z" />
    <glyph glyph-name="O" unicode="O" horiz-adv-x="850" 
d="M425 -10c-207 0 -375 168 -375 375s168 375 375 375s375 -168 375 -375s-168 -375 -375 -375zM425 64c168 0 295 136 295 301s-127 301 -295 301s-295 -136 -295 -301s127 -301 295 -301z" />
    <glyph glyph-name="P" unicode="P" horiz-adv-x="618" 
d="M72 0v730h228c159 0 266 -109 266 -251s-107 -252 -266 -252h-150v-227h-78zM295 658h-145v-358h145c120 0 192 78 192 179c0 102 -72 179 -192 179z" />
    <glyph glyph-name="Q" unicode="Q" horiz-adv-x="851" 
d="M685 0l-260 316h96l124 -149c46 53 76 121 76 198c0 165 -128 301 -296 301s-295 -136 -295 -301s127 -301 295 -301c47 0 88 10 126 29l48 -58c-52 -29 -111 -45 -174 -45c-207 0 -375 168 -375 375s168 375 375 375s375 -168 375 -375c0 -101 -42 -190 -106 -257
l90 -108h-99z" />
    <glyph glyph-name="R" unicode="R" horiz-adv-x="594" 
d="M72 0v730h224c143 0 248 -103 248 -232c0 -103 -67 -197 -179 -222l185 -276h-91l-220 334h50c110 0 177 82 177 164c0 92 -67 160 -176 160h-140v-658h-78z" />
    <glyph glyph-name="S" unicode="S" horiz-adv-x="563" 
d="M281 -10c-118 0 -199 50 -258 134l66 50c49 -76 109 -113 192 -113c91 0 155 58 155 138c0 90 -87 118 -178 149c-100 34 -204 76 -204 203c0 106 96 189 224 189c103 0 173 -41 226 -110l-62 -46c-37 58 -91 87 -165 87c-82 0 -144 -52 -144 -120
c0 -84 84 -111 174 -142c101 -35 208 -77 208 -210c0 -108 -93 -209 -234 -209z" />
    <glyph glyph-name="T" unicode="T" horiz-adv-x="609" 
d="M266 0v658h-220v72h517v-72h-219v-658h-78z" />
    <glyph glyph-name="U" unicode="U" horiz-adv-x="633" 
d="M316 -10c-143 0 -248 108 -248 248v492h78v-496c0 -93 73 -170 170 -170s171 77 171 170v496h78v-492c0 -140 -106 -248 -249 -248z" />
    <glyph glyph-name="V" unicode="V" horiz-adv-x="680" 
d="M300 0l-266 730h81l225 -618l224 618h82l-267 -730h-79z" />
    <glyph glyph-name="W" unicode="W" horiz-adv-x="1070" 
d="M250 0l-214 730h83l174 -609l202 609h75l200 -610l184 610h80l-225 -730h-79l-199 608l-201 -608h-80z" />
    <glyph glyph-name="X" unicode="X" horiz-adv-x="655" 
d="M534 0l-207 314l-206 -314h-88l249 375l-232 355h88l191 -289l190 289h88l-233 -350l248 -380h-88z" />
    <glyph glyph-name="Y" unicode="Y" horiz-adv-x="619" 
d="M271 0v347l-242 383h87l194 -309l193 309h87l-241 -382v-348h-78z" />
    <glyph glyph-name="Z" unicode="Z" horiz-adv-x="603" 
d="M60 0v72l391 584h-379v74h471v-71l-391 -584h391v-75h-483z" />
    <glyph glyph-name="exclam" unicode="!" horiz-adv-x="240" 
d="M99 198c-9 95 -17 281 -17 415v117h78v-117c0 -134 -8 -320 -17 -415h-44zM82 0v137h78v-137h-78z" />
    <glyph glyph-name="exclamdown" unicode="&#xa1;" horiz-adv-x="240" 
d="M82 -230v117c0 134 8 321 17 415h44c9 -94 17 -281 17 -415v-117h-78zM82 363v137h78v-137h-78z" />
    <glyph glyph-name="question" unicode="?" horiz-adv-x="547" 
d="M222 190v9c0 251 191 211 191 357c0 68 -60 116 -139 116c-78 0 -120 -39 -151 -93l-69 32c36 70 114 129 221 129c124 0 217 -74 217 -185c0 -189 -199 -139 -199 -356v-9h-71zM219 0v137h78v-137h-78z" />
    <glyph glyph-name="questiondown" unicode="&#xbf;" horiz-adv-x="547" 
d="M271 -240c-124 0 -217 74 -217 185c0 189 199 139 199 356v9h71v-9c0 -251 -191 -211 -191 -357c0 -68 60 -116 139 -116c78 0 120 39 151 93l69 -32c-36 -70 -114 -129 -221 -129zM249 363v137h78v-137h-78z" />
    <glyph glyph-name="period" unicode="." horiz-adv-x="202" 
d="M62 0v137h78v-137h-78z" />
    <glyph glyph-name="ellipsis" unicode="&#x2026;" horiz-adv-x="497" 
d="M62 0v137h78v-137h-78zM209 0v137h79v-137h-79zM357 0v137h78v-137h-78z" />
    <glyph glyph-name="comma" unicode="," horiz-adv-x="202" 
d="M29 -117l41 204h83l-62 -204h-62z" />
    <glyph glyph-name="colon" unicode=":" horiz-adv-x="201" 
d="M62 0v137h77v-137h-77zM62 363v137h77v-137h-77z" />
    <glyph glyph-name="semicolon" unicode=";" horiz-adv-x="202" 
d="M62 363v137h77v-137h-77zM29 -117l41 204h83l-62 -204h-62z" />
    <glyph glyph-name="underscore" unicode="_" horiz-adv-x="573" 
d="M52 -77v67h470v-67h-470z" />
    <glyph glyph-name="quotesingle" unicode="'" horiz-adv-x="185" 
d="M105 500h-24c-6 25 -22 99 -22 146v84h68v-84c0 -45 -16 -121 -22 -146z" />
    <glyph glyph-name="quotedbl" unicode="&#x22;" horiz-adv-x="302" 
d="M81 500c-6 25 -22 99 -22 146v84h68v-84c0 -45 -16 -121 -22 -146h-24zM198 500c-6 25 -22 99 -22 146v84h68v-84c0 -45 -16 -121 -22 -146h-24z" />
    <glyph glyph-name="quoteleft" unicode="&#x2018;" horiz-adv-x="200" 
d="M114 730l42 -204h-52l-65 204h75z" />
    <glyph glyph-name="quoteright" unicode="&#x2019;" horiz-adv-x="200" 
d="M94 526h-52l42 204h75z" />
    <glyph glyph-name="quotesinglbase" unicode="&#x201a;" horiz-adv-x="201" 
d="M83 -117h-52l42 204h75z" />
    <glyph glyph-name="quotedblleft" unicode="&#x201c;" horiz-adv-x="319" 
d="M114 730l42 -204h-50l-63 204h71zM234 730l41 -204h-50l-62 204h71z" />
    <glyph glyph-name="quotedblright" unicode="&#x201d;" horiz-adv-x="319" 
d="M94 526h-52l42 204h75zM214 526h-52l42 204h75z" />
    <glyph glyph-name="quotedblbase" unicode="&#x201e;" horiz-adv-x="320" 
d="M86 -117h-52l42 204h75zM206 -117h-52l42 204h75z" />
    <glyph glyph-name="guillemotleft.cap" unicode="&#xe453;" horiz-adv-x="464" 
d="M227 227l-162 116v46l162 116v-57l-114 -83l114 -82v-56zM399 227l-162 116v46l162 116v-57l-114 -83l114 -82v-56z" />
    <glyph glyph-name="guillemotright.cap" unicode="&#xe454;" horiz-adv-x="464" 
d="M237 227v56l115 82l-115 83v57l162 -116v-46zM65 227v56l115 82l-115 83v57l162 -116v-46z" />
    <glyph glyph-name="guilsinglleft.cap" unicode="&#xe451;" horiz-adv-x="292" 
d="M224 222l-155 119v50l155 119v-62l-109 -82l109 -82v-62z" />
    <glyph glyph-name="guilsinglright.cap" unicode="&#xe452;" horiz-adv-x="292" 
d="M69 222v61l108 82l-108 83v62l155 -119v-50z" />
    <glyph glyph-name="ampersand" unicode="&#x26;" horiz-adv-x="759" 
d="M616 0l-71 70c-60 -49 -133 -81 -216 -81c-204 0 -284 128 -284 237c0 98 55 175 135 219c-28 38 -43 77 -43 125c0 92 71 170 188 170c89 0 147 -45 179 -95l-64 -42c-22 35 -57 69 -115 69c-66 0 -108 -47 -108 -102c0 -61 34 -97 121 -185l213 -214
c46 56 75 125 84 190h-118v73h194v-33c0 -90 -41 -196 -112 -278l123 -123h-106zM329 58c64 0 121 23 168 60l-222 222c-18 18 -35 35 -50 51c-65 -37 -102 -90 -102 -164c0 -79 64 -169 206 -169z" />
    <glyph glyph-name="at" unicode="@" horiz-adv-x="845" 
d="M422 -125c-207 0 -373 167 -373 375c0 207 173 375 380 375c218 0 367 -162 367 -337c0 -115 -52 -208 -157 -208c-56 0 -93 24 -112 57c-26 -35 -72 -60 -132 -60c-85 0 -169 66 -157 182c14 121 101 178 180 178c50 0 89 -19 111 -48c4 37 4 42 4 42h76l-20 -181
c-8 -71 11 -97 56 -97c52 0 80 53 80 133c0 139 -117 269 -297 269c-168 0 -303 -137 -303 -305s129 -305 297 -305c88 0 162 34 217 90l54 -46c-61 -63 -161 -114 -271 -114zM410 146c62 0 101 53 106 113c7 59 -24 111 -84 111c-57 0 -108 -42 -114 -110
c-9 -62 32 -114 92 -114z" />
    <glyph glyph-name="section" unicode="&#xa7;" horiz-adv-x="604" 
d="M300 -10c-145 0 -224 78 -235 156l78 19c6 -61 60 -112 159 -112c65 0 131 24 131 84c0 54 -68 63 -174 88c-141 34 -206 70 -206 146c0 56 40 105 99 122c-37 23 -58 53 -58 98c0 92 81 150 200 149c136 0 206 -72 217 -147l-74 -17c-9 61 -49 103 -144 103
c-66 0 -126 -25 -126 -85c0 -54 68 -66 174 -91c141 -34 206 -70 206 -146c0 -52 -40 -104 -98 -123c36 -21 57 -50 57 -94c0 -92 -87 -151 -206 -150zM299 284c31 -7 59 -14 84 -21c62 15 90 50 90 88c0 45 -69 70 -172 93c-30 6 -57 13 -81 21c-58 -5 -93 -43 -93 -84
c0 -53 69 -74 172 -97z" />
    <glyph glyph-name="paragraph" unicode="&#xb6;" horiz-adv-x="603" 
d="M345 0v302h-91c-124 0 -217 94 -217 214c0 119 93 214 216 214h289v-730h-69v659h-60v-659h-68z" />
    <glyph glyph-name="bullet.cap" unicode="&#xe466;" horiz-adv-x="335" 
d="M168 290c-40 0 -73 33 -73 73s33 73 73 73s73 -33 73 -73s-33 -73 -73 -73z" />
    <glyph glyph-name="copyright" unicode="&#xa9;" horiz-adv-x="847" 
d="M424 -10c-207 0 -375 168 -375 375s168 375 375 375s375 -168 375 -375s-168 -375 -375 -375zM424 59c171 0 300 138 300 306s-129 306 -300 306s-300 -138 -300 -306s129 -306 300 -306zM428 166c-114 0 -200 89 -200 199s87 199 200 199c76 0 142 -42 174 -100l-66 -40
c-18 38 -59 68 -109 68c-69 0 -126 -57 -126 -127c0 -71 57 -127 126 -127c52 0 94 31 111 72l67 -37c-32 -62 -99 -107 -177 -107z" />
    <glyph glyph-name="registered" unicode="&#xae;" horiz-adv-x="402" 
d="M201 430c-84 0 -152 68 -152 152c0 85 68 153 152 153c85 0 153 -68 153 -153c0 -84 -68 -152 -153 -152zM201 472c62 0 107 49 107 110s-45 111 -107 111c-61 0 -107 -50 -107 -111s46 -110 107 -110zM143 510v152h70c40 0 57 -23 57 -53c0 -21 -12 -38 -33 -46l32 -53
h-47l-39 70v-70h-40zM205 626h-22v-38h22c17 0 24 7 24 19c0 11 -7 19 -24 19z" />
    <glyph glyph-name="published" unicode="&#x2117;" horiz-adv-x="847" 
d="M424 -125c-207 0 -375 168 -375 375s168 375 375 375s375 -168 375 -375s-168 -375 -375 -375zM424 -56c171 0 300 138 300 306s-129 306 -300 306s-300 -138 -300 -306s129 -306 300 -306zM292 60v385h166c82 0 140 -60 140 -136c0 -77 -50 -144 -138 -144h-95v-105h-73
zM449 382h-84v-151h84c46 0 76 36 76 78s-32 73 -76 73z" />
    <glyph glyph-name="trademark" unicode="&#x2122;" horiz-adv-x="683" 
d="M310 440v290h53l106 -141l111 141h49v-290h-57v196l-103 -127l-103 128v-197h-56zM133 440v238h-92v52h239v-52h-91v-238h-56z" />
    <glyph glyph-name="asterisk" unicode="*" horiz-adv-x="436" 
d="M352 436l-117 88l18 -148h-70l17 148l-119 -89l-34 61l136 58l-136 60l35 59l118 -89l-17 146h70l-18 -146l118 88l35 -60l-136 -58l136 -58z" />
    <glyph glyph-name="dagger" unicode="&#x2020;" horiz-adv-x="576" 
d="M62 431v69h186v230h78v-230h189v-69h-189v-431h-78v431h-186z" />
    <glyph glyph-name="daggerdbl" unicode="&#x2021;" horiz-adv-x="576" 
d="M62 460v68h186v202h78v-202h189v-68h-189v-182h189v-68h-189v-210h-78v210h-186v68h186v182h-186z" />
    <glyph glyph-name="asciicircum" unicode="^" horiz-adv-x="498" 
d="M96 532l121 168h63l123 -168h-80l-74 104l-73 -104h-80z" />
    <glyph glyph-name="asciitilde" unicode="~" horiz-adv-x="473" 
d="M68 560c2 70 39 117 98 117c33 0 56 -13 77 -26c20 -12 38 -26 59 -26c22 0 35 15 37 47h61c-1 -71 -35 -117 -97 -117c-39 0 -65 18 -88 32c-16 10 -31 19 -49 19c-22 0 -33 -14 -35 -46h-63z" />
    <glyph glyph-name="ordfeminine" unicode="&#xaa;" horiz-adv-x="410" 
d="M196 435c-68 0 -143 55 -143 150c0 97 76 151 144 151c42 0 77 -16 101 -41v35h58v-289h-58v36c-24 -26 -60 -42 -102 -42zM207 489c54 0 93 44 93 97s-39 96 -93 96s-96 -41 -96 -96c0 -54 42 -97 96 -97z" />
    <glyph glyph-name="ordmasculine" unicode="&#xba;" horiz-adv-x="406" 
d="M203 435c-83 0 -150 67 -150 150c0 84 67 151 150 151c84 0 150 -67 150 -151c0 -83 -66 -150 -150 -150zM203 492c52 0 92 42 92 93c0 52 -40 95 -92 95c-51 0 -92 -43 -92 -95c0 -51 41 -93 92 -93z" />
    <glyph glyph-name="bar.cap" unicode="&#xe463;" horiz-adv-x="201" 
d="M62 -120v960h78v-960h-78z" />
    <glyph glyph-name="brokenbar.cap" unicode="&#xe465;" horiz-adv-x="242" 
d="M62 420v420h78v-420h-78zM62 -120v420h78v-420h-78z" />
    <glyph glyph-name="parenleft.cap" unicode="&#xe491;" horiz-adv-x="431" 
d="M326 -134c-152 106 -277 259 -277 497c0 239 126 388 275 498l54 -61c-143 -100 -246 -232 -246 -436c0 -205 102 -338 247 -437z" />
    <glyph glyph-name="parenright.cap" unicode="&#xe492;" horiz-adv-x="431" 
d="M105 -134l-53 61c145 99 247 232 247 436c0 205 -103 337 -246 437l54 61c149 -110 275 -259 275 -498c0 -238 -125 -391 -277 -497z" />
    <glyph glyph-name="bracketleft.cap" unicode="&#xe493;" horiz-adv-x="376" 
d="M52 -120v960h273v-74h-195v-812h195v-74h-273z" />
    <glyph glyph-name="bracketright.cap" unicode="&#xe494;" horiz-adv-x="376" 
d="M52 -120v73h195v813h-195v74h273v-960h-273z" />
    <glyph glyph-name="braceleft.cap" unicode="&#xe495;" horiz-adv-x="403" 
d="M362 -120h-11c-167 0 -220 54 -220 217v120c0 78 -10 105 -94 105v73c84 0 94 27 94 105v123c0 163 53 217 220 217h11v-71c-128 0 -154 -30 -154 -147v-123c0 -75 -17 -120 -67 -141c51 -21 67 -66 67 -140v-120c0 -117 26 -147 154 -147v-71z" />
    <glyph glyph-name="braceright.cap" unicode="&#xe496;" horiz-adv-x="403" 
d="M42 -120v72c127 0 154 29 154 146v120c0 74 15 119 67 140c-51 21 -67 66 -67 141v123c0 117 -27 146 -154 146v72h11c167 0 220 -54 220 -217v-123c0 -78 10 -105 94 -105v-73c-84 0 -94 -27 -94 -105v-120c0 -163 -53 -217 -220 -217h-11z" />
    <glyph glyph-name="numbersign" unicode="#" horiz-adv-x="833" 
d="M520 0v188h-206v-188h-78v188h-191v75h191v210h-191v75h191v182h78v-182h206v182h78v-182h190v-75h-190v-210h190v-75h-190v-188h-78zM314 473v-210h206v210h-206z" />
    <glyph glyph-name="percent" unicode="%" horiz-adv-x="856" 
d="M133 571c0 -59 46 -105 102 -105s101 46 101 105s-45 104 -101 104s-102 -45 -102 -104zM464 159c0 94 75 169 169 169s170 -75 170 -169s-76 -170 -170 -170s-169 76 -169 170zM71 0l627 730h99l-627 -730h-99zM532 159c0 -59 45 -105 101 -105s102 46 102 105
s-46 104 -102 104s-101 -45 -101 -104zM65 571c0 94 76 169 170 169c93 0 169 -75 169 -169s-76 -170 -169 -170c-94 0 -170 76 -170 170z" />
    <glyph glyph-name="perthousand" unicode="&#x2030;" horiz-adv-x="1261" 
d="M71 0l627 730h99l-627 -730h-99zM633 -11c-94 0 -169 76 -169 170s75 169 169 169s170 -75 170 -169s-76 -170 -170 -170zM633 54c56 0 102 46 102 105s-46 104 -102 104s-101 -45 -101 -104s45 -105 101 -105zM235 401c-94 0 -170 76 -170 170s76 169 170 169
c93 0 169 -75 169 -169s-76 -170 -169 -170zM235 466c56 0 101 46 101 105s-45 104 -101 104s-102 -45 -102 -104s46 -105 102 -105zM1026 -11c-94 0 -169 76 -169 170s75 169 169 169s170 -75 170 -169s-76 -170 -170 -170zM1026 54c56 0 102 46 102 105s-46 104 -102 104
s-101 -45 -101 -104s45 -105 101 -105z" />
    <glyph glyph-name="less" unicode="&#x3c;" horiz-adv-x="473" 
d="M422 190l-370 143v66l370 140v-70l-289 -103l289 -106v-70z" />
    <glyph glyph-name="greater" unicode="&#x3e;" horiz-adv-x="473" 
d="M52 190v70l289 106l-289 103v70l370 -140v-66z" />
    <glyph glyph-name="plus" unicode="+" horiz-adv-x="473" 
d="M52 332v66h152v151h66v-151h152v-66h-152v-153h-66v153h-152z" />
    <glyph glyph-name="minus" unicode="&#x2212;" horiz-adv-x="473" 
d="M52 332v67h370v-67h-370z" />
    <glyph glyph-name="equal" unicode="=" horiz-adv-x="473" 
d="M52 411v67h370v-67h-370zM52 249v66h370v-66h-370z" />
    <glyph glyph-name="multiply" unicode="&#xd7;" horiz-adv-x="473" 
d="M115 196l-46 46l122 122l-122 123l46 46l122 -123l122 122l46 -46l-122 -122l122 -121l-46 -46l-122 121z" />
    <glyph glyph-name="divide" unicode="&#xf7;" horiz-adv-x="473" 
d="M52 332v66h370v-66h-370zM204 449v120h66v-120h-66zM204 160v120h66v-120h-66z" />
    <glyph glyph-name="plusminus" unicode="&#xb1;" horiz-adv-x="473" 
d="M52 432v67h152v151h66v-151h152v-67h-152v-152h-66v152h-152zM52 127v67h370v-67h-370z" />
    <glyph glyph-name="notequal" unicode="&#x2260;" horiz-adv-x="473" 
d="M356 546l-33 -68h99v-67h-132l-47 -96h179v-66h-211l-31 -65h-71l31 65h-88v66h120l47 96h-167v67h200l33 68h71z" />
    <glyph glyph-name="lessequal" unicode="&#x2264;" horiz-adv-x="473" 
d="M421 270l-370 142v67l370 139v-69l-288 -104l288 -106v-69zM51 159v67h370v-67h-370z" />
    <glyph glyph-name="greaterequal" unicode="&#x2265;" horiz-adv-x="473" 
d="M51 270v69l288 106l-288 104v69l370 -139v-67zM51 159v67h370v-67h-370z" />
    <glyph glyph-name="degree" unicode="&#xb0;" horiz-adv-x="431" 
d="M216 483c-71 0 -129 58 -129 129s58 128 129 128s128 -57 128 -128s-57 -129 -128 -129zM216 548c34 0 63 29 63 63s-29 63 -63 63s-63 -29 -63 -63s29 -63 63 -63z" />
    <glyph glyph-name="fraction" unicode="&#x2044;" horiz-adv-x="670" 
d="M27 0l527 730h91l-527 -730h-91z" />
    <glyph glyph-name="acute" unicode="&#xb4;" horiz-adv-x="498" 
d="M132 558l117 162h100l-145 -162h-72z" />
    <glyph glyph-name="grave" unicode="`" horiz-adv-x="498" 
d="M277 558l-145 162h99l118 -162h-72z" />
    <glyph glyph-name="circumflex" unicode="&#x2c6;" horiz-adv-x="498" 
d="M97 558l119 162h66l119 -162h-80l-72 100l-71 -100h-81z" />
    <glyph glyph-name="dieresis" unicode="&#xa8;" horiz-adv-x="504" 
d="M276 565v139h77v-139h-77zM142 565v139h77v-139h-77z" />
    <glyph glyph-name="tilde" unicode="&#x2dc;" horiz-adv-x="498" 
d="M75 558c0 73 41 120 99 120c33 0 57 -13 81 -27c22 -14 42 -28 63 -28c24 0 39 17 39 52h62c0 -74 -35 -121 -100 -121c-38 0 -66 18 -91 33c-19 11 -33 22 -54 22c-23 0 -37 -16 -37 -51h-62z" />
    <glyph glyph-name="caron" unicode="&#x2c7;" horiz-adv-x="498" 
d="M216 558l-119 162h80l71 -100l72 100h80l-119 -162h-65z" />
    <glyph glyph-name="ring" unicode="&#x2da;" horiz-adv-x="498" 
d="M246 554c-58 0 -106 48 -106 107c0 61 48 108 106 108c61 0 109 -47 109 -108c0 -59 -48 -107 -109 -107zM246 614c27 0 49 21 49 47s-22 49 -49 49c-25 0 -47 -23 -47 -49s22 -47 47 -47z" />
    <glyph glyph-name="breve" unicode="&#x2d8;" horiz-adv-x="498" 
d="M248 552c-110 0 -161 74 -161 163h66c0 -63 33 -104 95 -105c60 1 94 42 94 105h68c0 -89 -62 -163 -162 -163z" />
    <glyph glyph-name="macron" unicode="&#xaf;" horiz-adv-x="498" 
d="M118 558v67h264v-67h-264z" />
    <glyph glyph-name="dotaccent" unicode="&#x2d9;" horiz-adv-x="504" 
d="M204 565v139h77v-139h-77z" />
    <glyph glyph-name="hungarumlaut" unicode="&#x2dd;" horiz-adv-x="498" 
d="M71 558l117 162h94l-145 -162h-66zM213 558l118 162h94l-145 -162h-67z" />
    <glyph glyph-name="cedilla" unicode="&#xb8;" horiz-adv-x="498" 
d="M241 -234c-63 0 -110 22 -146 56l61 37c25 -20 46 -36 85 -36c38 0 68 18 68 41s-25 36 -71 36h-41v100h65v-52c71 0 119 -34 119 -81c0 -59 -64 -101 -140 -101z" />
    <glyph glyph-name="ogonek" unicode="&#x2db;" horiz-adv-x="498" 
d="M243 -217c-80 0 -135 45 -135 101c0 50 33 96 141 148l62 -33c-101 -61 -125 -82 -125 -111c0 -27 25 -41 57 -41c33 0 53 16 74 34l61 -42c-34 -30 -86 -56 -135 -56z" />
    <glyph glyph-name="commaaccent" unicode="&#xe414;" horiz-adv-x="504" 
d="M240 -249h-53l41 204h71z" />
    <glyph glyph-name="commaaccent" unicode="&#xf6c3;" horiz-adv-x="504" 
d="M240 -249h-53l41 204h71z" />
    <glyph glyph-name="Aacute" unicode="&#xc1;" horiz-adv-x="705" 
d="M34 0l276 730h84l277 -730h-81l-71 185h-333l-70 -185h-82zM352 625l-138 -366h277zM307 788l117 162h100l-145 -162h-72z" />
    <glyph glyph-name="Agrave" unicode="&#xc0;" horiz-adv-x="705" 
d="M34 0l276 730h84l277 -730h-81l-71 185h-333l-70 -185h-82zM352 625l-138 -366h277zM312 788l-145 162h99l118 -162h-72z" />
    <glyph glyph-name="Acircumflex" unicode="&#xc2;" horiz-adv-x="705" 
d="M34 0l276 730h84l277 -730h-81l-71 185h-333l-70 -185h-82zM352 625l-138 -366h277zM193 788l119 162h66l119 -162h-80l-72 100l-71 -100h-81z" />
    <glyph glyph-name="Adieresis" unicode="&#xc4;" horiz-adv-x="705" 
d="M34 0l276 730h84l277 -730h-81l-71 185h-333l-70 -185h-82zM352 625l-138 -366h277zM378 795v139h77v-139h-77zM244 795v139h77v-139h-77z" />
    <glyph glyph-name="Atilde" unicode="&#xc3;" horiz-adv-x="705" 
d="M34 0l276 730h84l277 -730h-81l-71 185h-333l-70 -185h-82zM352 625l-138 -366h277zM173 788c0 73 41 120 99 120c33 0 57 -13 81 -27c22 -14 42 -28 63 -28c24 0 39 17 39 52h62c0 -74 -35 -121 -100 -121c-38 0 -66 18 -91 33c-19 11 -33 22 -54 22
c-23 0 -37 -16 -37 -51h-62z" />
    <glyph glyph-name="Aring" unicode="&#xc5;" horiz-adv-x="705" 
d="M34 0l261 690c-33 19 -55 54 -55 94c0 61 48 108 106 108c61 0 109 -47 109 -108c0 -37 -19 -70 -48 -89l264 -695h-81l-71 185h-333l-70 -185h-82zM352 625l-138 -366h277zM346 737c27 0 49 21 49 47s-22 49 -49 49c-25 0 -47 -23 -47 -49s22 -47 47 -47z" />
    <glyph glyph-name="Amacron" unicode="&#x100;" horiz-adv-x="705" 
d="M34 0l276 730h84l277 -730h-81l-71 185h-333l-70 -185h-82zM352 625l-138 -366h277zM216 788v67h264v-67h-264z" />
    <glyph glyph-name="Abreve" unicode="&#x102;" horiz-adv-x="705" 
d="M34 0l276 730h84l277 -730h-81l-71 185h-333l-70 -185h-82zM352 625l-138 -366h277zM346 784c-110 0 -161 74 -161 163h66c0 -63 33 -104 95 -105c60 1 94 42 94 105h68c0 -89 -62 -163 -162 -163z" />
    <glyph glyph-name="Aogonek" unicode="&#x104;" horiz-adv-x="705" 
d="M603 -216c-80 0 -135 45 -135 101c0 46 27 88 114 134l-63 166h-333l-70 -185h-82l276 730h84l277 -730c-101 -61 -125 -82 -125 -111c0 -27 25 -41 57 -41c33 0 53 16 74 34l61 -42c-34 -30 -86 -56 -135 -56zM352 625l-138 -366h277z" />
    <glyph glyph-name="Aringacute" unicode="&#x1fa;" horiz-adv-x="705" 
d="M34 0l261 691c-33 18 -55 53 -55 94c0 61 48 108 106 108c61 0 109 -47 109 -108c0 -37 -19 -70 -48 -89l264 -696h-81l-71 185h-333l-70 -185h-82zM352 625l-138 -366h277zM306 921l117 162h100l-145 -162h-72zM346 738c27 0 49 21 49 47s-22 49 -49 49
c-25 0 -47 -23 -47 -49s22 -47 47 -47z" />
    <glyph glyph-name="AE" unicode="&#xc6;" horiz-adv-x="1026" 
d="M28 0l346 730h576v-74h-474l59 -253h415v-74h-398l59 -254h339v-75h-401l-42 181h-305l-86 -181h-88zM407 613l-171 -360h254z" />
    <glyph glyph-name="AEacute" unicode="&#x1fc;" horiz-adv-x="1101" 
d="M72 0l346 730h576v-74h-474l59 -253h415v-74h-398l59 -254h339v-75h-401l-42 181h-305l-86 -181h-88zM451 613l-171 -360h254zM569 788l117 162h100l-145 -162h-72z" />
    <glyph glyph-name="Cacute" unicode="&#x106;" horiz-adv-x="787" 
d="M381 788l117 162h100l-145 -162h-72zM425 -10c-207 0 -375 168 -375 375s168 375 375 375c139 0 260 -76 325 -188l-67 -39c-50 91 -145 153 -258 153c-168 0 -295 -136 -295 -301s127 -301 295 -301c127 0 218 67 266 164l69 -36c-63 -120 -183 -202 -335 -202z" />
    <glyph glyph-name="Ccircumflex" unicode="&#x108;" horiz-adv-x="787" 
d="M425 -10c-207 0 -375 168 -375 375s168 375 375 375c139 0 260 -76 325 -188l-67 -39c-50 91 -145 153 -258 153c-168 0 -295 -136 -295 -301s127 -301 295 -301c127 0 218 67 266 164l69 -36c-63 -120 -183 -202 -335 -202zM272 788l119 162h66l119 -162h-80l-72 100
l-71 -100h-81z" />
    <glyph glyph-name="Ccaron" unicode="&#x10c;" horiz-adv-x="787" 
d="M425 -10c-207 0 -375 168 -375 375s168 375 375 375c139 0 260 -76 325 -188l-67 -39c-50 91 -145 153 -258 153c-168 0 -295 -136 -295 -301s127 -301 295 -301c127 0 218 67 266 164l69 -36c-63 -120 -183 -202 -335 -202zM387 788l-119 162h80l71 -100l72 100h80
l-119 -162h-65z" />
    <glyph glyph-name="Ccedilla" unicode="&#xc7;" horiz-adv-x="787" 
d="M424 -234c-63 0 -110 22 -146 56l61 37c25 -20 46 -36 85 -36c38 0 68 18 68 41s-25 36 -71 36h-41v93c-186 22 -330 180 -330 372c0 207 168 375 375 375c139 0 260 -76 325 -188l-67 -39c-50 91 -145 153 -258 153c-168 0 -295 -136 -295 -301s127 -301 295 -301
c127 0 218 67 266 164l69 -36c-60 -115 -173 -194 -315 -201v-43c71 0 119 -34 119 -81c0 -59 -64 -101 -140 -101z" />
    <glyph glyph-name="Cdotaccent" unicode="&#x10a;" horiz-adv-x="787" 
d="M425 -10c-207 0 -375 168 -375 375s168 375 375 375c139 0 260 -76 325 -188l-67 -39c-50 91 -145 153 -258 153c-168 0 -295 -136 -295 -301s127 -301 295 -301c127 0 218 67 266 164l69 -36c-63 -120 -183 -202 -335 -202zM394 795v139h77v-139h-77z" />
    <glyph glyph-name="Dcaron" unicode="&#x10e;" horiz-adv-x="706" 
d="M72 0v730h204c227 0 380 -158 380 -365c0 -208 -162 -365 -377 -365h-207zM270 658h-120v-585h123c177 0 303 126 303 292c0 167 -118 293 -306 293zM263 788l-119 162h80l71 -100l72 100h80l-119 -162h-65z" />
    <glyph glyph-name="Eth" unicode="&#xd0;" horiz-adv-x="732" 
d="M23 328v76h77v326h202c227 0 380 -158 380 -365c0 -208 -162 -365 -377 -365h-205v328h-77zM294 658h-116v-254h214v-76h-214v-255h119c177 0 307 126 307 292c0 167 -122 293 -310 293z" />
    <glyph glyph-name="Dcroat" unicode="&#x110;" horiz-adv-x="732" 
d="M23 328v76h77v326h202c227 0 380 -158 380 -365c0 -208 -162 -365 -377 -365h-205v328h-77zM294 658h-116v-254h214v-76h-214v-255h119c177 0 307 126 307 292c0 167 -122 293 -310 293z" />
    <glyph glyph-name="Eacute" unicode="&#xc9;" horiz-adv-x="575" 
d="M72 0v730h443v-74h-365v-253h365v-74h-365v-254h365v-75h-443zM236 788l117 162h100l-145 -162h-72z" />
    <glyph glyph-name="Egrave" unicode="&#xc8;" horiz-adv-x="575" 
d="M72 0v730h443v-74h-365v-253h365v-74h-365v-254h365v-75h-443zM263 788l-145 162h99l118 -162h-72z" />
    <glyph glyph-name="Ecircumflex" unicode="&#xca;" horiz-adv-x="575" 
d="M72 0v730h443v-74h-365v-253h365v-74h-365v-254h365v-75h-443zM135 788l119 162h66l119 -162h-80l-72 100l-71 -100h-81z" />
    <glyph glyph-name="Edieresis" unicode="&#xcb;" horiz-adv-x="575" 
d="M72 0v730h443v-74h-365v-253h365v-74h-365v-254h365v-75h-443zM187 795v139h77v-139h-77zM321 795v139h77v-139h-77z" />
    <glyph glyph-name="Ecaron" unicode="&#x11a;" horiz-adv-x="576" 
d="M72 0v730h443v-74h-365v-253h365v-74h-365v-254h365v-75h-443zM254 788l-119 162h80l71 -100l72 100h80l-119 -162h-65z" />
    <glyph glyph-name="Emacron" unicode="&#x112;" horiz-adv-x="575" 
d="M72 0v730h443v-74h-365v-253h365v-74h-365v-254h365v-75h-443zM156 788v67h264v-67h-264z" />
    <glyph glyph-name="Ebreve" unicode="&#x114;" horiz-adv-x="575" 
d="M72 0v730h443v-74h-365v-253h365v-74h-365v-254h365v-75h-443zM291 784c-110 0 -161 74 -161 163h66c0 -63 33 -104 95 -105c60 1 94 42 94 105h68c0 -89 -62 -163 -162 -163z" />
    <glyph glyph-name="Eogonek" unicode="&#x118;" horiz-adv-x="575" 
d="M72 0v730h443v-74h-365v-253h365v-74h-365v-254h365v-75c-101 -61 -125 -82 -125 -111c0 -27 25 -41 57 -41c33 0 53 16 74 34l61 -42c-34 -30 -86 -56 -135 -56c-80 0 -135 45 -135 101c0 39 20 76 81 115h-321z" />
    <glyph glyph-name="Edotaccent" unicode="&#x116;" horiz-adv-x="575" 
d="M72 0v730h443v-74h-365v-253h365v-74h-365v-254h365v-75h-443zM264 795v139h77v-139h-77z" />
    <glyph glyph-name="Gcircumflex" unicode="&#x11c;" horiz-adv-x="845" 
d="M428 -10c-212 0 -378 168 -378 375s160 375 382 375c141 0 260 -75 324 -190l-68 -39c-49 93 -141 155 -256 155c-183 0 -302 -136 -302 -301s125 -301 298 -301c172 0 269 109 287 251h-293v74h374v-22c0 -201 -131 -377 -368 -377zM269 788l119 162h66l119 -162h-80
l-72 100l-71 -100h-81z" />
    <glyph glyph-name="Gbreve" unicode="&#x11e;" horiz-adv-x="845" 
d="M428 -10c-212 0 -378 168 -378 375s160 375 382 375c141 0 260 -75 324 -190l-68 -39c-49 93 -141 155 -256 155c-183 0 -302 -136 -302 -301s125 -301 298 -301c172 0 269 109 287 251h-293v74h374v-22c0 -201 -131 -377 -368 -377zM420 784c-110 0 -161 74 -161 163h66
c0 -63 33 -104 95 -105c60 1 94 42 94 105h68c0 -89 -62 -163 -162 -163z" />
    <glyph glyph-name="Gdotaccent" unicode="&#x120;" horiz-adv-x="845" 
d="M428 -10c-212 0 -378 168 -378 375s160 375 382 375c141 0 260 -75 324 -190l-68 -39c-49 93 -141 155 -256 155c-183 0 -302 -136 -302 -301s125 -301 298 -301c172 0 269 109 287 251h-293v74h374v-22c0 -201 -131 -377 -368 -377zM386 795v139h77v-139h-77z" />
    <glyph glyph-name="Gcommaaccent" unicode="&#x122;" horiz-adv-x="845" 
d="M428 -10c-212 0 -378 168 -378 375s160 375 382 375c141 0 260 -75 324 -190l-68 -39c-49 93 -141 155 -256 155c-183 0 -302 -136 -302 -301s125 -301 298 -301c172 0 269 109 287 251h-293v74h374v-22c0 -201 -131 -377 -368 -377zM409 -264h-53l41 204h71z" />
    <glyph glyph-name="Hcircumflex" unicode="&#x124;" horiz-adv-x="685" 
d="M535 0v330h-385v-330h-78v730h78v-325h385v325h78v-730h-78zM189 788l119 162h66l119 -162h-80l-72 100l-71 -100h-81z" />
    <glyph glyph-name="Hbar" unicode="&#x126;" horiz-adv-x="725" 
d="M22 537v60h68v133h78v-133h385v133h78v-133h64v-60h-64v-537h-78v330h-385v-330h-78v537h-68zM168 537v-132h385v132h-385z" />
    <glyph glyph-name="Iacute" unicode="&#xcd;" horiz-adv-x="240" 
d="M81 0v730h78v-730h-78zM78 788l117 162h100l-145 -162h-72z" />
    <glyph glyph-name="Igrave" unicode="&#xcc;" horiz-adv-x="240" 
d="M81 0v730h78v-730h-78zM83 788l-145 162h99l118 -162h-72z" />
    <glyph glyph-name="Icircumflex" unicode="&#xce;" horiz-adv-x="240" 
d="M81 0v730h78v-730h-78zM-35 788l119 162h66l119 -162h-80l-72 100l-71 -100h-81z" />
    <glyph glyph-name="Idieresis" unicode="&#xcf;" horiz-adv-x="240" 
d="M181 795v139h77v-139h-77zM-19 795v139h77v-139h-77zM81 0v730h78v-730h-78z" />
    <glyph glyph-name="Itilde" unicode="&#x128;" horiz-adv-x="240" 
d="M81 0v730h78v-730h-78zM-46 788c0 73 41 120 99 120c33 0 57 -13 81 -27c22 -14 42 -28 63 -28c24 0 39 17 39 52h62c0 -74 -35 -121 -100 -121c-38 0 -66 18 -91 33c-19 11 -33 22 -54 22c-23 0 -37 -16 -37 -51h-62z" />
    <glyph glyph-name="Imacron" unicode="&#x12a;" horiz-adv-x="240" 
d="M81 0v730h78v-730h-78zM-14 788v67h264v-67h-264z" />
    <glyph glyph-name="Ibreve" unicode="&#x12c;" horiz-adv-x="240" 
d="M81 0v730h78v-730h-78zM116 784c-110 0 -161 74 -161 163h66c0 -63 33 -104 95 -105c60 1 94 42 94 105h68c0 -89 -62 -163 -162 -163z" />
    <glyph glyph-name="Idotaccent" unicode="&#x130;" horiz-adv-x="240" 
d="M81 0v730h78v-730h-78zM81 795v139h77v-139h-77z" />
    <glyph glyph-name="Iogonek" unicode="&#x12e;" horiz-adv-x="240" 
d="M129 -217c-86 0 -122 53 -122 109c0 45 30 88 74 124v714h78v-730c-54 -43 -79 -73 -79 -105c0 -27 20 -46 49 -46c28 0 46 11 64 26l44 -54c-30 -22 -71 -38 -108 -38z" />
    <glyph glyph-name="uni0328" unicode="&#x328;" horiz-adv-x="498" 
d="M284 -217c-86 0 -122 53 -122 109c0 52 41 101 95 140l57 -32c-54 -43 -79 -73 -79 -105c0 -27 20 -46 49 -46c28 0 46 11 64 26l44 -54c-30 -22 -71 -38 -108 -38z" />
    <glyph glyph-name="Jcircumflex" unicode="&#x134;" horiz-adv-x="469" 
d="M217 -10c-86 0 -152 44 -184 103l70 46c22 -44 58 -78 112 -78c66 0 108 47 108 129v540h78v-538c0 -128 -72 -202 -184 -202zM208 788l119 162h66l119 -162h-80l-72 100l-71 -100h-81z" />
    <glyph glyph-name="Kcommaaccent" unicode="&#x136;" horiz-adv-x="646" 
d="M533 0l-246 385l-137 -161v-224h-78v730h78v-402l345 402h96l-249 -292l281 -438h-90zM312 -264h-53l41 204h71z" />
    <glyph glyph-name="Lacute" unicode="&#x139;" horiz-adv-x="533" 
d="M72 0v730h78v-655h326v-75h-404zM67 788l117 162h100l-145 -162h-72z" />
    <glyph glyph-name="Lcommaaccent" unicode="&#x13b;" horiz-adv-x="533" 
d="M72 0v730h78v-655h326v-75h-404zM248 -264h-53l41 204h71z" />
    <glyph glyph-name="Ldot" unicode="&#x13f;" horiz-adv-x="537" 
d="M72 0v730h78v-655h326v-75h-404zM399 290v139h77v-139h-77z" />
    <glyph glyph-name="Lslash" unicode="&#x141;" horiz-adv-x="561" 
d="M13 351v56l87 25v298h78v-275l93 27v-56l-93 -27v-324h326v-75h-404v376z" />
    <glyph glyph-name="Nacute" unicode="&#x143;" horiz-adv-x="739" 
d="M72 0v730h87l430 -606v606h78v-730h-83l-434 611v-611h-78zM335 788l117 162h100l-145 -162h-72z" />
    <glyph glyph-name="Ntilde" unicode="&#xd1;" horiz-adv-x="739" 
d="M72 0v730h87l430 -606v606h78v-730h-83l-434 611v-611h-78zM195 788c0 73 41 120 99 120c33 0 57 -13 81 -27c22 -14 42 -28 63 -28c24 0 39 17 39 52h62c0 -74 -35 -121 -100 -121c-38 0 -66 18 -91 33c-19 11 -33 22 -54 22c-23 0 -37 -16 -37 -51h-62z" />
    <glyph glyph-name="Ncaron" unicode="&#x147;" horiz-adv-x="739" 
d="M72 0v730h87l430 -606v606h78v-730h-83l-434 611v-611h-78zM337 788l-119 162h80l71 -100l72 100h80l-119 -162h-65z" />
    <glyph glyph-name="Ncommaaccent" unicode="&#x145;" horiz-adv-x="739" 
d="M72 0v730h87l430 -606v606h78v-730h-83l-434 611v-611h-78zM342 -264h-53l41 204h71z" />
    <glyph glyph-name="Oacute" unicode="&#xd3;" horiz-adv-x="850" 
d="M425 -10c-207 0 -375 168 -375 375s168 375 375 375s375 -168 375 -375s-168 -375 -375 -375zM425 64c168 0 295 136 295 301s-127 301 -295 301s-295 -136 -295 -301s127 -301 295 -301zM382 788l117 162h100l-145 -162h-72z" />
    <glyph glyph-name="Ograve" unicode="&#xd2;" horiz-adv-x="850" 
d="M425 -10c-207 0 -375 168 -375 375s168 375 375 375s375 -168 375 -375s-168 -375 -375 -375zM425 64c168 0 295 136 295 301s-127 301 -295 301s-295 -136 -295 -301s127 -301 295 -301zM386 788l-145 162h99l118 -162h-72z" />
    <glyph glyph-name="Ocircumflex" unicode="&#xd4;" horiz-adv-x="850" 
d="M425 -10c-207 0 -375 168 -375 375s168 375 375 375s375 -168 375 -375s-168 -375 -375 -375zM425 64c168 0 295 136 295 301s-127 301 -295 301s-295 -136 -295 -301s127 -301 295 -301zM269 788l119 162h66l119 -162h-80l-72 100l-71 -100h-81z" />
    <glyph glyph-name="Odieresis" unicode="&#xd6;" horiz-adv-x="850" 
d="M452 795v139h77v-139h-77zM318 795v139h77v-139h-77zM425 -10c-207 0 -375 168 -375 375s168 375 375 375s375 -168 375 -375s-168 -375 -375 -375zM425 64c168 0 295 136 295 301s-127 301 -295 301s-295 -136 -295 -301s127 -301 295 -301z" />
    <glyph glyph-name="Otilde" unicode="&#xd5;" horiz-adv-x="850" 
d="M425 -10c-207 0 -375 168 -375 375s168 375 375 375s375 -168 375 -375s-168 -375 -375 -375zM425 64c168 0 295 136 295 301s-127 301 -295 301s-295 -136 -295 -301s127 -301 295 -301zM246 788c0 73 41 120 99 120c33 0 57 -13 81 -27c22 -14 42 -28 63 -28
c24 0 39 17 39 52h62c0 -74 -35 -121 -100 -121c-38 0 -66 18 -91 33c-19 11 -33 22 -54 22c-23 0 -37 -16 -37 -51h-62z" />
    <glyph glyph-name="Obreve" unicode="&#x14e;" horiz-adv-x="850" 
d="M425 -10c-207 0 -375 168 -375 375s168 375 375 375s375 -168 375 -375s-168 -375 -375 -375zM425 64c168 0 295 136 295 301s-127 301 -295 301s-295 -136 -295 -301s127 -301 295 -301zM420 785c-110 0 -161 74 -161 163h66c0 -63 33 -104 95 -105c60 1 94 42 94 105
h68c0 -89 -62 -163 -162 -163z" />
    <glyph glyph-name="Omacron" unicode="&#x14c;" horiz-adv-x="850" 
d="M289 788v67h264v-67h-264zM425 -10c-207 0 -375 168 -375 375s168 375 375 375s375 -168 375 -375s-168 -375 -375 -375zM425 64c168 0 295 136 295 301s-127 301 -295 301s-295 -136 -295 -301s127 -301 295 -301z" />
    <glyph glyph-name="Ohungarumlaut" unicode="&#x150;" horiz-adv-x="850" 
d="M306 788l117 162h94l-145 -162h-66zM448 788l118 162h94l-145 -162h-67zM425 -10c-207 0 -375 168 -375 375s168 375 375 375s375 -168 375 -375s-168 -375 -375 -375zM425 64c168 0 295 136 295 301s-127 301 -295 301s-295 -136 -295 -301s127 -301 295 -301z" />
    <glyph glyph-name="Oslash" unicode="&#xd8;" horiz-adv-x="850" 
d="M101 0l69 90c-74 68 -120 166 -120 275c0 207 168 375 375 375c73 0 141 -21 199 -57l36 47h91l-70 -92c73 -68 119 -165 119 -273c0 -207 -168 -375 -375 -375c-73 0 -140 20 -198 56l-35 -46h-91zM130 365c0 -84 32 -160 86 -215l362 473c-44 27 -96 43 -153 43
c-168 0 -295 -136 -295 -301zM425 64c168 0 295 136 295 301c0 83 -32 158 -85 213l-362 -472c44 -27 96 -42 152 -42z" />
    <glyph glyph-name="Oslashacute" unicode="&#x1fe;" horiz-adv-x="850" 
d="M101 0l69 90c-74 68 -120 166 -120 275c0 207 168 375 375 375c73 0 141 -21 199 -57l36 47h91l-70 -92c73 -68 119 -165 119 -273c0 -207 -168 -375 -375 -375c-73 0 -140 20 -198 56l-35 -46h-91zM130 365c0 -84 32 -160 86 -215l362 473c-44 27 -96 43 -153 43
c-168 0 -295 -136 -295 -301zM425 64c168 0 295 136 295 301c0 83 -32 158 -85 213l-362 -472c44 -27 96 -42 152 -42zM379 788l117 162h100l-145 -162h-72z" />
    <glyph glyph-name="OE" unicode="&#x152;" horiz-adv-x="1224" 
d="M721 0v145c-64 -94 -170 -155 -297 -155c-207 0 -374 168 -374 375s167 375 374 375c127 0 233 -61 297 -155v145h443v-74h-365v-253h365v-74h-365v-254h365v-75h-443zM424 67c161 0 290 127 297 286v24c-7 160 -136 287 -297 287c-164 0 -296 -134 -296 -299
c0 -164 132 -298 296 -298z" />
    <glyph glyph-name="Thorn" unicode="&#xde;" horiz-adv-x="569" 
d="M72 0v730h78v-153h147c133 0 223 -83 223 -202s-90 -203 -223 -203h-147v-172h-78zM291 504h-141v-260h141c92 0 148 53 148 131c0 76 -56 129 -148 129z" />
    <glyph glyph-name="Racute" unicode="&#x154;" horiz-adv-x="594" 
d="M72 0v730h224c143 0 248 -103 248 -232c0 -103 -67 -197 -179 -222l185 -276h-91l-220 334h50c110 0 177 82 177 164c0 92 -67 160 -176 160h-140v-658h-78zM219 788l117 162h100l-145 -162h-72z" />
    <glyph glyph-name="Rcaron" unicode="&#x158;" horiz-adv-x="594" 
d="M72 0v730h224c143 0 248 -103 248 -232c0 -103 -67 -197 -179 -222l185 -276h-91l-220 334h50c110 0 177 82 177 164c0 92 -67 160 -176 160h-140v-658h-78zM244 788l-119 162h80l71 -100l72 100h80l-119 -162h-65z" />
    <glyph glyph-name="Rcommaaccent" unicode="&#x156;" horiz-adv-x="594" 
d="M72 0v730h224c143 0 248 -103 248 -232c0 -103 -67 -197 -179 -222l185 -276h-91l-220 334h50c110 0 177 82 177 164c0 92 -67 160 -176 160h-140v-658h-78zM281 -264h-53l41 204h71z" />
    <glyph glyph-name="Sacute" unicode="&#x15a;" horiz-adv-x="563" 
d="M242 788l117 162h100l-145 -162h-72zM281 -10c-118 0 -199 50 -258 134l66 50c49 -76 109 -113 192 -113c91 0 155 58 155 138c0 90 -87 118 -178 149c-100 34 -204 76 -204 203c0 106 96 189 224 189c103 0 173 -41 226 -110l-62 -46c-37 58 -91 87 -165 87
c-82 0 -144 -52 -144 -120c0 -84 84 -111 174 -142c101 -35 208 -77 208 -210c0 -108 -93 -209 -234 -209z" />
    <glyph glyph-name="Scircumflex" unicode="&#x15c;" horiz-adv-x="563" 
d="M281 -10c-118 0 -199 50 -258 134l66 50c49 -76 109 -113 192 -113c91 0 155 58 155 138c0 90 -87 118 -178 149c-100 34 -204 76 -204 203c0 106 96 189 224 189c103 0 173 -41 226 -110l-62 -46c-37 58 -91 87 -165 87c-82 0 -144 -52 -144 -120
c0 -84 84 -111 174 -142c101 -35 208 -77 208 -210c0 -108 -93 -209 -234 -209zM133 788l119 162h66l119 -162h-80l-72 100l-71 -100h-81z" />
    <glyph glyph-name="Scaron" unicode="&#x160;" horiz-adv-x="563" 
d="M281 -10c-118 0 -199 50 -258 134l66 50c49 -76 109 -113 192 -113c91 0 155 58 155 138c0 90 -87 118 -178 149c-100 34 -204 76 -204 203c0 106 96 189 224 189c103 0 173 -41 226 -110l-62 -46c-37 58 -91 87 -165 87c-82 0 -144 -52 -144 -120
c0 -84 84 -111 174 -142c101 -35 208 -77 208 -210c0 -108 -93 -209 -234 -209zM255 788l-119 162h80l71 -100l72 100h80l-119 -162h-65z" />
    <glyph glyph-name="Scedilla" unicode="&#x15e;" horiz-adv-x="563" 
d="M287 -234c-63 0 -110 22 -146 56l61 37c25 -20 46 -36 85 -36c38 0 68 18 68 41s-25 36 -71 36h-41v92c-98 9 -168 57 -220 132l66 50c49 -76 109 -113 192 -113c91 0 155 58 155 138c0 90 -87 118 -178 149c-100 34 -204 76 -204 203c0 106 96 189 224 189
c103 0 173 -41 226 -110l-62 -46c-37 58 -91 87 -165 87c-82 0 -144 -52 -144 -120c0 -84 84 -111 174 -142c101 -35 208 -77 208 -210c0 -101 -81 -196 -207 -208v-43c71 0 119 -34 119 -81c0 -59 -64 -101 -140 -101z" />
    <glyph glyph-name="Scommaaccent" unicode="&#x218;" horiz-adv-x="563" 
d="M268 -254h-53l41 204h71zM281 -10c-118 0 -199 50 -258 134l66 50c49 -76 109 -113 192 -113c91 0 155 58 155 138c0 90 -87 118 -178 149c-100 34 -204 76 -204 203c0 106 96 189 224 189c103 0 173 -41 226 -110l-62 -46c-37 58 -91 87 -165 87
c-82 0 -144 -52 -144 -120c0 -84 84 -111 174 -142c101 -35 208 -77 208 -210c0 -108 -93 -209 -234 -209z" />
    <glyph glyph-name="Tcaron" unicode="&#x164;" horiz-adv-x="609" 
d="M266 0v658h-220v72h517v-72h-219v-658h-78zM267 788l-119 162h80l71 -100l72 100h80l-119 -162h-65z" />
    <glyph glyph-name="Tcommaaccent" unicode="&#x162;" horiz-adv-x="609" 
d="M281 -264h-53l41 204h71zM266 0v658h-220v72h517v-72h-219v-658h-78z" />
    <glyph glyph-name="Uacute" unicode="&#xda;" horiz-adv-x="633" 
d="M267 788l117 162h100l-145 -162h-72zM316 -10c-143 0 -248 108 -248 248v492h78v-496c0 -93 73 -170 170 -170s171 77 171 170v496h78v-492c0 -140 -106 -248 -249 -248z" />
    <glyph glyph-name="Ugrave" unicode="&#xd9;" horiz-adv-x="633" 
d="M316 -10c-143 0 -248 108 -248 248v492h78v-496c0 -93 73 -170 170 -170s171 77 171 170v496h78v-492c0 -140 -106 -248 -249 -248zM283 788l-145 162h99l118 -162h-72z" />
    <glyph glyph-name="Ucircumflex" unicode="&#xdb;" horiz-adv-x="633" 
d="M316 -10c-143 0 -248 108 -248 248v492h78v-496c0 -93 73 -170 170 -170s171 77 171 170v496h78v-492c0 -140 -106 -248 -249 -248zM160 788l119 162h66l119 -162h-80l-72 100l-71 -100h-81z" />
    <glyph glyph-name="Udieresis" unicode="&#xdc;" horiz-adv-x="633" 
d="M345 795v139h77v-139h-77zM211 795v139h77v-139h-77zM316 -10c-143 0 -248 108 -248 248v492h78v-496c0 -93 73 -170 170 -170s171 77 171 170v496h78v-492c0 -140 -106 -248 -249 -248z" />
    <glyph glyph-name="Utilde" unicode="&#x168;" horiz-adv-x="633" 
d="M316 -10c-143 0 -248 108 -248 248v492h78v-496c0 -93 73 -170 170 -170s171 77 171 170v496h78v-492c0 -140 -106 -248 -249 -248zM145 788c0 73 41 120 99 120c33 0 57 -13 81 -27c22 -14 42 -28 63 -28c24 0 39 17 39 52h62c0 -74 -35 -121 -100 -121
c-38 0 -66 18 -91 33c-19 11 -33 22 -54 22c-23 0 -37 -16 -37 -51h-62z" />
    <glyph glyph-name="Uring" unicode="&#x16e;" horiz-adv-x="633" 
d="M311 784c-58 0 -106 48 -106 107c0 61 48 108 106 108c61 0 109 -47 109 -108c0 -59 -48 -107 -109 -107zM311 844c27 0 49 21 49 47s-22 49 -49 49c-25 0 -47 -23 -47 -49s22 -47 47 -47zM316 -10c-143 0 -248 108 -248 248v492h78v-496c0 -93 73 -170 170 -170
s171 77 171 170v496h78v-492c0 -140 -106 -248 -249 -248z" />
    <glyph glyph-name="Ubreve" unicode="&#x16c;" horiz-adv-x="633" 
d="M316 -10c-143 0 -248 108 -248 248v492h78v-496c0 -93 73 -170 170 -170s171 77 171 170v496h78v-492c0 -140 -106 -248 -249 -248zM312 784c-110 0 -161 74 -161 163h66c0 -63 33 -104 95 -105c60 1 94 42 94 105h68c0 -89 -62 -163 -162 -163z" />
    <glyph glyph-name="Umacron" unicode="&#x16a;" horiz-adv-x="633" 
d="M316 -10c-143 0 -248 108 -248 248v492h78v-496c0 -93 73 -170 170 -170s171 77 171 170v496h78v-492c0 -140 -106 -248 -249 -248zM182 788v67h264v-67h-264z" />
    <glyph glyph-name="Uhungarumlaut" unicode="&#x170;" horiz-adv-x="633" 
d="M316 -10c-143 0 -248 108 -248 248v492h78v-496c0 -93 73 -170 170 -170s171 77 171 170v496h78v-492c0 -140 -106 -248 -249 -248zM193 788l117 162h94l-145 -162h-66zM335 788l118 162h94l-145 -162h-67z" />
    <glyph glyph-name="Uogonek" unicode="&#x172;" horiz-adv-x="633" 
d="M319 -215c-80 0 -135 45 -135 101c0 38 19 73 74 111c-113 24 -190 121 -190 241v492h78v-496c0 -93 73 -170 170 -170s171 77 171 170v496h78v-492c0 -118 -75 -213 -183 -240c-97 -59 -120 -79 -120 -108c0 -27 25 -41 57 -41c33 0 53 16 74 34l61 -42
c-34 -30 -86 -56 -135 -56z" />
    <glyph glyph-name="Wacute" unicode="&#x1e82;" horiz-adv-x="1070" 
d="M250 0l-214 730h83l174 -609l202 609h75l200 -610l184 610h80l-225 -730h-79l-199 608l-201 -608h-80zM489 788l117 162h100l-145 -162h-72z" />
    <glyph glyph-name="Wgrave" unicode="&#x1e80;" horiz-adv-x="1070" 
d="M250 0l-214 730h83l174 -609l202 609h75l200 -610l184 610h80l-225 -730h-79l-199 608l-201 -608h-80zM493 788l-145 162h99l118 -162h-72z" />
    <glyph glyph-name="Wcircumflex" unicode="&#x174;" horiz-adv-x="1070" 
d="M250 0l-214 730h83l174 -609l202 609h75l200 -610l184 610h80l-225 -730h-79l-199 608l-201 -608h-80zM378 788l119 162h66l119 -162h-80l-72 100l-71 -100h-81z" />
    <glyph glyph-name="Wdieresis" unicode="&#x1e84;" horiz-adv-x="1070" 
d="M250 0l-214 730h83l174 -609l202 609h75l200 -610l184 610h80l-225 -730h-79l-199 608l-201 -608h-80zM428 795v139h77v-139h-77zM562 795v139h77v-139h-77z" />
    <glyph glyph-name="Yacute" unicode="&#xdd;" horiz-adv-x="619" 
d="M271 0v347l-242 383h87l194 -309l193 309h87l-241 -382v-348h-78zM264 788l117 162h100l-145 -162h-72z" />
    <glyph glyph-name="Ygrave" unicode="&#x1ef2;" horiz-adv-x="619" 
d="M271 0v347l-242 383h87l194 -309l193 309h87l-241 -382v-348h-78zM272 788l-145 162h99l118 -162h-72z" />
    <glyph glyph-name="Ycircumflex" unicode="&#x176;" horiz-adv-x="619" 
d="M271 0v347l-242 383h87l194 -309l193 309h87l-241 -382v-348h-78zM155 788l119 162h66l119 -162h-80l-72 100l-71 -100h-81z" />
    <glyph glyph-name="Ydieresis" unicode="&#x178;" horiz-adv-x="619" 
d="M271 0v347l-242 383h87l194 -309l193 309h87l-241 -382v-348h-78zM204 795v139h77v-139h-77zM338 795v139h77v-139h-77z" />
    <glyph glyph-name="Zacute" unicode="&#x179;" horiz-adv-x="603" 
d="M60 0v72l391 584h-379v74h471v-71l-391 -584h391v-75h-483zM254 788l117 162h100l-145 -162h-72z" />
    <glyph glyph-name="Zcaron" unicode="&#x17d;" horiz-adv-x="603" 
d="M60 0v72l391 584h-379v74h471v-71l-391 -584h391v-75h-483zM270 788l-119 162h80l71 -100l72 100h80l-119 -162h-65z" />
    <glyph glyph-name="Zdotaccent" unicode="&#x17b;" horiz-adv-x="603" 
d="M60 0v72l391 584h-379v74h471v-71l-391 -584h391v-75h-483zM268 795v139h77v-139h-77z" />
    <glyph glyph-name="B" unicode="B" horiz-adv-x="632" 
d="M72 0v730h266c134 0 224 -76 224 -193c0 -69 -32 -127 -92 -157c72 -29 112 -92 112 -175c0 -126 -93 -205 -229 -205h-281zM350 340h-200v-269h202c91 0 151 57 151 135c0 79 -53 134 -153 134zM337 659h-187v-247h196c89 0 137 54 137 125c0 72 -57 122 -146 122z" />
    <glyph glyph-name="a" unicode="a" horiz-adv-x="632" 
d="M304 -10c-147 0 -256 117 -256 260s107 260 256 260c64 0 141 -33 184 -92v82h77v-500h-77v82c-43 -60 -120 -92 -184 -92zM308 60c107 0 187 85 187 190c0 104 -80 190 -187 190c-102 0 -182 -85 -182 -190s80 -190 182 -190z" />
    <glyph glyph-name="b" unicode="b" horiz-adv-x="630" 
d="M326 -10c-65 0 -142 32 -184 92v-82h-74v730h75v-311c42 59 118 91 183 91c149 0 256 -117 256 -260s-109 -260 -256 -260zM322 60c102 0 182 85 182 190s-80 190 -182 190c-107 0 -187 -86 -187 -190c0 -105 80 -190 187 -190z" />
    <glyph glyph-name="c" unicode="c" horiz-adv-x="587" 
d="M311 -10c-153 0 -263 116 -263 260c0 150 115 260 262 260c109 0 197 -61 234 -149l-70 -30c-31 69 -87 109 -165 109c-105 0 -183 -85 -183 -190s79 -190 187 -190c83 0 137 50 165 116l71 -30c-40 -91 -119 -156 -238 -156z" />
    <glyph glyph-name="d" unicode="d" horiz-adv-x="630" 
d="M304 -10c-147 0 -256 117 -256 260s107 260 256 260c64 0 140 -32 183 -91v311h75v-730h-74v82c-43 -60 -120 -92 -184 -92zM308 60c107 0 187 85 187 190c0 104 -80 190 -187 190c-102 0 -182 -85 -182 -190s80 -190 182 -190z" />
    <glyph glyph-name="e" unicode="e" horiz-adv-x="612" 
d="M311 -10c-159 0 -263 109 -263 256c0 150 109 264 259 264c144 0 256 -99 256 -252v-33h-440c10 -99 88 -166 188 -166c81 0 138 42 169 103l67 -33c-46 -87 -124 -139 -236 -139zM307 441c-90 0 -160 -61 -180 -145h357c-14 90 -80 145 -177 145z" />
    <glyph glyph-name="f" unicode="f" horiz-adv-x="352" 
d="M32 430v70h86v39c0 149 43 191 190 191h7v-71c-106 0 -119 -19 -119 -121v-38h119v-70h-119v-430h-78v430h-86z" />
    <glyph glyph-name="g" unicode="g" horiz-adv-x="633" 
d="M304 -10c-147 0 -256 117 -256 260s107 260 256 260c64 0 141 -33 184 -92v82h77v-491c0 -152 -96 -253 -247 -253c-122 0 -199 54 -235 138l76 25c24 -57 74 -95 159 -95c109 0 171 76 171 183v76c-42 -60 -120 -93 -185 -93zM308 60c107 0 187 85 187 190
c0 104 -80 190 -187 190c-102 0 -182 -85 -182 -190s80 -190 182 -190z" />
    <glyph glyph-name="h" unicode="h" horiz-adv-x="597" 
d="M68 0v730h76v-303c35 50 95 83 170 83c134 0 217 -88 217 -232v-278h-78v278c0 97 -50 162 -150 162c-91 0 -158 -72 -158 -163v-277h-77z" />
    <glyph glyph-name="i" unicode="i" horiz-adv-x="212" 
d="M67 0v500h78v-500h-78zM67 587v143h78v-143h-78z" />
    <glyph glyph-name="j" unicode="j" horiz-adv-x="212" 
d="M-53 -229v74c100 0 120 16 120 118v537h78v-538c0 -146 -46 -191 -186 -191h-12zM67 587v143h78v-143h-78z" />
    <glyph glyph-name="k" unicode="k" horiz-adv-x="536" 
d="M419 0l-174 242l-101 -103v-139h-76v730h76v-502l266 272h98l-207 -212l208 -288h-90z" />
    <glyph glyph-name="l" unicode="l" horiz-adv-x="214" 
d="M68 0v730h78v-730h-78z" />
    <glyph glyph-name="m" unicode="m" horiz-adv-x="951" 
d="M67 0v500h76v-68c33 48 89 78 160 78c90 0 150 -42 178 -102c32 61 97 102 181 102c144 0 223 -88 223 -216v-294h-78v299c0 83 -56 142 -146 142c-82 0 -147 -56 -147 -150v-291h-77v308c0 80 -56 133 -140 133c-88 0 -153 -59 -153 -159v-282h-77z" />
    <glyph glyph-name="n" unicode="n" horiz-adv-x="595" 
d="M67 0v500h76v-74c35 51 95 84 170 84c134 0 217 -88 217 -232v-278h-78v278c0 97 -50 162 -150 162c-91 0 -158 -72 -158 -163v-277h-77z" />
    <glyph glyph-name="o" unicode="o" horiz-adv-x="615" 
d="M307 -10c-144 0 -259 113 -259 260s115 260 259 260s260 -113 260 -260s-116 -260 -260 -260zM307 60c102 0 182 85 182 190s-80 190 -182 190s-181 -85 -181 -190s79 -190 181 -190z" />
    <glyph glyph-name="p" unicode="p" horiz-adv-x="629" 
d="M325 -10c-70 0 -142 28 -183 86v-306h-75v730h74v-82c42 59 119 92 184 92c149 0 256 -117 256 -260s-109 -260 -256 -260zM321 60c102 0 182 85 182 190s-80 190 -182 190c-107 0 -187 -86 -187 -190c0 -105 80 -190 187 -190z" />
    <glyph glyph-name="q" unicode="q" horiz-adv-x="630" 
d="M304 -10c-147 0 -256 117 -256 260s107 260 256 260c64 0 141 -33 184 -92v82h74v-730h-75v306c-41 -58 -114 -86 -183 -86zM308 60c107 0 187 85 187 190c0 104 -80 190 -187 190c-102 0 -182 -85 -182 -190s80 -190 182 -190z" />
    <glyph glyph-name="r" unicode="r" horiz-adv-x="389" 
d="M67 0v500h77v-72c27 46 75 72 139 72h62v-72h-62c-101 0 -138 -53 -138 -169v-259h-78z" />
    <glyph glyph-name="s" unicode="s" horiz-adv-x="475" 
d="M235 -10c-87 0 -160 36 -209 96l61 50c37 -46 87 -78 151 -78c75 0 113 40 113 86c0 53 -66 63 -135 79c-80 19 -166 45 -166 143c0 74 70 145 182 145c74 0 147 -27 190 -77l-57 -48c-34 38 -77 59 -133 59c-69 0 -106 -36 -106 -78c0 -51 63 -63 131 -79
c81 -19 170 -44 170 -144c0 -64 -53 -154 -192 -154z" />
    <glyph glyph-name="t" unicode="t" horiz-adv-x="363" 
d="M34 430v70h86v118l78 43v-161h118v-70h-118v-238c0 -102 19 -119 118 -119v-73h-11c-146 0 -185 42 -185 191v239h-86z" />
    <glyph glyph-name="u" unicode="u" horiz-adv-x="595" 
d="M286 -10c-146 0 -221 88 -221 232v278h78v-278c0 -97 50 -162 150 -162c91 0 158 72 158 163v277h77v-500h-76v74c-35 -51 -94 -84 -166 -84z" />
    <glyph glyph-name="v" unicode="v" horiz-adv-x="525" 
d="M224 0l-194 500h84l150 -395l148 395h83l-194 -500h-77z" />
    <glyph glyph-name="w" unicode="w" horiz-adv-x="864" 
d="M201 0l-165 500h82l126 -390l148 390h75l152 -392l128 392h81l-169 -500h-75l-155 393l-151 -393h-77z" />
    <glyph glyph-name="x" unicode="x" horiz-adv-x="533" 
d="M21 0l197 254l-188 246h92l145 -190l145 190h93l-191 -245l199 -255h-95l-153 196l-149 -196h-95z" />
    <glyph glyph-name="y" unicode="y" horiz-adv-x="560" 
d="M133 -231l113 260l-216 471h85l172 -382l159 382h84l-315 -731h-82z" />
    <glyph glyph-name="z" unicode="z" horiz-adv-x="534" 
d="M50 0v74l336 354h-327v72h422v-74l-337 -355h340v-71h-434z" />
    <glyph glyph-name="numbersign.alt" unicode="&#xf463;" horiz-adv-x="833" 
d="M393 0l61 162l-202 77l-91 -239h-79l101 266l-132 50l1 79l160 -61l74 193l-234 89v79l260 -99l52 134h79l-61 -161l201 -76l91 237h79l-101 -263l130 -50v-79l-159 60l-74 -193l232 -88v-79l-259 98l-51 -136h-78zM355 501l-74 -193l200 -76l73 193z" />
    <glyph glyph-name="a.alt" unicode="&#xe4c0;" horiz-adv-x="547" 
d="M212 -10c-112 0 -167 59 -167 131c0 91 62 137 208 167c76 16 148 29 148 80c0 46 -30 79 -125 79c-94 0 -133 -37 -133 -99v-3h-77v2c0 105 76 163 208 163c149 0 207 -73 207 -167v-343h-74v74c-49 -52 -110 -84 -195 -84zM212 55c75 0 141 35 196 116v98
c-23 -20 -95 -37 -154 -49c-88 -19 -132 -40 -132 -93c0 -43 33 -72 90 -72z" />
    <glyph glyph-name="g.alt" unicode="&#xe4c6;" horiz-adv-x="581" 
d="M286 -261c-174 0 -234 57 -234 137c0 42 21 71 53 90c-39 17 -58 48 -58 90c0 55 36 89 89 102c-44 34 -71 88 -71 151c0 112 90 201 201 201c74 0 134 -37 167 -94c11 53 46 76 104 76h15v-85h-17c-42 0 -67 -10 -67 -98c0 -113 -85 -202 -197 -202h-68
c-60 0 -85 -22 -85 -47c0 -28 22 -44 81 -44h151c117 0 185 -45 185 -127c0 -88 -84 -150 -249 -150zM265 175c73 0 132 59 132 134c0 73 -59 132 -132 132c-70 0 -129 -59 -129 -132s59 -134 129 -134zM347 -51h-119c-64 1 -106 -26 -106 -69c0 -41 31 -73 148 -73h35
c113 0 159 38 159 79c0 43 -37 63 -117 63z" />
    <glyph glyph-name="aacute" unicode="&#xe1;" horiz-adv-x="632" 
d="M304 -10c-147 0 -256 117 -256 260s107 260 256 260c64 0 141 -33 184 -92v82h77v-500h-77v82c-43 -60 -120 -92 -184 -92zM308 60c107 0 187 85 187 190c0 104 -80 190 -187 190c-102 0 -182 -85 -182 -190s80 -190 182 -190zM259 558l117 162h100l-145 -162h-72z" />
    <glyph glyph-name="agrave" unicode="&#xe0;" horiz-adv-x="632" 
d="M304 -10c-147 0 -256 117 -256 260s107 260 256 260c64 0 141 -33 184 -92v82h77v-500h-77v82c-43 -60 -120 -92 -184 -92zM308 60c107 0 187 85 187 190c0 104 -80 190 -187 190c-102 0 -182 -85 -182 -190s80 -190 182 -190zM278 558l-145 162h99l118 -162h-72z" />
    <glyph glyph-name="acircumflex" unicode="&#xe2;" horiz-adv-x="632" 
d="M304 -10c-147 0 -256 117 -256 260s107 260 256 260c64 0 141 -33 184 -92v82h77v-500h-77v82c-43 -60 -120 -92 -184 -92zM308 60c107 0 187 85 187 190c0 104 -80 190 -187 190c-102 0 -182 -85 -182 -190s80 -190 182 -190zM174 558l119 162h66l119 -162h-80l-72 100
l-71 -100h-81z" />
    <glyph glyph-name="adieresis" unicode="&#xe4;" horiz-adv-x="632" 
d="M304 -10c-147 0 -256 117 -256 260s107 260 256 260c64 0 141 -33 184 -92v82h77v-500h-77v82c-43 -60 -120 -92 -184 -92zM308 60c107 0 187 85 187 190c0 104 -80 190 -187 190c-102 0 -182 -85 -182 -190s80 -190 182 -190zM353 565v139h77v-139h-77zM219 565v139h77
v-139h-77z" />
    <glyph glyph-name="atilde" unicode="&#xe3;" horiz-adv-x="632" 
d="M304 -10c-147 0 -256 117 -256 260s107 260 256 260c64 0 141 -33 184 -92v82h77v-500h-77v82c-43 -60 -120 -92 -184 -92zM308 60c107 0 187 85 187 190c0 104 -80 190 -187 190c-102 0 -182 -85 -182 -190s80 -190 182 -190zM154 558c0 73 41 120 99 120
c33 0 57 -13 81 -27c22 -14 42 -28 63 -28c24 0 39 17 39 52h62c0 -74 -35 -121 -100 -121c-38 0 -66 18 -91 33c-19 11 -33 22 -54 22c-23 0 -37 -16 -37 -51h-62z" />
    <glyph glyph-name="aring" unicode="&#xe5;" horiz-adv-x="632" 
d="M304 -10c-147 0 -256 117 -256 260s107 260 256 260c64 0 141 -33 184 -92v82h77v-500h-77v82c-43 -60 -120 -92 -184 -92zM308 60c107 0 187 85 187 190c0 104 -80 190 -187 190c-102 0 -182 -85 -182 -190s80 -190 182 -190zM312 551c-58 0 -106 48 -106 107
c0 61 48 108 106 108c61 0 109 -47 109 -108c0 -59 -48 -107 -109 -107zM312 611c27 0 49 21 49 47s-22 49 -49 49c-25 0 -47 -23 -47 -49s22 -47 47 -47z" />
    <glyph glyph-name="amacron" unicode="&#x101;" horiz-adv-x="632" 
d="M304 -10c-147 0 -256 117 -256 260s107 260 256 260c64 0 141 -33 184 -92v82h77v-500h-77v82c-43 -60 -120 -92 -184 -92zM308 60c107 0 187 85 187 190c0 104 -80 190 -187 190c-102 0 -182 -85 -182 -190s80 -190 182 -190zM200 558v67h264v-67h-264z" />
    <glyph glyph-name="abreve" unicode="&#x103;" horiz-adv-x="632" 
d="M304 -10c-147 0 -256 117 -256 260s107 260 256 260c64 0 141 -33 184 -92v82h77v-500h-77v82c-43 -60 -120 -92 -184 -92zM308 60c107 0 187 85 187 190c0 104 -80 190 -187 190c-102 0 -182 -85 -182 -190s80 -190 182 -190zM319 552c-110 0 -161 74 -161 163h66
c0 -63 33 -104 95 -105c60 1 94 42 94 105h68c0 -89 -62 -163 -162 -163z" />
    <glyph glyph-name="aogonek" unicode="&#x105;" horiz-adv-x="632" 
d="M304 -10c-147 0 -256 117 -256 260s107 260 256 260c64 0 141 -33 184 -92v82h77v-500c-54 -43 -79 -73 -79 -105c0 -27 20 -46 49 -46c28 0 46 11 64 26l44 -54c-30 -22 -71 -38 -108 -38c-86 0 -122 53 -122 109c0 46 31 89 75 125v65c-43 -60 -120 -92 -184 -92z
M308 60c107 0 187 85 187 190c0 104 -80 190 -187 190c-102 0 -182 -85 -182 -190s80 -190 182 -190z" />
    <glyph glyph-name="aringacute" unicode="&#x1fb;" horiz-adv-x="632" 
d="M304 -10c-147 0 -256 117 -256 260s107 260 256 260c64 0 141 -33 184 -92v82h77v-500h-77v82c-43 -60 -120 -92 -184 -92zM308 60c107 0 187 85 187 190c0 104 -80 190 -187 190c-102 0 -182 -85 -182 -190s80 -190 182 -190zM314 551c-58 0 -106 48 -106 107
c0 61 48 108 106 108c61 0 109 -47 109 -108c0 -59 -48 -107 -109 -107zM273 794l117 162h100l-145 -162h-72zM314 611c27 0 49 21 49 47s-22 49 -49 49c-25 0 -47 -23 -47 -49s22 -47 47 -47z" />
    <glyph glyph-name="ae" unicode="&#xe6;" horiz-adv-x="960" 
d="M659 -10c-102 0 -182 44 -226 115c-33 -59 -108 -115 -210 -115c-126 0 -178 59 -179 137c-1 96 79 133 178 155c88 20 176 31 176 86c0 46 -43 80 -127 80c-94 0 -146 -50 -146 -118v-3h-72v2c0 111 83 181 215 181c93 0 161 -33 189 -88c46 54 115 88 197 88
c144 0 256 -99 256 -252v-32h-440c9 -99 88 -167 189 -167c81 0 138 42 169 103l67 -33c-46 -87 -124 -139 -236 -139zM226 54c96 0 160 75 176 126c-5 21 -7 43 -7 66c0 10 1 20 2 30c-16 -24 -66 -35 -140 -51c-82 -16 -135 -36 -135 -96c0 -42 30 -75 104 -75zM654 441
c-90 0 -160 -61 -180 -145h357c-14 90 -80 145 -177 145z" />
    <glyph glyph-name="aeacute" unicode="&#x1fd;" horiz-adv-x="960" 
d="M659 -10c-102 0 -182 44 -226 115c-33 -59 -108 -115 -210 -115c-126 0 -178 59 -179 137c-1 96 79 133 178 155c88 20 176 31 176 86c0 46 -43 80 -127 80c-94 0 -146 -50 -146 -118v-3h-72v2c0 111 83 181 215 181c93 0 161 -33 189 -88c46 54 115 88 197 88
c144 0 256 -99 256 -252v-32h-440c9 -99 88 -167 189 -167c81 0 138 42 169 103l67 -33c-46 -87 -124 -139 -236 -139zM226 54c96 0 160 75 176 126c-5 21 -7 43 -7 66c0 10 1 20 2 30c-16 -24 -66 -35 -140 -51c-82 -16 -135 -36 -135 -96c0 -42 30 -75 104 -75zM654 441
c-90 0 -160 -61 -180 -145h357c-14 90 -80 145 -177 145zM426 558l117 162h100l-145 -162h-72z" />
    <glyph glyph-name="cacute" unicode="&#x107;" horiz-adv-x="587" 
d="M260 558l117 162h100l-145 -162h-72zM311 -10c-153 0 -263 116 -263 260c0 150 115 260 262 260c109 0 197 -61 234 -149l-70 -30c-31 69 -87 109 -165 109c-105 0 -183 -85 -183 -190s79 -190 187 -190c83 0 137 50 165 116l71 -30c-40 -91 -119 -156 -238 -156z" />
    <glyph glyph-name="ccircumflex" unicode="&#x109;" horiz-adv-x="587" 
d="M311 -10c-153 0 -263 116 -263 260c0 150 115 260 262 260c109 0 197 -61 234 -149l-70 -30c-31 69 -87 109 -165 109c-105 0 -183 -85 -183 -190s79 -190 187 -190c83 0 137 50 165 116l71 -30c-40 -91 -119 -156 -238 -156zM155 558l119 162h66l119 -162h-80l-72 100
l-71 -100h-81z" />
    <glyph glyph-name="ccaron" unicode="&#x10d;" horiz-adv-x="587" 
d="M311 -10c-153 0 -263 116 -263 260c0 150 115 260 262 260c109 0 197 -61 234 -149l-70 -30c-31 69 -87 109 -165 109c-105 0 -183 -85 -183 -190s79 -190 187 -190c83 0 137 50 165 116l71 -30c-40 -91 -119 -156 -238 -156zM272 558l-119 162h80l71 -100l72 100h80
l-119 -162h-65z" />
    <glyph glyph-name="ccedilla" unicode="&#xe7;" horiz-adv-x="587" 
d="M318 -234c-63 0 -110 22 -146 56l61 37c25 -20 46 -36 85 -36c38 0 68 18 68 41s-25 36 -71 36h-41v93c-134 16 -226 125 -226 257c0 150 115 260 262 260c109 0 197 -61 234 -149l-70 -30c-31 69 -87 109 -165 109c-105 0 -183 -85 -183 -190s79 -190 187 -190
c83 0 137 50 165 116l71 -30c-37 -84 -107 -146 -210 -155v-43c71 0 119 -34 119 -81c0 -59 -64 -101 -140 -101z" />
    <glyph glyph-name="cdotaccent" unicode="&#x10b;" horiz-adv-x="587" 
d="M311 -10c-153 0 -263 116 -263 260c0 150 115 260 262 260c109 0 197 -61 234 -149l-70 -30c-31 69 -87 109 -165 109c-105 0 -183 -85 -183 -190s79 -190 187 -190c83 0 137 50 165 116l71 -30c-40 -91 -119 -156 -238 -156zM270 565v139h77v-139h-77z" />
    <glyph glyph-name="dcroat" unicode="&#x111;" horiz-adv-x="650" 
d="M415 574v70h72v86h75v-86h56v-70h-56v-574h-74v82c-43 -60 -120 -92 -184 -92c-147 0 -256 117 -256 260s107 260 256 260c64 0 140 -32 183 -91v155h-72zM308 60c107 0 187 85 187 190c0 104 -80 190 -187 190c-102 0 -182 -85 -182 -190s80 -190 182 -190z" />
    <glyph glyph-name="eth" unicode="&#xf0;" horiz-adv-x="604" 
d="M154 525l115 96c-40 34 -88 70 -142 109h119c27 -22 53 -43 77 -65l77 65h85l-122 -102c130 -129 189 -257 189 -389c0 -136 -108 -244 -251 -244c-138 0 -249 104 -249 244s109 245 240 245c69 0 110 -20 141 -48c-27 48 -67 96 -122 148l-71 -59h-86zM303 66
c94 0 171 78 171 173c0 93 -75 173 -171 173c-94 0 -173 -78 -173 -173s79 -173 173 -173z" />
    <glyph glyph-name="eacute" unicode="&#xe9;" horiz-adv-x="612" 
d="M311 -10c-159 0 -263 109 -263 256c0 150 109 264 259 264c144 0 256 -99 256 -252v-33h-440c10 -99 88 -166 188 -166c81 0 138 42 169 103l67 -33c-46 -87 -124 -139 -236 -139zM307 441c-90 0 -160 -61 -180 -145h357c-14 90 -80 145 -177 145zM260 558l117 162h100
l-145 -162h-72z" />
    <glyph glyph-name="egrave" unicode="&#xe8;" horiz-adv-x="612" 
d="M311 -10c-159 0 -263 109 -263 256c0 150 109 264 259 264c144 0 256 -99 256 -252v-33h-440c10 -99 88 -166 188 -166c81 0 138 42 169 103l67 -33c-46 -87 -124 -139 -236 -139zM307 441c-90 0 -160 -61 -180 -145h357c-14 90 -80 145 -177 145zM279 558l-145 162h99
l118 -162h-72z" />
    <glyph glyph-name="ecircumflex" unicode="&#xea;" horiz-adv-x="612" 
d="M311 -10c-159 0 -263 109 -263 256c0 150 109 264 259 264c144 0 256 -99 256 -252v-33h-440c10 -99 88 -166 188 -166c81 0 138 42 169 103l67 -33c-46 -87 -124 -139 -236 -139zM307 441c-90 0 -160 -61 -180 -145h357c-14 90 -80 145 -177 145zM155 558l119 162h66
l119 -162h-80l-72 100l-71 -100h-81z" />
    <glyph glyph-name="edieresis" unicode="&#xeb;" horiz-adv-x="612" 
d="M311 -10c-159 0 -263 109 -263 256c0 150 109 264 259 264c144 0 256 -99 256 -252v-33h-440c10 -99 88 -166 188 -166c81 0 138 42 169 103l67 -33c-46 -87 -124 -139 -236 -139zM307 441c-90 0 -160 -61 -180 -145h357c-14 90 -80 145 -177 145zM206 565v139h77v-139
h-77zM340 565v139h77v-139h-77z" />
    <glyph glyph-name="ecaron" unicode="&#x11b;" horiz-adv-x="612" 
d="M311 -10c-159 0 -263 109 -263 256c0 150 109 264 259 264c144 0 256 -99 256 -252v-33h-440c10 -99 88 -166 188 -166c81 0 138 42 169 103l67 -33c-46 -87 -124 -139 -236 -139zM307 441c-90 0 -160 -61 -180 -145h357c-14 90 -80 145 -177 145zM279 558l-119 162h80
l71 -100l72 100h80l-119 -162h-65z" />
    <glyph glyph-name="emacron" unicode="&#x113;" horiz-adv-x="612" 
d="M311 -10c-159 0 -263 109 -263 256c0 150 109 264 259 264c144 0 256 -99 256 -252v-33h-440c10 -99 88 -166 188 -166c81 0 138 42 169 103l67 -33c-46 -87 -124 -139 -236 -139zM307 441c-90 0 -160 -61 -180 -145h357c-14 90 -80 145 -177 145zM179 558v67h264v-67
h-264z" />
    <glyph glyph-name="ebreve" unicode="&#x115;" horiz-adv-x="612" 
d="M311 -10c-159 0 -263 109 -263 256c0 150 109 264 259 264c144 0 256 -99 256 -252v-33h-440c10 -99 88 -166 188 -166c81 0 138 42 169 103l67 -33c-46 -87 -124 -139 -236 -139zM307 441c-90 0 -160 -61 -180 -145h357c-14 90 -80 145 -177 145zM310 552
c-110 0 -161 74 -161 163h66c0 -63 33 -104 95 -105c60 1 94 42 94 105h68c0 -89 -62 -163 -162 -163z" />
    <glyph glyph-name="eogonek" unicode="&#x119;" horiz-adv-x="612" 
d="M348 -207c-80 0 -135 45 -135 101c0 34 15 66 57 99c-136 16 -222 119 -222 253c0 150 109 264 259 264c144 0 256 -99 256 -252v-33h-440c10 -99 88 -166 188 -166c81 0 138 42 169 103l67 -33c-31 -58 -75 -100 -134 -122c-99 -59 -122 -80 -122 -109
c0 -27 25 -41 57 -41c33 0 53 16 74 34l61 -42c-34 -30 -86 -56 -135 -56zM307 441c-90 0 -160 -61 -180 -145h357c-14 90 -80 145 -177 145z" />
    <glyph glyph-name="edotaccent" unicode="&#x117;" horiz-adv-x="612" 
d="M311 -10c-159 0 -263 109 -263 256c0 150 109 264 259 264c144 0 256 -99 256 -252v-33h-440c10 -99 88 -166 188 -166c81 0 138 42 169 103l67 -33c-46 -87 -124 -139 -236 -139zM307 441c-90 0 -160 -61 -180 -145h357c-14 90 -80 145 -177 145zM275 565v139h77v-139
h-77z" />
    <glyph glyph-name="gcircumflex" unicode="&#x11d;" horiz-adv-x="633" 
d="M304 -10c-147 0 -256 117 -256 260s107 260 256 260c64 0 141 -33 184 -92v82h77v-491c0 -152 -96 -253 -247 -253c-122 0 -199 54 -235 138l76 25c24 -57 74 -95 159 -95c109 0 171 76 171 183v76c-42 -60 -120 -93 -185 -93zM308 60c107 0 187 85 187 190
c0 104 -80 190 -187 190c-102 0 -182 -85 -182 -190s80 -190 182 -190zM163 558l119 162h66l119 -162h-80l-72 100l-71 -100h-81z" />
    <glyph glyph-name="gbreve" unicode="&#x11f;" horiz-adv-x="633" 
d="M304 -10c-147 0 -256 117 -256 260s107 260 256 260c64 0 141 -33 184 -92v82h77v-491c0 -152 -96 -253 -247 -253c-122 0 -199 54 -235 138l76 25c24 -57 74 -95 159 -95c109 0 171 76 171 183v76c-42 -60 -120 -93 -185 -93zM308 60c107 0 187 85 187 190
c0 104 -80 190 -187 190c-102 0 -182 -85 -182 -190s80 -190 182 -190zM315 552c-110 0 -161 74 -161 163h66c0 -63 33 -104 95 -105c60 1 94 42 94 105h68c0 -89 -62 -163 -162 -163z" />
    <glyph glyph-name="gdotaccent" unicode="&#x121;" horiz-adv-x="633" 
d="M304 -10c-147 0 -256 117 -256 260s107 260 256 260c64 0 141 -33 184 -92v82h77v-491c0 -152 -96 -253 -247 -253c-122 0 -199 54 -235 138l76 25c24 -57 74 -95 159 -95c109 0 171 76 171 183v76c-42 -60 -120 -93 -185 -93zM308 60c107 0 187 85 187 190
c0 104 -80 190 -187 190c-102 0 -182 -85 -182 -190s80 -190 182 -190zM266 565v139h77v-139h-77z" />
    <glyph glyph-name="gcommaaccent" unicode="&#x123;" horiz-adv-x="633" 
d="M304 -10c-147 0 -256 117 -256 260s107 260 256 260c64 0 141 -33 184 -92v82h77v-491c0 -152 -96 -253 -247 -253c-122 0 -199 54 -235 138l76 25c24 -57 74 -95 159 -95c109 0 171 76 171 183v76c-42 -60 -120 -93 -185 -93zM308 60c107 0 187 85 187 190
c0 104 -80 190 -187 190c-102 0 -182 -85 -182 -190s80 -190 182 -190zM334 550h-53l41 204h71z" />
    <glyph glyph-name="hcircumflex" unicode="&#x125;" horiz-adv-x="597" 
d="M68 0v730h76v-303c35 50 95 83 170 83c134 0 217 -88 217 -232v-278h-78v278c0 97 -50 162 -150 162c-91 0 -158 -72 -158 -163v-277h-77zM-48 778l119 162h66l119 -162h-80l-72 100l-71 -100h-81z" />
    <glyph glyph-name="hbar" unicode="&#x127;" horiz-adv-x="617" 
d="M35 574v70h53v86h76v-86h74v-70h-74v-147c35 50 95 83 170 83c134 0 217 -88 217 -232v-278h-78v278c0 97 -50 162 -150 162c-91 0 -158 -72 -158 -163v-277h-77v574h-53z" />
    <glyph glyph-name="dotlessi" unicode="&#x131;" horiz-adv-x="212" 
d="M67 0v500h78v-500h-78z" />
    <glyph glyph-name="iacute" unicode="&#xed;" horiz-adv-x="212" 
d="M69 558l117 162h100l-145 -162h-72zM67 0v500h78v-500h-78z" />
    <glyph glyph-name="igrave" unicode="&#xec;" horiz-adv-x="212" 
d="M67 0v500h78v-500h-78zM75 558l-145 162h99l118 -162h-72z" />
    <glyph glyph-name="icircumflex" unicode="&#xee;" horiz-adv-x="212" 
d="M67 0v500h78v-500h-78zM-48 558l119 162h66l119 -162h-80l-72 100l-71 -100h-81z" />
    <glyph glyph-name="idieresis" unicode="&#xef;" horiz-adv-x="212" 
d="M173 565v139h78v-139h-78zM-39 565v139h78v-139h-78zM67 0v500h78v-500h-78z" />
    <glyph glyph-name="itilde" unicode="&#x129;" horiz-adv-x="212" 
d="M67 0v500h78v-500h-78zM-66 558c0 73 41 120 99 120c33 0 57 -13 81 -27c22 -14 42 -28 63 -28c24 0 39 17 39 52h62c0 -74 -35 -121 -100 -121c-38 0 -66 18 -91 33c-19 11 -33 22 -54 22c-23 0 -37 -16 -37 -51h-62z" />
    <glyph glyph-name="imacron" unicode="&#x12b;" horiz-adv-x="212" 
d="M67 0v500h78v-500h-78zM-27 558v67h264v-67h-264z" />
    <glyph glyph-name="ibreve" unicode="&#x12d;" horiz-adv-x="212" 
d="M67 0v500h78v-500h-78zM106 552c-110 0 -161 74 -161 163h66c0 -63 33 -104 95 -105c60 1 94 42 94 105h68c0 -89 -62 -163 -162 -163z" />
    <glyph glyph-name="iogonek" unicode="&#x12f;" horiz-adv-x="212" 
d="M115 -217c-86 0 -122 53 -122 109c0 45 30 88 74 124v484h78v-500c-54 -43 -79 -73 -79 -105c0 -27 20 -46 49 -46c28 0 46 11 64 26l44 -54c-30 -22 -71 -38 -108 -38zM67 587v143h78v-143h-78z" />
    <glyph glyph-name="dotlessj" unicode="&#x237;" horiz-adv-x="213" 
d="M-53 -229v74c100 0 120 16 120 118v537h79v-538c0 -149 -44 -191 -187 -191h-12z" />
    <glyph glyph-name="jcircumflex" unicode="&#x135;" horiz-adv-x="213" 
d="M-53 -229v74c100 0 120 16 120 118v537h79v-538c0 -149 -44 -191 -187 -191h-12zM-48 558l119 162h66l119 -162h-80l-72 100l-71 -100h-81z" />
    <glyph glyph-name="kcommaaccent" unicode="&#x137;" horiz-adv-x="536" 
d="M419 0l-174 242l-101 -103v-139h-76v730h76v-502l266 272h98l-207 -212l208 -288h-90zM252 -254h-53l41 204h71z" />
    <glyph glyph-name="lacute" unicode="&#x13a;" horiz-adv-x="214" 
d="M70 778l117 162h100l-145 -162h-72zM68 0v730h78v-730h-78z" />
    <glyph glyph-name="lcommaaccent" unicode="&#x13c;" horiz-adv-x="214" 
d="M89 -254h-53l41 204h71zM68 0v730h78v-730h-78z" />
    <glyph glyph-name="ldot" unicode="&#x140;" horiz-adv-x="360" 
d="M68 0v730h78v-730h-78zM244 202v139h77v-139h-77z" />
    <glyph glyph-name="lslash" unicode="&#x142;" horiz-adv-x="283" 
d="M12 312v57l90 26v335h79v-312l90 27v-58l-90 -26v-361h-79v338z" />
    <glyph glyph-name="nacute" unicode="&#x144;" horiz-adv-x="595" 
d="M67 0v500h76v-74c35 51 95 84 170 84c134 0 217 -88 217 -232v-278h-78v278c0 97 -50 162 -150 162c-91 0 -158 -72 -158 -163v-277h-77zM256 558l117 162h100l-145 -162h-72z" />
    <glyph glyph-name="ntilde" unicode="&#xf1;" horiz-adv-x="595" 
d="M67 0v500h76v-74c35 51 95 84 170 84c134 0 217 -88 217 -232v-278h-78v278c0 97 -50 162 -150 162c-91 0 -158 -72 -158 -163v-277h-77zM116 558c0 73 41 120 99 120c33 0 57 -13 81 -27c22 -14 42 -28 63 -28c24 0 39 17 39 52h62c0 -74 -35 -121 -100 -121
c-38 0 -66 18 -91 33c-19 11 -33 22 -54 22c-23 0 -37 -16 -37 -51h-62z" />
    <glyph glyph-name="ncaron" unicode="&#x148;" horiz-adv-x="595" 
d="M67 0v500h76v-74c35 51 95 84 170 84c134 0 217 -88 217 -232v-278h-78v278c0 97 -50 162 -150 162c-91 0 -158 -72 -158 -163v-277h-77zM261 558l-119 162h80l71 -100l72 100h80l-119 -162h-65z" />
    <glyph glyph-name="ncommaaccent" unicode="&#x146;" horiz-adv-x="595" 
d="M67 0v500h76v-74c35 51 95 84 170 84c134 0 217 -88 217 -232v-278h-78v278c0 97 -50 162 -150 162c-91 0 -158 -72 -158 -163v-277h-77zM286 -254h-53l41 204h71z" />
    <glyph glyph-name="oacute" unicode="&#xf3;" horiz-adv-x="615" 
d="M260 558l117 162h100l-145 -162h-72zM307 -10c-144 0 -259 113 -259 260s115 260 259 260s260 -113 260 -260s-116 -260 -260 -260zM307 60c102 0 182 85 182 190s-80 190 -182 190s-181 -85 -181 -190s79 -190 181 -190z" />
    <glyph glyph-name="ograve" unicode="&#xf2;" horiz-adv-x="615" 
d="M307 -10c-144 0 -259 113 -259 260s115 260 259 260s260 -113 260 -260s-116 -260 -260 -260zM307 60c102 0 182 85 182 190s-80 190 -182 190s-181 -85 -181 -190s79 -190 181 -190zM276 558l-145 162h99l118 -162h-72z" />
    <glyph glyph-name="ocircumflex" unicode="&#xf4;" horiz-adv-x="615" 
d="M307 -10c-144 0 -259 113 -259 260s115 260 259 260s260 -113 260 -260s-116 -260 -260 -260zM307 60c102 0 182 85 182 190s-80 190 -182 190s-181 -85 -181 -190s79 -190 181 -190zM155 558l119 162h66l119 -162h-80l-72 100l-71 -100h-81z" />
    <glyph glyph-name="odieresis" unicode="&#xf6;" horiz-adv-x="615" 
d="M340 565v139h77v-139h-77zM206 565v139h77v-139h-77zM307 -10c-144 0 -259 113 -259 260s115 260 259 260s260 -113 260 -260s-116 -260 -260 -260zM307 60c102 0 182 85 182 190s-80 190 -182 190s-181 -85 -181 -190s79 -190 181 -190z" />
    <glyph glyph-name="otilde" unicode="&#xf5;" horiz-adv-x="615" 
d="M307 -10c-144 0 -259 113 -259 260s115 260 259 260s260 -113 260 -260s-116 -260 -260 -260zM307 60c102 0 182 85 182 190s-80 190 -182 190s-181 -85 -181 -190s79 -190 181 -190zM138 558c0 73 41 120 99 120c33 0 57 -13 81 -27c22 -14 42 -28 63 -28
c24 0 39 17 39 52h62c0 -74 -35 -121 -100 -121c-38 0 -66 18 -91 33c-19 11 -33 22 -54 22c-23 0 -37 -16 -37 -51h-62z" />
    <glyph glyph-name="obreve" unicode="&#x14f;" horiz-adv-x="615" 
d="M307 -10c-144 0 -259 113 -259 260s115 260 259 260s260 -113 260 -260s-116 -260 -260 -260zM307 60c102 0 182 85 182 190s-80 190 -182 190s-181 -85 -181 -190s79 -190 181 -190zM308 552c-110 0 -161 74 -161 163h66c0 -63 33 -104 95 -105c60 1 94 42 94 105h68
c0 -89 -62 -163 -162 -163z" />
    <glyph glyph-name="omacron" unicode="&#x14d;" horiz-adv-x="615" 
d="M177 558v67h264v-67h-264zM307 -10c-144 0 -259 113 -259 260s115 260 259 260s260 -113 260 -260s-116 -260 -260 -260zM307 60c102 0 182 85 182 190s-80 190 -182 190s-181 -85 -181 -190s79 -190 181 -190z" />
    <glyph glyph-name="ohungarumlaut" unicode="&#x151;" horiz-adv-x="615" 
d="M201 558l117 162h94l-145 -162h-66zM343 558l118 162h94l-145 -162h-67zM307 -10c-144 0 -259 113 -259 260s115 260 259 260s260 -113 260 -260s-116 -260 -260 -260zM307 60c102 0 182 85 182 190s-80 190 -182 190s-181 -85 -181 -190s79 -190 181 -190z" />
    <glyph glyph-name="oslash" unicode="&#xf8;" horiz-adv-x="615" 
d="M307 -10c-49 0 -94 12 -132 35l-19 -25h-82l49 65c-47 46 -75 111 -75 185c0 147 115 260 259 260c48 0 92 -13 131 -35l19 25h83l-50 -65c48 -46 77 -111 77 -185c0 -147 -116 -260 -260 -260zM307 60c102 0 182 85 182 190c0 48 -17 91 -45 125l-225 -292
c26 -15 56 -23 88 -23zM126 250c0 -48 16 -91 44 -125l224 292c-26 15 -56 23 -87 23c-102 0 -181 -85 -181 -190z" />
    <glyph glyph-name="oslashacute" unicode="&#x1ff;" horiz-adv-x="615" 
d="M307 -10c-49 0 -94 12 -132 35l-19 -25h-82l49 65c-47 46 -75 111 -75 185c0 147 115 260 259 260c48 0 92 -13 131 -35l19 25h83l-50 -65c48 -46 77 -111 77 -185c0 -147 -116 -260 -260 -260zM307 60c102 0 182 85 182 190c0 48 -17 91 -45 125l-225 -292
c26 -15 56 -23 88 -23zM126 250c0 -48 16 -91 44 -125l224 292c-26 15 -56 23 -87 23c-102 0 -181 -85 -181 -190zM260 558l117 162h100l-145 -162h-72z" />
    <glyph glyph-name="oe" unicode="&#x153;" horiz-adv-x="1057" 
d="M307 -10c-144 0 -259 113 -259 260s115 260 259 260c94 0 176 -48 222 -122c44 74 124 122 222 122c144 0 256 -99 256 -252v-32h-440c9 -99 88 -167 189 -167c81 0 138 42 169 103l67 -33c-46 -87 -124 -139 -236 -139c-104 0 -186 46 -229 120
c-46 -73 -128 -120 -220 -120zM307 60c102 0 182 85 182 190s-80 190 -182 190s-181 -85 -181 -190s79 -190 181 -190zM751 441c-90 0 -160 -61 -180 -145h357c-14 90 -80 145 -177 145z" />
    <glyph glyph-name="thorn" unicode="&#xfe;" horiz-adv-x="631" 
d="M326 -10c-78 0 -143 36 -184 85v-305h-74v960h74v-309c43 51 111 89 186 89c149 0 255 -114 255 -258s-108 -262 -257 -262zM323 60c108 0 183 90 183 192s-73 188 -181 188c-105 0 -187 -85 -187 -190c0 -102 83 -190 185 -190z" />
    <glyph glyph-name="racute" unicode="&#x155;" horiz-adv-x="389" 
d="M67 0v500h77v-72c27 46 75 72 139 72h62v-72h-62c-101 0 -138 -53 -138 -169v-259h-78zM174 558l117 162h100l-145 -162h-72z" />
    <glyph glyph-name="rcaron" unicode="&#x159;" horiz-adv-x="389" 
d="M67 0v500h77v-72c27 46 75 72 139 72h62v-72h-62c-101 0 -138 -53 -138 -169v-259h-78zM172 558l-119 162h80l71 -100l72 100h80l-119 -162h-65z" />
    <glyph glyph-name="rcommaaccent" unicode="&#x157;" horiz-adv-x="389" 
d="M67 0v500h77v-72c27 46 75 72 139 72h62v-72h-62c-101 0 -138 -53 -138 -169v-259h-78zM87 -254h-53l41 204h71z" />
    <glyph glyph-name="sacute" unicode="&#x15b;" horiz-adv-x="475" 
d="M189 558l117 162h100l-145 -162h-72zM235 -10c-87 0 -160 36 -209 96l61 50c37 -46 87 -78 151 -78c75 0 113 40 113 86c0 53 -66 63 -135 79c-80 19 -166 45 -166 143c0 74 70 145 182 145c74 0 147 -27 190 -77l-57 -48c-34 38 -77 59 -133 59c-69 0 -106 -36 -106 -78
c0 -51 63 -63 131 -79c81 -19 170 -44 170 -144c0 -64 -53 -154 -192 -154z" />
    <glyph glyph-name="scircumflex" unicode="&#x15d;" horiz-adv-x="475" 
d="M235 -10c-87 0 -160 36 -209 96l61 50c37 -46 87 -78 151 -78c75 0 113 40 113 86c0 53 -66 63 -135 79c-80 19 -166 45 -166 143c0 74 70 145 182 145c74 0 147 -27 190 -77l-57 -48c-34 38 -77 59 -133 59c-69 0 -106 -36 -106 -78c0 -51 63 -63 131 -79
c81 -19 170 -44 170 -144c0 -64 -53 -154 -192 -154zM81 558l119 162h66l119 -162h-80l-72 100l-71 -100h-81z" />
    <glyph glyph-name="scaron" unicode="&#x161;" horiz-adv-x="475" 
d="M235 -10c-87 0 -160 36 -209 96l61 50c37 -46 87 -78 151 -78c75 0 113 40 113 86c0 53 -66 63 -135 79c-80 19 -166 45 -166 143c0 74 70 145 182 145c74 0 147 -27 190 -77l-57 -48c-34 38 -77 59 -133 59c-69 0 -106 -36 -106 -78c0 -51 63 -63 131 -79
c81 -19 170 -44 170 -144c0 -64 -53 -154 -192 -154zM198 558l-119 162h80l71 -100l72 100h80l-119 -162h-65z" />
    <glyph glyph-name="scedilla" unicode="&#x15f;" horiz-adv-x="475" 
d="M240 -234c-63 0 -110 22 -146 56l61 37c25 -20 46 -36 85 -36c38 0 68 18 68 41s-25 36 -71 36h-41v93c-70 8 -129 42 -170 93l61 50c37 -46 87 -78 151 -78c75 0 113 40 113 86c0 53 -66 63 -135 79c-80 19 -166 45 -166 143c0 74 70 145 182 145c74 0 147 -27 190 -77
l-57 -48c-34 38 -77 59 -133 59c-69 0 -106 -36 -106 -78c0 -51 63 -63 131 -79c81 -19 170 -44 170 -144c0 -60 -47 -143 -166 -153v-43c71 0 119 -34 119 -81c0 -59 -64 -101 -140 -101z" />
    <glyph glyph-name="scommaaccent" unicode="&#x219;" horiz-adv-x="475" 
d="M214 -259h-53l41 204h71zM235 -10c-87 0 -160 36 -209 96l61 50c37 -46 87 -78 151 -78c75 0 113 40 113 86c0 53 -66 63 -135 79c-80 19 -166 45 -166 143c0 74 70 145 182 145c74 0 147 -27 190 -77l-57 -48c-34 38 -77 59 -133 59c-69 0 -106 -36 -106 -78
c0 -51 63 -63 131 -79c81 -19 170 -44 170 -144c0 -64 -53 -154 -192 -154z" />
    <glyph glyph-name="germandbls" unicode="&#xdf;" horiz-adv-x="552" 
d="M-47 -229v73c91 0 114 34 114 121v566c-2 119 77 203 203 203c118 0 201 -83 201 -193c0 -67 -33 -124 -91 -155c74 -31 125 -95 125 -182c0 -122 -81 -212 -212 -212c-41 0 -74 7 -98 20v74c26 -15 56 -23 98 -23c73 0 133 62 133 140c0 77 -62 140 -158 140h-19v72h19
c69 0 126 53 126 127c0 68 -51 126 -125 126c-72 0 -128 -48 -128 -129v-573c0 -139 -45 -195 -175 -195h-13z" />
    <glyph glyph-name="tcommaaccent" unicode="&#x163;" horiz-adv-x="363" 
d="M34 430v70h86v118l78 43v-161h118v-70h-118v-238c0 -102 19 -119 118 -119v-73h-11c-146 0 -185 42 -185 191v239h-86zM183 -254h-53l41 204h71z" />
    <glyph glyph-name="uacute" unicode="&#xfa;" horiz-adv-x="595" 
d="M286 -10c-146 0 -221 88 -221 232v278h78v-278c0 -97 50 -162 150 -162c91 0 158 72 158 163v277h77v-500h-76v74c-35 -51 -94 -84 -166 -84zM247 558l117 162h100l-145 -162h-72z" />
    <glyph glyph-name="ugrave" unicode="&#xf9;" horiz-adv-x="595" 
d="M286 -10c-146 0 -221 88 -221 232v278h78v-278c0 -97 50 -162 150 -162c91 0 158 72 158 163v277h77v-500h-76v74c-35 -51 -94 -84 -166 -84zM266 558l-145 162h99l118 -162h-72z" />
    <glyph glyph-name="ucircumflex" unicode="&#xfb;" horiz-adv-x="595" 
d="M286 -10c-146 0 -221 88 -221 232v278h78v-278c0 -97 50 -162 150 -162c91 0 158 72 158 163v277h77v-500h-76v74c-35 -51 -94 -84 -166 -84zM140 558l119 162h66l119 -162h-80l-72 100l-71 -100h-81z" />
    <glyph glyph-name="udieresis" unicode="&#xfc;" horiz-adv-x="595" 
d="M286 -10c-146 0 -221 88 -221 232v278h78v-278c0 -97 50 -162 150 -162c91 0 158 72 158 163v277h77v-500h-76v74c-35 -51 -94 -84 -166 -84zM191 565v139h77v-139h-77zM325 565v139h77v-139h-77z" />
    <glyph glyph-name="utilde" unicode="&#x169;" horiz-adv-x="595" 
d="M286 -10c-146 0 -221 88 -221 232v278h78v-278c0 -97 50 -162 150 -162c91 0 158 72 158 163v277h77v-500h-76v74c-35 -51 -94 -84 -166 -84zM121 558c0 73 41 120 99 120c33 0 57 -13 81 -27c22 -14 42 -28 63 -28c24 0 39 17 39 52h62c0 -74 -35 -121 -100 -121
c-38 0 -66 18 -91 33c-19 11 -33 22 -54 22c-23 0 -37 -16 -37 -51h-62z" />
    <glyph glyph-name="uring" unicode="&#x16f;" horiz-adv-x="595" 
d="M286 -10c-146 0 -221 88 -221 232v278h78v-278c0 -97 50 -162 150 -162c91 0 158 72 158 163v277h77v-500h-76v74c-35 -51 -94 -84 -166 -84zM293 554c-58 0 -106 48 -106 107c0 61 48 108 106 108c61 0 109 -47 109 -108c0 -59 -48 -107 -109 -107zM293 614
c27 0 49 21 49 47s-22 49 -49 49c-25 0 -47 -23 -47 -49s22 -47 47 -47z" />
    <glyph glyph-name="ubreve" unicode="&#x16d;" horiz-adv-x="595" 
d="M286 -10c-146 0 -221 88 -221 232v278h78v-278c0 -97 50 -162 150 -162c91 0 158 72 158 163v277h77v-500h-76v74c-35 -51 -94 -84 -166 -84zM292 552c-110 0 -161 74 -161 163h66c0 -63 33 -104 95 -105c60 1 94 42 94 105h68c0 -89 -62 -163 -162 -163z" />
    <glyph glyph-name="umacron" unicode="&#x16b;" horiz-adv-x="595" 
d="M286 -10c-146 0 -221 88 -221 232v278h78v-278c0 -97 50 -162 150 -162c91 0 158 72 158 163v277h77v-500h-76v74c-35 -51 -94 -84 -166 -84zM162 558v67h264v-67h-264z" />
    <glyph glyph-name="uhungarumlaut" unicode="&#x171;" horiz-adv-x="595" 
d="M286 -10c-146 0 -221 88 -221 232v278h78v-278c0 -97 50 -162 150 -162c91 0 158 72 158 163v277h77v-500h-76v74c-35 -51 -94 -84 -166 -84zM324 558l118 162h94l-145 -162h-67zM182 558l117 162h94l-145 -162h-66z" />
    <glyph glyph-name="uogonek" unicode="&#x173;" horiz-adv-x="595" 
d="M286 -10c-146 0 -221 88 -221 232v278h78v-278c0 -97 50 -162 150 -162c91 0 158 72 158 163v277h77v-500c-54 -43 -79 -73 -79 -105c0 -27 20 -46 49 -46c28 0 46 11 64 26l44 -54c-30 -22 -71 -38 -108 -38c-86 0 -122 53 -122 109c0 46 31 89 76 125v57
c-35 -51 -94 -84 -166 -84z" />
    <glyph glyph-name="wacute" unicode="&#x1e83;" horiz-adv-x="864" 
d="M201 0l-165 500h82l126 -390l148 390h75l152 -392l128 392h81l-169 -500h-75l-155 393l-151 -393h-77zM394 558l117 162h100l-145 -162h-72z" />
    <glyph glyph-name="wgrave" unicode="&#x1e81;" horiz-adv-x="864" 
d="M201 0l-165 500h82l126 -390l148 390h75l152 -392l128 392h81l-169 -500h-75l-155 393l-151 -393h-77zM395 558l-145 162h99l118 -162h-72z" />
    <glyph glyph-name="wcircumflex" unicode="&#x175;" horiz-adv-x="864" 
d="M201 0l-165 500h82l126 -390l148 390h75l152 -392l128 392h81l-169 -500h-75l-155 393l-151 -393h-77zM280 558l119 162h66l119 -162h-80l-72 100l-71 -100h-81z" />
    <glyph glyph-name="wdieresis" unicode="&#x1e85;" horiz-adv-x="864" 
d="M201 0l-165 500h82l126 -390l148 390h75l152 -392l128 392h81l-169 -500h-75l-155 393l-151 -393h-77zM330 565v139h77v-139h-77zM464 565v139h77v-139h-77z" />
    <glyph glyph-name="yacute" unicode="&#xfd;" horiz-adv-x="560" 
d="M133 -231l113 260l-216 471h85l172 -382l159 382h84l-315 -731h-82zM234 558l117 162h100l-145 -162h-72z" />
    <glyph glyph-name="ygrave" unicode="&#x1ef3;" horiz-adv-x="560" 
d="M133 -231l113 260l-216 471h85l172 -382l159 382h84l-315 -731h-82zM245 558l-145 162h99l118 -162h-72z" />
    <glyph glyph-name="ycircumflex" unicode="&#x177;" horiz-adv-x="560" 
d="M133 -231l113 260l-216 471h85l172 -382l159 382h84l-315 -731h-82zM125 558l119 162h66l119 -162h-80l-72 100l-71 -100h-81z" />
    <glyph glyph-name="ydieresis" unicode="&#xff;" horiz-adv-x="560" 
d="M133 -231l113 260l-216 471h85l172 -382l159 382h84l-315 -731h-82zM177 565v139h77v-139h-77zM311 565v139h77v-139h-77z" />
    <glyph glyph-name="zacute" unicode="&#x17a;" horiz-adv-x="534" 
d="M50 0v74l336 354h-327v72h422v-74l-337 -355h340v-71h-434zM227 558l117 162h100l-145 -162h-72z" />
    <glyph glyph-name="zcaron" unicode="&#x17e;" horiz-adv-x="534" 
d="M50 0v74l336 354h-327v72h422v-74l-337 -355h340v-71h-434zM241 558l-119 162h80l71 -100l72 100h80l-119 -162h-65z" />
    <glyph glyph-name="zdotaccent" unicode="&#x17c;" horiz-adv-x="534" 
d="M50 0v74l336 354h-327v72h422v-74l-337 -355h340v-71h-434zM236 565v139h77v-139h-77z" />
    <glyph glyph-name="aacute.alt" unicode="&#xe891;" horiz-adv-x="547" 
d="M212 -10c-112 0 -167 59 -167 131c0 91 62 137 208 167c76 16 148 29 148 80c0 46 -30 79 -125 79c-94 0 -133 -37 -133 -99v-3h-77v2c0 105 76 163 208 163c149 0 207 -73 207 -167v-343h-74v74c-49 -52 -110 -84 -195 -84zM212 55c75 0 141 35 196 116v98
c-23 -20 -95 -37 -154 -49c-88 -19 -132 -40 -132 -93c0 -43 33 -72 90 -72zM231 558l117 162h100l-145 -162h-72z" />
    <glyph glyph-name="agrave.alt" unicode="&#xe892;" horiz-adv-x="547" 
d="M212 -10c-112 0 -167 59 -167 131c0 91 62 137 208 167c76 16 148 29 148 80c0 46 -30 79 -125 79c-94 0 -133 -37 -133 -99v-3h-77v2c0 105 76 163 208 163c149 0 207 -73 207 -167v-343h-74v74c-49 -52 -110 -84 -195 -84zM212 55c75 0 141 35 196 116v98
c-23 -20 -95 -37 -154 -49c-88 -19 -132 -40 -132 -93c0 -43 33 -72 90 -72zM238 558l-145 162h99l118 -162h-72z" />
    <glyph glyph-name="acircumflex.alt" unicode="&#xe893;" horiz-adv-x="547" 
d="M212 -10c-112 0 -167 59 -167 131c0 91 62 137 208 167c76 16 148 29 148 80c0 46 -30 79 -125 79c-94 0 -133 -37 -133 -99v-3h-77v2c0 105 76 163 208 163c149 0 207 -73 207 -167v-343h-74v74c-49 -52 -110 -84 -195 -84zM212 55c75 0 141 35 196 116v98
c-23 -20 -95 -37 -154 -49c-88 -19 -132 -40 -132 -93c0 -43 33 -72 90 -72zM118 558l119 162h66l119 -162h-80l-72 100l-71 -100h-81z" />
    <glyph glyph-name="adieresis.alt" unicode="&#xe894;" horiz-adv-x="547" 
d="M212 -10c-112 0 -167 59 -167 131c0 91 62 137 208 167c76 16 148 29 148 80c0 46 -30 79 -125 79c-94 0 -133 -37 -133 -99v-3h-77v2c0 105 76 163 208 163c149 0 207 -73 207 -167v-343h-74v74c-49 -52 -110 -84 -195 -84zM212 55c75 0 141 35 196 116v98
c-23 -20 -95 -37 -154 -49c-88 -19 -132 -40 -132 -93c0 -43 33 -72 90 -72zM164 565v139h77v-139h-77zM298 565v139h77v-139h-77z" />
    <glyph glyph-name="atilde.alt" unicode="&#xe898;" horiz-adv-x="546" 
d="M211 -10c-112 0 -167 59 -167 131c0 91 62 137 208 167c76 16 148 29 148 80c0 46 -30 79 -125 79c-94 0 -133 -37 -133 -99v-3h-77v2c0 105 76 163 208 163c149 0 207 -73 207 -167v-343h-74v74c-49 -52 -110 -84 -195 -84zM211 55c75 0 141 35 196 116v98
c-23 -20 -95 -37 -154 -49c-88 -19 -132 -40 -132 -93c0 -43 33 -72 90 -72zM107 558c0 73 41 120 99 120c33 0 57 -13 81 -27c22 -14 42 -28 63 -28c24 0 39 17 39 52h62c0 -74 -35 -121 -100 -121c-38 0 -66 18 -91 33c-19 11 -33 22 -54 22c-23 0 -37 -16 -37 -51h-62z
" />
    <glyph glyph-name="aring.alt" unicode="&#xe897;" horiz-adv-x="546" 
d="M211 -10c-112 0 -167 59 -167 131c0 91 62 137 208 167c76 16 148 29 148 80c0 46 -30 79 -125 79c-94 0 -133 -37 -133 -99v-3h-77v2c0 105 76 163 208 163c149 0 207 -73 207 -167v-343h-74v74c-49 -52 -110 -84 -195 -84zM211 55c75 0 141 35 196 116v98
c-23 -20 -95 -37 -154 -49c-88 -19 -132 -40 -132 -93c0 -43 33 -72 90 -72zM267 551c-58 0 -106 48 -106 107c0 61 48 108 106 108c61 0 109 -47 109 -108c0 -59 -48 -107 -109 -107zM267 611c27 0 49 21 49 47s-22 49 -49 49c-25 0 -47 -23 -47 -49s22 -47 47 -47z" />
    <glyph glyph-name="amacron.alt" unicode="&#xe895;" horiz-adv-x="547" 
d="M212 -10c-112 0 -167 59 -167 131c0 91 62 137 208 167c76 16 148 29 148 80c0 46 -30 79 -125 79c-94 0 -133 -37 -133 -99v-3h-77v2c0 105 76 163 208 163c149 0 207 -73 207 -167v-343h-74v74c-49 -52 -110 -84 -195 -84zM212 55c75 0 141 35 196 116v98
c-23 -20 -95 -37 -154 -49c-88 -19 -132 -40 -132 -93c0 -43 33 -72 90 -72zM145 558v67h264v-67h-264z" />
    <glyph glyph-name="abreve.alt" unicode="&#xe896;" horiz-adv-x="547" 
d="M212 -10c-112 0 -167 59 -167 131c0 91 62 137 208 167c76 16 148 29 148 80c0 46 -30 79 -125 79c-94 0 -133 -37 -133 -99v-3h-77v2c0 105 76 163 208 163c149 0 207 -73 207 -167v-343h-74v74c-49 -52 -110 -84 -195 -84zM212 55c75 0 141 35 196 116v98
c-23 -20 -95 -37 -154 -49c-88 -19 -132 -40 -132 -93c0 -43 33 -72 90 -72zM272 552c-110 0 -161 74 -161 163h66c0 -63 33 -104 95 -105c60 1 94 42 94 105h68c0 -89 -62 -163 -162 -163z" />
    <glyph glyph-name="aogonek.alt" unicode="&#xe899;" horiz-adv-x="547" 
d="M451 -217c-86 0 -122 53 -122 109c0 47 32 91 78 127v55c-49 -52 -110 -84 -195 -84c-112 0 -167 59 -167 131c0 91 62 137 208 167c76 16 148 29 148 80c0 46 -30 79 -125 79c-94 0 -133 -37 -133 -99v-3h-77v2c0 105 76 163 208 163c149 0 207 -73 207 -167v-343
c-54 -43 -79 -73 -79 -105c0 -27 20 -46 49 -46c28 0 46 11 64 26l44 -54c-30 -22 -71 -38 -108 -38zM212 55c75 0 141 35 196 116v98c-23 -20 -95 -37 -154 -49c-88 -19 -132 -40 -132 -93c0 -43 33 -72 90 -72z" />
    <glyph glyph-name="aringacute.alt" unicode="&#xf458;" horiz-adv-x="547" 
d="M212 -10c-112 0 -167 59 -167 131c0 91 62 137 208 167c76 16 148 29 148 80c0 46 -30 79 -125 79c-94 0 -133 -37 -133 -99v-3h-77v2c0 105 76 163 208 163c149 0 207 -73 207 -167v-343h-74v74c-49 -52 -110 -84 -195 -84zM212 55c75 0 141 35 196 116v98
c-23 -20 -95 -37 -154 -49c-88 -19 -132 -40 -132 -93c0 -43 33 -72 90 -72zM272 554c-58 0 -106 48 -106 107c0 61 48 108 106 108c61 0 109 -47 109 -108c0 -59 -48 -107 -109 -107zM234 798l117 162h100l-145 -162h-72zM272 614c27 0 49 21 49 47s-22 49 -49 49
c-25 0 -47 -23 -47 -49s22 -47 47 -47z" />
    <glyph glyph-name="gcircumflex.alt" unicode="&#xe90e;" horiz-adv-x="581" 
d="M286 -261c-174 0 -234 57 -234 137c0 42 21 71 53 90c-39 17 -58 48 -58 90c0 55 36 89 89 102c-44 34 -71 88 -71 151c0 112 90 201 201 201c74 0 134 -37 167 -94c11 53 46 76 104 76h15v-85h-17c-42 0 -67 -10 -67 -98c0 -113 -85 -202 -197 -202h-68
c-60 0 -85 -22 -85 -47c0 -28 22 -44 81 -44h151c117 0 185 -45 185 -127c0 -88 -84 -150 -249 -150zM265 175c73 0 132 59 132 134c0 73 -59 132 -132 132c-70 0 -129 -59 -129 -132s59 -134 129 -134zM347 -51h-124c-61 0 -101 -27 -101 -69c0 -41 31 -73 148 -73h35
c113 0 159 38 159 79c0 43 -37 63 -117 63zM106 558l119 162h66l119 -162h-80l-72 100l-71 -100h-81z" />
    <glyph glyph-name="gbreve.alt" unicode="&#xe910;" horiz-adv-x="581" 
d="M286 -261c-174 0 -234 57 -234 137c0 42 21 71 53 90c-39 17 -58 48 -58 90c0 55 36 89 89 102c-44 34 -71 88 -71 151c0 112 90 201 201 201c74 0 134 -37 167 -94c11 53 46 76 104 76h15v-85h-17c-42 0 -67 -10 -67 -98c0 -113 -85 -202 -197 -202h-68
c-60 0 -85 -22 -85 -47c0 -28 22 -44 81 -44h151c117 0 185 -45 185 -127c0 -88 -84 -150 -249 -150zM265 175c73 0 132 59 132 134c0 73 -59 132 -132 132c-70 0 -129 -59 -129 -132s59 -134 129 -134zM347 -51h-119c-64 1 -106 -26 -106 -69c0 -41 31 -73 148 -73h35
c113 0 159 38 159 79c0 43 -37 63 -117 63zM267 552c-110 0 -161 74 -161 163h66c0 -63 33 -104 95 -105c60 1 94 42 94 105h68c0 -89 -62 -163 -162 -163z" />
    <glyph glyph-name="gdotaccent.alt" unicode="&#xe90f;" horiz-adv-x="581" 
d="M286 -261c-174 0 -234 57 -234 137c0 42 21 71 53 90c-39 17 -58 48 -58 90c0 55 36 89 89 102c-44 34 -71 88 -71 151c0 112 90 201 201 201c74 0 134 -37 167 -94c11 53 46 76 104 76h15v-85h-17c-42 0 -67 -10 -67 -98c0 -113 -85 -202 -197 -202h-68
c-60 0 -85 -22 -85 -47c0 -28 22 -44 81 -44h151c117 0 185 -45 185 -127c0 -88 -84 -150 -249 -150zM265 175c73 0 132 59 132 134c0 73 -59 132 -132 132c-70 0 -129 -59 -129 -132s59 -134 129 -134zM347 -51h-133c-56 -3 -92 -29 -92 -69c0 -41 31 -73 148 -73h35
c113 0 159 38 159 79c0 43 -37 63 -117 63zM232 565v139h77v-139h-77z" />
    <glyph glyph-name="gcommaaccent.alt" unicode="&#xe911;" horiz-adv-x="581" 
d="M286 -261c-174 0 -234 57 -234 137c0 42 21 71 53 90c-39 17 -58 48 -58 90c0 55 36 89 89 102c-44 34 -71 88 -71 151c0 112 90 201 201 201c74 0 134 -37 167 -94c11 53 46 76 104 76h15v-85h-17c-42 0 -67 -10 -67 -98c0 -113 -85 -202 -197 -202h-68
c-60 0 -85 -22 -85 -47c0 -28 22 -44 81 -44h151c117 0 185 -45 185 -127c0 -88 -84 -150 -249 -150zM265 175c73 0 132 59 132 134c0 73 -59 132 -132 132c-70 0 -129 -59 -129 -132s59 -134 129 -134zM347 -51h-124c-61 0 -101 -27 -101 -69c0 -41 31 -73 148 -73h35
c113 0 159 38 159 79c0 43 -37 63 -117 63zM296 564h-53l41 204h71z" />
    <glyph glyph-name="space" unicode=" " horiz-adv-x="250" 
 />
    <glyph glyph-name="hyphen" unicode="-" horiz-adv-x="473" 
d="M52 216v68h370v-68h-370z" />
    <glyph glyph-name="periodcentered" unicode="&#xb7;" horiz-adv-x="202" 
d="M62 181v137h78v-137h-78z" />
    <glyph glyph-name="guillemotleft" unicode="&#xab;" horiz-adv-x="464" 
d="M227 111l-162 116v46l162 116v-57l-114 -83l114 -82v-56zM399 111l-162 116v46l162 116v-57l-114 -83l114 -82v-56z" />
    <glyph glyph-name="guillemotright" unicode="&#xbb;" horiz-adv-x="464" 
d="M237 112v56l115 82l-115 83v57l162 -116v-46zM65 112v56l115 82l-115 83v57l162 -116v-46z" />
    <glyph glyph-name="guilsinglleft" unicode="&#x2039;" horiz-adv-x="292" 
d="M224 106l-155 119v50l155 119v-62l-109 -82l109 -82v-62z" />
    <glyph glyph-name="guilsinglright" unicode="&#x203a;" horiz-adv-x="292" 
d="M69 107v61l108 82l-108 83v62l155 -119v-50z" />
    <glyph glyph-name="bullet" unicode="&#x2022;" horiz-adv-x="335" 
d="M168 177c-40 0 -73 33 -73 73s33 73 73 73s73 -33 73 -73s-33 -73 -73 -73z" />
    <glyph glyph-name="bar" unicode="|" horiz-adv-x="201" 
d="M62 -230v960h78v-960h-78z" />
    <glyph glyph-name="brokenbar" unicode="&#xa6;" horiz-adv-x="242" 
d="M62 310v420h78v-420h-78zM62 -230v420h78v-420h-78z" />
    <glyph glyph-name="parenleft" unicode="(" horiz-adv-x="431" 
d="M326 -247c-152 106 -277 259 -277 497c0 239 126 388 275 498l54 -61c-143 -100 -246 -232 -246 -436c0 -205 102 -338 247 -437z" />
    <glyph glyph-name="parenright" unicode=")" horiz-adv-x="431" 
d="M299 250c0 204 -103 336 -246 436l54 61c149 -110 275 -259 275 -498c0 -238 -125 -391 -277 -497l-53 61c145 99 247 232 247 437z" />
    <glyph glyph-name="bracketleft" unicode="[" horiz-adv-x="376" 
d="M52 -230v960h273v-74h-195v-812h195v-74h-273z" />
    <glyph glyph-name="bracketright" unicode="]" horiz-adv-x="376" 
d="M52 -230v73h195v813h-195v74h273v-960h-273z" />
    <glyph glyph-name="braceleft" unicode="{" horiz-adv-x="403" 
d="M362 -230h-11c-167 0 -220 54 -220 217v120c0 78 -10 105 -94 105v73c84 0 94 27 94 105v123c0 163 53 217 220 217h11v-71c-128 0 -154 -30 -154 -147v-123c0 -75 -17 -120 -67 -141c51 -21 67 -66 67 -140v-120c0 -117 26 -147 154 -147v-71z" />
    <glyph glyph-name="braceright" unicode="}" horiz-adv-x="403" 
d="M42 -230v72c127 0 154 29 154 146v120c0 74 15 119 67 140c-51 21 -67 66 -67 141v123c0 117 -27 146 -154 146v72h11c167 0 220 -54 220 -217v-123c0 -78 10 -105 94 -105v-73c-84 0 -94 -27 -94 -105v-120c0 -163 -53 -217 -220 -217h-11z" />
    <glyph glyph-name="a.smcp" unicode="&#xe201;" horiz-adv-x="581" 
d="M28 0l221 596h82l222 -596h-80l-51 137h-263l-50 -137h-81zM291 492l-104 -281h208z" />
    <glyph glyph-name="a.smcp" unicode="&#xf761;" horiz-adv-x="581" 
d="M28 0l221 596h82l222 -596h-80l-51 137h-263l-50 -137h-81zM291 492l-104 -281h208z" />
    <glyph glyph-name="b.smcp" unicode="&#xe202;" horiz-adv-x="535" 
d="M70 0v596h208c116 0 191 -61 191 -160c0 -55 -25 -99 -72 -125c57 -24 90 -73 90 -141c0 -107 -78 -170 -195 -170h-222zM290 270h-143v-199h147c71 0 116 41 116 100c0 60 -37 99 -120 99zM280 525h-133v-182h138c72 0 107 39 107 93s-41 89 -112 89z" />
    <glyph glyph-name="b.smcp" unicode="&#xf762;" horiz-adv-x="535" 
d="M70 0v596h208c116 0 191 -61 191 -160c0 -55 -25 -99 -72 -125c57 -24 90 -73 90 -141c0 -107 -78 -170 -195 -170h-222zM290 270h-143v-199h147c71 0 116 41 116 100c0 60 -37 99 -120 99zM280 525h-133v-182h138c72 0 107 39 107 93s-41 89 -112 89z" />
    <glyph glyph-name="c.smcp" unicode="&#xe203;" horiz-adv-x="661" 
d="M355 -8c-177 0 -307 140 -307 306c0 171 138 306 305 306c116 0 221 -67 271 -164l-69 -36c-37 74 -111 128 -201 128c-131 0 -227 -108 -227 -234c0 -130 100 -234 226 -234c100 0 170 58 206 137l72 -32c-52 -107 -153 -177 -276 -177z" />
    <glyph glyph-name="c.smcp" unicode="&#xf763;" horiz-adv-x="661" 
d="M355 -8c-177 0 -307 140 -307 306c0 171 138 306 305 306c116 0 221 -67 271 -164l-69 -36c-37 74 -111 128 -201 128c-131 0 -227 -108 -227 -234c0 -130 100 -234 226 -234c100 0 170 58 206 137l72 -32c-52 -107 -153 -177 -276 -177z" />
    <glyph glyph-name="d.smcp" unicode="&#xe204;" horiz-adv-x="595" 
d="M70 0v596h166c189 0 311 -129 311 -298c0 -170 -131 -298 -308 -298h-169zM229 524h-82v-451h85c140 0 235 97 235 225c0 130 -87 226 -238 226z" />
    <glyph glyph-name="d.smcp" unicode="&#xf764;" horiz-adv-x="595" 
d="M70 0v596h166c189 0 311 -129 311 -298c0 -170 -131 -298 -308 -298h-169zM229 524h-82v-451h85c140 0 235 97 235 225c0 130 -87 226 -238 226z" />
    <glyph glyph-name="e.smcp" unicode="&#xe205;" horiz-adv-x="485" 
d="M70 0v596h359v-72h-282v-189h282v-72h-282v-190h282v-73h-359z" />
    <glyph glyph-name="e.smcp" unicode="&#xf765;" horiz-adv-x="485" 
d="M70 0v596h359v-72h-282v-189h282v-72h-282v-190h282v-73h-359z" />
    <glyph glyph-name="f.smcp" unicode="&#xe206;" horiz-adv-x="456" 
d="M70 0v596h337v-72h-260v-189h260v-72h-260v-263h-77z" />
    <glyph glyph-name="f.smcp" unicode="&#xf766;" horiz-adv-x="456" 
d="M70 0v596h337v-72h-260v-189h260v-72h-260v-263h-77z" />
    <glyph glyph-name="g.smcp" unicode="&#xe207;" horiz-adv-x="702" 
d="M356 -8c-174 0 -308 138 -308 306c0 169 135 306 309 306c118 0 215 -62 266 -154l-68 -40c-39 73 -109 122 -198 122c-134 0 -230 -108 -230 -234c0 -127 95 -234 229 -234c122 0 198 80 216 185h-225v74h307v-25c0 -166 -115 -306 -298 -306z" />
    <glyph glyph-name="g.smcp" unicode="&#xf767;" horiz-adv-x="702" 
d="M356 -8c-174 0 -308 138 -308 306c0 169 135 306 309 306c118 0 215 -62 266 -154l-68 -40c-39 73 -109 122 -198 122c-134 0 -230 -108 -230 -234c0 -127 95 -234 229 -234c122 0 198 80 216 185h-225v74h307v-25c0 -166 -115 -306 -298 -306z" />
    <glyph glyph-name="h.smcp" unicode="&#xe208;" horiz-adv-x="585" 
d="M438 0v263h-291v-263h-77v596h77v-260h291v260h77v-596h-77z" />
    <glyph glyph-name="h.smcp" unicode="&#xf768;" horiz-adv-x="585" 
d="M438 0v263h-291v-263h-77v596h77v-260h291v260h77v-596h-77z" />
    <glyph glyph-name="i.smcp" unicode="&#xe209;" horiz-adv-x="229" 
d="M75 0v596h79v-596h-79z" />
    <glyph glyph-name="i.smcp" unicode="&#xf769;" horiz-adv-x="229" 
d="M75 0v596h79v-596h-79z" />
    <glyph glyph-name="j.smcp" unicode="&#xe20a;" horiz-adv-x="402" 
d="M180 -8c-78 0 -137 41 -161 99l73 36c14 -36 44 -63 87 -63c50 0 81 37 81 96v436h77v-432c0 -111 -59 -172 -157 -172z" />
    <glyph glyph-name="j.smcp" unicode="&#xf76a;" horiz-adv-x="402" 
d="M180 -8c-78 0 -137 41 -161 99l73 36c14 -36 44 -63 87 -63c50 0 81 37 81 96v436h77v-432c0 -111 -59 -172 -157 -172z" />
    <glyph glyph-name="k.smcp" unicode="&#xe20b;" horiz-adv-x="551" 
d="M435 0l-188 307l-100 -111v-196h-77v596h77v-303l272 303h95l-212 -235l221 -361h-88z" />
    <glyph glyph-name="k.smcp" unicode="&#xf76b;" horiz-adv-x="551" 
d="M435 0l-188 307l-100 -111v-196h-77v596h77v-303l272 303h95l-212 -235l221 -361h-88z" />
    <glyph glyph-name="l.smcp" unicode="&#xe20c;" horiz-adv-x="447" 
d="M70 0v596h77v-522h253v-74h-330z" />
    <glyph glyph-name="l.smcp" unicode="&#xf76c;" horiz-adv-x="447" 
d="M70 0v596h77v-522h253v-74h-330z" />
    <glyph glyph-name="m.smcp" unicode="&#xe20d;" horiz-adv-x="724" 
d="M70 0v596h76l217 -301l217 301h74v-596h-77v463l-214 -296l-216 299v-466h-77z" />
    <glyph glyph-name="m.smcp" unicode="&#xf76d;" horiz-adv-x="724" 
d="M70 0v596h76l217 -301l217 301h74v-596h-77v463l-214 -296l-216 299v-466h-77z" />
    <glyph glyph-name="n.smcp" unicode="&#xe20e;" horiz-adv-x="629" 
d="M70 0v596h86l326 -471v471h77v-596h-82l-330 476v-476h-77z" />
    <glyph glyph-name="n.smcp" unicode="&#xf76e;" horiz-adv-x="629" 
d="M70 0v596h86l326 -471v471h77v-596h-82l-330 476v-476h-77z" />
    <glyph glyph-name="o.smcp" unicode="&#xe20f;" horiz-adv-x="707" 
d="M353 -8c-169 0 -305 137 -305 306s136 306 305 306s306 -137 306 -306s-137 -306 -306 -306zM353 64c128 0 226 105 226 234c0 128 -98 234 -226 234s-226 -106 -226 -234c0 -129 98 -234 226 -234z" />
    <glyph glyph-name="o.smcp" unicode="&#xf76f;" horiz-adv-x="707" 
d="M353 -8c-169 0 -305 137 -305 306s136 306 305 306s306 -137 306 -306s-137 -306 -306 -306zM353 64c128 0 226 105 226 234c0 128 -98 234 -226 234s-226 -106 -226 -234c0 -129 98 -234 226 -234z" />
    <glyph glyph-name="p.smcp" unicode="&#xe200;" horiz-adv-x="528" 
d="M70 0v596h192c127 0 216 -91 216 -207c0 -117 -89 -208 -217 -208h-114v-181h-77zM256 524h-109v-270h109c89 0 143 59 143 135s-54 135 -143 135z" />
    <glyph glyph-name="p.smcp" unicode="&#xf770;" horiz-adv-x="528" 
d="M70 0v596h192c127 0 216 -91 216 -207c0 -117 -89 -208 -217 -208h-114v-181h-77zM256 524h-109v-270h109c89 0 143 59 143 135s-54 135 -143 135z" />
    <glyph glyph-name="q.smcp" unicode="&#xe211;" horiz-adv-x="707" 
d="M353 -8c-169 0 -305 137 -305 306s136 306 305 306s306 -137 306 -306c0 -80 -31 -152 -81 -206l75 -92h-98l-215 269h95l95 -118c31 40 49 91 49 147c0 128 -98 234 -226 234s-226 -106 -226 -234c0 -129 98 -234 226 -234c35 0 68 8 97 22l46 -58
c-42 -22 -91 -36 -143 -36z" />
    <glyph glyph-name="q.smcp" unicode="&#xf771;" horiz-adv-x="707" 
d="M353 -8c-169 0 -305 137 -305 306s136 306 305 306s306 -137 306 -306c0 -80 -31 -152 -81 -206l75 -92h-98l-215 269h95l95 -118c31 40 49 91 49 147c0 128 -98 234 -226 234s-226 -106 -226 -234c0 -129 98 -234 226 -234c35 0 68 8 97 22l46 -58
c-42 -22 -91 -36 -143 -36z" />
    <glyph glyph-name="r.smcp" unicode="&#xe212;" horiz-adv-x="511" 
d="M70 0v596h185c122 0 207 -85 207 -193c0 -81 -50 -157 -138 -180l146 -223h-92l-178 279h45c89 0 137 65 137 124c0 71 -42 121 -131 121h-102v-524h-79z" />
    <glyph glyph-name="r.smcp" unicode="&#xf772;" horiz-adv-x="511" 
d="M70 0v596h185c122 0 207 -85 207 -193c0 -81 -50 -157 -138 -180l146 -223h-92l-178 279h45c89 0 137 65 137 124c0 71 -42 121 -131 121h-102v-524h-79z" />
    <glyph glyph-name="s.smcp" unicode="&#xe213;" horiz-adv-x="478" 
d="M238 -8c-99 0 -167 45 -216 108l68 53c35 -57 85 -89 147 -89c68 0 115 45 115 103c0 67 -67 86 -139 110c-81 27 -167 59 -167 168c0 91 81 159 186 159c87 0 145 -33 190 -88l-63 -48c-28 45 -70 68 -126 68c-63 0 -107 -38 -107 -90c0 -65 63 -83 137 -108
c81 -27 169 -60 169 -171c0 -90 -75 -175 -194 -175z" />
    <glyph glyph-name="s.smcp" unicode="&#xf773;" horiz-adv-x="478" 
d="M238 -8c-99 0 -167 45 -216 108l68 53c35 -57 85 -89 147 -89c68 0 115 45 115 103c0 67 -67 86 -139 110c-81 27 -167 59 -167 168c0 91 81 159 186 159c87 0 145 -33 190 -88l-63 -48c-28 45 -70 68 -126 68c-63 0 -107 -38 -107 -90c0 -65 63 -83 137 -108
c81 -27 169 -60 169 -171c0 -90 -75 -175 -194 -175z" />
    <glyph glyph-name="t.smcp" unicode="&#xe214;" horiz-adv-x="511" 
d="M217 0v522h-174v74h425v-74h-173v-522h-78z" />
    <glyph glyph-name="t.smcp" unicode="&#xf774;" horiz-adv-x="511" 
d="M217 0v522h-174v74h425v-74h-173v-522h-78z" />
    <glyph glyph-name="u.smcp" unicode="&#xe215;" horiz-adv-x="537" 
d="M268 -8c-118 0 -203 76 -203 202v402h77v-406c0 -77 51 -126 127 -126c74 0 126 49 126 126v406h77v-402c0 -126 -86 -202 -204 -202z" />
    <glyph glyph-name="u.smcp" unicode="&#xf775;" horiz-adv-x="537" 
d="M268 -8c-118 0 -203 76 -203 202v402h77v-406c0 -77 51 -126 127 -126c74 0 126 49 126 126v406h77v-402c0 -126 -86 -202 -204 -202z" />
    <glyph glyph-name="v.smcp" unicode="&#xe216;" horiz-adv-x="559" 
d="M239 0l-211 596h81l170 -485l170 485h82l-213 -596h-79z" />
    <glyph glyph-name="v.smcp" unicode="&#xf776;" horiz-adv-x="559" 
d="M239 0l-211 596h81l170 -485l170 485h82l-213 -596h-79z" />
    <glyph glyph-name="w.smcp" unicode="&#xe217;" horiz-adv-x="874" 
d="M200 0l-170 596h82l131 -475l152 475h74l152 -481l144 481h79l-183 -596h-79l-150 474l-152 -474h-80z" />
    <glyph glyph-name="w.smcp" unicode="&#xf777;" horiz-adv-x="874" 
d="M200 0l-170 596h82l131 -475l152 475h74l152 -481l144 481h79l-183 -596h-79l-150 474l-152 -474h-80z" />
    <glyph glyph-name="x.smcp" unicode="&#xe218;" horiz-adv-x="541" 
d="M427 0l-154 240l-154 -240h-91l202 303l-190 293h85l149 -230l144 230h90l-190 -291l195 -305h-86z" />
    <glyph glyph-name="x.smcp" unicode="&#xf778;" horiz-adv-x="541" 
d="M427 0l-154 240l-154 -240h-91l202 303l-190 293h85l149 -230l144 230h90l-190 -291l195 -305h-86z" />
    <glyph glyph-name="y.smcp" unicode="&#xe219;" horiz-adv-x="523" 
d="M223 0v281l-196 315h85l148 -241l150 241h86l-196 -315v-281h-77z" />
    <glyph glyph-name="y.smcp" unicode="&#xf779;" horiz-adv-x="523" 
d="M223 0v281l-196 315h85l148 -241l150 241h86l-196 -315v-281h-77z" />
    <glyph glyph-name="z.smcp" unicode="&#xe21a;" horiz-adv-x="492" 
d="M47 0v72l303 450h-293v74h385v-71l-303 -450h303v-75h-395z" />
    <glyph glyph-name="z.smcp" unicode="&#xf77a;" horiz-adv-x="492" 
d="M47 0v72l303 450h-293v74h385v-71l-303 -450h303v-75h-395z" />
    <glyph glyph-name="ampersand.smcp" unicode="&#xe401;" horiz-adv-x="658" 
d="M507 0l-55 55c-49 -39 -108 -63 -173 -63c-160 0 -230 98 -230 193c0 78 46 140 107 175c-21 30 -33 62 -33 101c0 79 62 143 159 143c81 0 129 -41 154 -87l-69 -36c-15 28 -40 55 -84 55c-48 0 -79 -34 -79 -75c0 -49 25 -76 99 -149l154 -155c33 41 55 91 63 139h-97
v74h175v-34c0 -74 -34 -160 -92 -228l107 -108h-106zM279 64c46 0 88 16 123 41l-162 162c-14 14 -27 27 -39 40c-47 -27 -73 -64 -73 -118c0 -66 48 -125 151 -125z" />
    <glyph glyph-name="ampersand.smcp" unicode="&#xf726;" horiz-adv-x="658" 
d="M507 0l-55 55c-49 -39 -108 -63 -173 -63c-160 0 -230 98 -230 193c0 78 46 140 107 175c-21 30 -33 62 -33 101c0 79 62 143 159 143c81 0 129 -41 154 -87l-69 -36c-15 28 -40 55 -84 55c-48 0 -79 -34 -79 -75c0 -49 25 -76 99 -149l154 -155c33 41 55 91 63 139h-97
v74h175v-34c0 -74 -34 -160 -92 -228l107 -108h-106zM279 64c46 0 88 16 123 41l-162 162c-14 14 -27 27 -39 40c-47 -27 -73 -64 -73 -118c0 -66 48 -125 151 -125z" />
    <glyph glyph-name="slash.smcp" unicode="&#xe467;" horiz-adv-x="436" 
d="M36 0l283 596h82l-282 -596h-83z" />
    <glyph glyph-name="backslash.smcp" unicode="&#xe468;" horiz-adv-x="436" 
d="M319 0l-283 596h83l282 -596h-82z" />
    <glyph glyph-name="bar.smcp" unicode="&#xe469;" horiz-adv-x="202" 
d="M62 -98v784h79v-784h-79z" />
    <glyph glyph-name="parenleft.smcp" unicode="&#xe499;" horiz-adv-x="312" 
d="M255 -64c-132 92 -206 201 -206 362c0 164 74 268 197 357l49 -59c-98 -68 -170 -158 -170 -298c0 -138 73 -230 172 -298z" />
    <glyph glyph-name="parenleft.smcp" unicode="&#xf618;" horiz-adv-x="312" 
d="M255 -64c-132 92 -206 201 -206 362c0 164 74 268 197 357l49 -59c-98 -68 -170 -158 -170 -298c0 -138 73 -230 172 -298z" />
    <glyph glyph-name="parenright.smcp" unicode="&#xe49a;" horiz-adv-x="312" 
d="M57 -64l-42 64c99 68 172 160 172 298c0 140 -72 230 -170 298l49 59c123 -89 197 -193 197 -357c0 -161 -74 -270 -206 -362z" />
    <glyph glyph-name="parenright.smcp" unicode="&#xf619;" horiz-adv-x="312" 
d="M57 -64l-42 64c99 68 172 160 172 298c0 140 -72 230 -170 298l49 59c123 -89 197 -193 197 -357c0 -161 -74 -270 -206 -362z" />
    <glyph glyph-name="bracketleft.smcp" unicode="&#xe49b;" horiz-adv-x="336" 
d="M62 -98v784h222v-75h-144v-635h144v-74h-222z" />
    <glyph glyph-name="bracketleft.smcp" unicode="&#xf60e;" horiz-adv-x="336" 
d="M62 -98v784h222v-75h-144v-635h144v-74h-222z" />
    <glyph glyph-name="bracketright.smcp" unicode="&#xe49c;" horiz-adv-x="336" 
d="M52 -98v74h144v635h-144v75h222v-784h-222z" />
    <glyph glyph-name="bracketright.smcp" unicode="&#xf60f;" horiz-adv-x="336" 
d="M52 -98v74h144v635h-144v75h222v-784h-222z" />
    <glyph glyph-name="braceleft.smcp" unicode="&#xe49d;" horiz-adv-x="370" 
d="M309 -98c-137 0 -180 44 -180 177v92c0 64 -8 85 -77 85v72c69 0 77 21 77 85v96c0 133 43 177 180 177h9v-71c-94 0 -112 -21 -112 -107v-96c0 -63 -15 -101 -57 -120c43 -18 57 -57 57 -120v-92c0 -87 18 -107 112 -107v-71h-9z" />
    <glyph glyph-name="braceleft.smcp" unicode="&#xf60c;" horiz-adv-x="370" 
d="M309 -98c-137 0 -180 44 -180 177v92c0 64 -8 85 -77 85v72c69 0 77 21 77 85v96c0 133 43 177 180 177h9v-71c-94 0 -112 -21 -112 -107v-96c0 -63 -15 -101 -57 -120c43 -18 57 -57 57 -120v-92c0 -87 18 -107 112 -107v-71h-9z" />
    <glyph glyph-name="braceright.smcp" unicode="&#xe49e;" horiz-adv-x="370" 
d="M52 -98v72c94 0 112 19 112 106v92c0 64 14 102 57 120c-42 19 -57 57 -57 120v96c0 86 -18 106 -112 106v72h9c137 0 180 -44 180 -177v-96c0 -64 8 -85 77 -85v-72c-69 0 -77 -21 -77 -85v-92c0 -133 -43 -177 -180 -177h-9z" />
    <glyph glyph-name="braceright.smcp" unicode="&#xf60d;" horiz-adv-x="370" 
d="M52 -98v72c94 0 112 19 112 106v92c0 64 14 102 57 120c-42 19 -57 57 -57 120v96c0 86 -18 106 -112 106v72h9c137 0 180 -44 180 -177v-96c0 -64 8 -85 77 -85v-72c-69 0 -77 -21 -77 -85v-92c0 -133 -43 -177 -180 -177h-9z" />
    <glyph glyph-name="aacute.smcp" unicode="&#xe221;" horiz-adv-x="581" 
d="M28 0l221 596h82l222 -596h-80l-51 137h-263l-50 -137h-81zM291 492l-104 -281h208zM252 654l117 162h100l-145 -162h-72z" />
    <glyph glyph-name="aacute.smcp" unicode="&#xf7e1;" horiz-adv-x="581" 
d="M28 0l221 596h82l222 -596h-80l-51 137h-263l-50 -137h-81zM291 492l-104 -281h208zM252 654l117 162h100l-145 -162h-72z" />
    <glyph glyph-name="agrave.smcp" unicode="&#xe222;" horiz-adv-x="581" 
d="M28 0l221 596h82l222 -596h-80l-51 137h-263l-50 -137h-81zM291 492l-104 -281h208zM250 654l-145 162h99l118 -162h-72z" />
    <glyph glyph-name="agrave.smcp" unicode="&#xf7e0;" horiz-adv-x="581" 
d="M28 0l221 596h82l222 -596h-80l-51 137h-263l-50 -137h-81zM291 492l-104 -281h208zM250 654l-145 162h99l118 -162h-72z" />
    <glyph glyph-name="acircumflex.smcp" unicode="&#xe223;" horiz-adv-x="581" 
d="M28 0l221 596h82l222 -596h-80l-51 137h-263l-50 -137h-81zM291 492l-104 -281h208zM136 646l119 162h66l119 -162h-80l-72 100l-71 -100h-81z" />
    <glyph glyph-name="acircumflex.smcp" unicode="&#xf7e2;" horiz-adv-x="581" 
d="M28 0l221 596h82l222 -596h-80l-51 137h-263l-50 -137h-81zM291 492l-104 -281h208zM136 646l119 162h66l119 -162h-80l-72 100l-71 -100h-81z" />
    <glyph glyph-name="adieresis.smcp" unicode="&#xe224;" horiz-adv-x="581" 
d="M28 0l221 596h82l222 -596h-80l-51 137h-263l-50 -137h-81zM291 492l-104 -281h208zM320 661v139h77v-139h-77zM186 661v139h77v-139h-77z" />
    <glyph glyph-name="adieresis.smcp" unicode="&#xf7e4;" horiz-adv-x="581" 
d="M28 0l221 596h82l222 -596h-80l-51 137h-263l-50 -137h-81zM291 492l-104 -281h208zM320 661v139h77v-139h-77zM186 661v139h77v-139h-77z" />
    <glyph glyph-name="atilde.smcp" unicode="&#xe225;" horiz-adv-x="581" 
d="M28 0l221 596h82l222 -596h-80l-51 137h-263l-50 -137h-81zM291 492l-104 -281h208zM118 654c0 73 41 120 99 120c33 0 57 -13 81 -27c22 -14 42 -28 63 -28c24 0 39 17 39 52h62c0 -74 -35 -121 -100 -121c-38 0 -66 18 -91 33c-19 11 -33 22 -54 22
c-23 0 -37 -16 -37 -51h-62z" />
    <glyph glyph-name="atilde.smcp" unicode="&#xf7e3;" horiz-adv-x="581" 
d="M28 0l221 596h82l222 -596h-80l-51 137h-263l-50 -137h-81zM291 492l-104 -281h208zM118 654c0 73 41 120 99 120c33 0 57 -13 81 -27c22 -14 42 -28 63 -28c24 0 39 17 39 52h62c0 -74 -35 -121 -100 -121c-38 0 -66 18 -91 33c-19 11 -33 22 -54 22
c-23 0 -37 -16 -37 -51h-62z" />
    <glyph glyph-name="aring.smcp" unicode="&#xe226;" horiz-adv-x="581" 
d="M28 0l207 557c-32 19 -53 53 -53 93c0 61 48 108 106 108c61 0 109 -47 109 -108c0 -39 -21 -73 -52 -92l208 -558h-80l-51 137h-263l-50 -137h-81zM291 492l-104 -281h208zM288 603c27 0 49 21 49 47s-22 49 -49 49c-25 0 -47 -23 -47 -49s22 -47 47 -47z" />
    <glyph glyph-name="aring.smcp" unicode="&#xf7e5;" horiz-adv-x="581" 
d="M28 0l207 557c-32 19 -53 53 -53 93c0 61 48 108 106 108c61 0 109 -47 109 -108c0 -39 -21 -73 -52 -92l208 -558h-80l-51 137h-263l-50 -137h-81zM291 492l-104 -281h208zM288 603c27 0 49 21 49 47s-22 49 -49 49c-25 0 -47 -23 -47 -49s22 -47 47 -47z" />
    <glyph glyph-name="amacron.smcp" unicode="&#xe228;" horiz-adv-x="581" 
d="M28 0l221 596h82l222 -596h-80l-51 137h-263l-50 -137h-81zM291 492l-104 -281h208zM156 654v67h264v-67h-264z" />
    <glyph glyph-name="amacron.smcp" unicode="&#xf641;" horiz-adv-x="581" 
d="M28 0l221 596h82l222 -596h-80l-51 137h-263l-50 -137h-81zM291 492l-104 -281h208zM156 654v67h264v-67h-264z" />
    <glyph glyph-name="abreve.smcp" unicode="&#xe229;" horiz-adv-x="581" 
d="M28 0l221 596h82l222 -596h-80l-51 137h-263l-50 -137h-81zM291 492l-104 -281h208zM288 647c-110 0 -161 74 -161 163h66c0 -63 33 -104 95 -105c60 1 94 42 94 105h68c0 -89 -62 -163 -162 -163z" />
    <glyph glyph-name="abreve.smcp" unicode="&#xf640;" horiz-adv-x="581" 
d="M28 0l221 596h82l222 -596h-80l-51 137h-263l-50 -137h-81zM291 492l-104 -281h208zM288 647c-110 0 -161 74 -161 163h66c0 -63 33 -104 95 -105c60 1 94 42 94 105h68c0 -89 -62 -163 -162 -163z" />
    <glyph glyph-name="aogonek.smcp" unicode="&#xe22f;" horiz-adv-x="581" 
d="M485 -216c-80 0 -135 45 -135 101c0 46 28 88 115 135l-43 117h-263l-50 -137h-81l221 596h82l222 -596c-101 -61 -125 -82 -125 -111c0 -27 25 -41 57 -41c33 0 53 16 74 34l61 -42c-34 -30 -86 -56 -135 -56zM291 492l-104 -281h208z" />
    <glyph glyph-name="aogonek.smcp" unicode="&#xf642;" horiz-adv-x="581" 
d="M485 -216c-80 0 -135 45 -135 101c0 46 28 88 115 135l-43 117h-263l-50 -137h-81l221 596h82l222 -596c-101 -61 -125 -82 -125 -111c0 -27 25 -41 57 -41c33 0 53 16 74 34l61 -42c-34 -30 -86 -56 -135 -56zM291 492l-104 -281h208z" />
    <glyph glyph-name="aringacute.smcp" unicode="&#xe22d;" horiz-adv-x="581" 
d="M28 0l207 557c-32 19 -53 53 -53 93c0 61 48 108 106 108c61 0 109 -47 109 -108c0 -39 -21 -73 -52 -92l208 -558h-80l-51 137h-263l-50 -137h-81zM291 492l-104 -281h208zM248 793l117 162h100l-145 -162h-72zM288 603c27 0 49 21 49 47s-22 49 -49 49
c-25 0 -47 -23 -47 -49s22 -47 47 -47z" />
    <glyph glyph-name="aringacute.smcp" unicode="&#xf625;" horiz-adv-x="581" 
d="M28 0l207 557c-32 19 -53 53 -53 93c0 61 48 108 106 108c61 0 109 -47 109 -108c0 -39 -21 -73 -52 -92l208 -558h-80l-51 137h-263l-50 -137h-81zM291 492l-104 -281h208zM248 793l117 162h100l-145 -162h-72zM288 603c27 0 49 21 49 47s-22 49 -49 49
c-25 0 -47 -23 -47 -49s22 -47 47 -47z" />
    <glyph glyph-name="ae.smcp" unicode="&#xe231;" horiz-adv-x="856" 
d="M29 0l282 596h489v-74h-387l39 -186h348v-74h-333l39 -187h294v-75h-358l-29 135h-236l-63 -135h-85zM340 484l-129 -277h187z" />
    <glyph glyph-name="ae.smcp" unicode="&#xf7e6;" horiz-adv-x="856" 
d="M29 0l282 596h489v-74h-387l39 -186h348v-74h-333l39 -187h294v-75h-358l-29 135h-236l-63 -135h-85zM340 484l-129 -277h187z" />
    <glyph glyph-name="aeacute.smcp" unicode="&#xe232;" horiz-adv-x="863" 
d="M30 0l282 596h489v-74h-387l39 -186h348v-74h-333l39 -187h294v-75h-358l-29 135h-236l-63 -135h-85zM341 484l-129 -277h187zM459 654l117 162h100l-145 -162h-72z" />
    <glyph glyph-name="aeacute.smcp" unicode="&#xf624;" horiz-adv-x="863" 
d="M30 0l282 596h489v-74h-387l39 -186h348v-74h-333l39 -187h294v-75h-358l-29 135h-236l-63 -135h-85zM341 484l-129 -277h187zM459 654l117 162h100l-145 -162h-72z" />
    <glyph glyph-name="cacute.smcp" unicode="&#xe234;" horiz-adv-x="661" 
d="M311 654l117 162h100l-145 -162h-72zM355 -8c-177 0 -307 140 -307 306c0 171 138 306 305 306c116 0 221 -67 271 -164l-69 -36c-37 74 -111 128 -201 128c-131 0 -227 -108 -227 -234c0 -130 100 -234 226 -234c100 0 170 58 206 137l72 -32
c-52 -107 -153 -177 -276 -177z" />
    <glyph glyph-name="cacute.smcp" unicode="&#xf643;" horiz-adv-x="661" 
d="M311 654l117 162h100l-145 -162h-72zM355 -8c-177 0 -307 140 -307 306c0 171 138 306 305 306c116 0 221 -67 271 -164l-69 -36c-37 74 -111 128 -201 128c-131 0 -227 -108 -227 -234c0 -130 100 -234 226 -234c100 0 170 58 206 137l72 -32
c-52 -107 -153 -177 -276 -177z" />
    <glyph glyph-name="ccircumflex.smcp" unicode="&#xe235;" horiz-adv-x="661" 
d="M355 -8c-177 0 -307 140 -307 306c0 171 138 306 305 306c116 0 221 -67 271 -164l-69 -36c-37 74 -111 128 -201 128c-131 0 -227 -108 -227 -234c0 -130 100 -234 226 -234c100 0 170 58 206 137l72 -32c-52 -107 -153 -177 -276 -177zM205 651l119 162h66l119 -162
h-80l-72 100l-71 -100h-81z" />
    <glyph glyph-name="ccircumflex.smcp" unicode="&#xf628;" horiz-adv-x="661" 
d="M355 -8c-177 0 -307 140 -307 306c0 171 138 306 305 306c116 0 221 -67 271 -164l-69 -36c-37 74 -111 128 -201 128c-131 0 -227 -108 -227 -234c0 -130 100 -234 226 -234c100 0 170 58 206 137l72 -32c-52 -107 -153 -177 -276 -177zM205 651l119 162h66l119 -162
h-80l-72 100l-71 -100h-81z" />
    <glyph glyph-name="ccaron.smcp" unicode="&#xe236;" horiz-adv-x="661" 
d="M355 -8c-177 0 -307 140 -307 306c0 171 138 306 305 306c116 0 221 -67 271 -164l-69 -36c-37 74 -111 128 -201 128c-131 0 -227 -108 -227 -234c0 -130 100 -234 226 -234c100 0 170 58 206 137l72 -32c-52 -107 -153 -177 -276 -177zM323 654l-119 162h80l71 -100
l72 100h80l-119 -162h-65z" />
    <glyph glyph-name="ccaron.smcp" unicode="&#xf644;" horiz-adv-x="661" 
d="M355 -8c-177 0 -307 140 -307 306c0 171 138 306 305 306c116 0 221 -67 271 -164l-69 -36c-37 74 -111 128 -201 128c-131 0 -227 -108 -227 -234c0 -130 100 -234 226 -234c100 0 170 58 206 137l72 -32c-52 -107 -153 -177 -276 -177zM323 654l-119 162h80l71 -100
l72 100h80l-119 -162h-65z" />
    <glyph glyph-name="ccedilla.smcp" unicode="&#xe238;" horiz-adv-x="661" 
d="M349 -234c-63 0 -110 22 -146 56l61 37c25 -20 46 -36 85 -36c38 0 68 18 68 41s-25 36 -71 36h-41v96c-151 23 -257 152 -257 302c0 171 138 306 305 306c116 0 221 -67 271 -164l-69 -36c-37 74 -111 128 -201 128c-131 0 -227 -108 -227 -234
c0 -130 100 -234 226 -234c100 0 170 58 206 137l72 -32c-50 -103 -145 -171 -261 -176v-45c71 0 119 -34 119 -81c0 -59 -64 -101 -140 -101z" />
    <glyph glyph-name="ccedilla.smcp" unicode="&#xf7e7;" horiz-adv-x="661" 
d="M349 -234c-63 0 -110 22 -146 56l61 37c25 -20 46 -36 85 -36c38 0 68 18 68 41s-25 36 -71 36h-41v96c-151 23 -257 152 -257 302c0 171 138 306 305 306c116 0 221 -67 271 -164l-69 -36c-37 74 -111 128 -201 128c-131 0 -227 -108 -227 -234
c0 -130 100 -234 226 -234c100 0 170 58 206 137l72 -32c-50 -103 -145 -171 -261 -176v-45c71 0 119 -34 119 -81c0 -59 -64 -101 -140 -101z" />
    <glyph glyph-name="cdotaccent.smcp" unicode="&#xe237;" horiz-adv-x="661" 
d="M355 -8c-177 0 -307 140 -307 306c0 171 138 306 305 306c116 0 221 -67 271 -164l-69 -36c-37 74 -111 128 -201 128c-131 0 -227 -108 -227 -234c0 -130 100 -234 226 -234c100 0 170 58 206 137l72 -32c-52 -107 -153 -177 -276 -177zM321 661v139h77v-139h-77z" />
    <glyph glyph-name="cdotaccent.smcp" unicode="&#xf629;" horiz-adv-x="661" 
d="M355 -8c-177 0 -307 140 -307 306c0 171 138 306 305 306c116 0 221 -67 271 -164l-69 -36c-37 74 -111 128 -201 128c-131 0 -227 -108 -227 -234c0 -130 100 -234 226 -234c100 0 170 58 206 137l72 -32c-52 -107 -153 -177 -276 -177zM321 661v139h77v-139h-77z" />
    <glyph glyph-name="eth.smcp" unicode="&#xe32c;" horiz-adv-x="623" 
d="M28 265v70h70v261h166c189 0 311 -129 311 -298c0 -170 -131 -298 -308 -298h-169v265h-70zM321 265h-146v-192h85c140 0 235 97 235 225c0 130 -87 226 -238 226h-82v-189h146v-70z" />
    <glyph glyph-name="eth.smcp" unicode="&#xf7f0;" horiz-adv-x="623" 
d="M28 265v70h70v261h166c189 0 311 -129 311 -298c0 -170 -131 -298 -308 -298h-169v265h-70zM321 265h-146v-192h85c140 0 235 97 235 225c0 130 -87 226 -238 226h-82v-189h146v-70z" />
    <glyph glyph-name="dcroat.smcp" unicode="&#xe23c;" horiz-adv-x="623" 
d="M28 265v70h70v261h166c189 0 311 -129 311 -298c0 -170 -131 -298 -308 -298h-169v265h-70zM321 265h-146v-192h85c140 0 235 97 235 225c0 130 -87 226 -238 226h-82v-189h146v-70z" />
    <glyph glyph-name="dcroat.smcp" unicode="&#xf646;" horiz-adv-x="623" 
d="M28 265v70h70v261h166c189 0 311 -129 311 -298c0 -170 -131 -298 -308 -298h-169v265h-70zM321 265h-146v-192h85c140 0 235 97 235 225c0 130 -87 226 -238 226h-82v-189h146v-70z" />
    <glyph glyph-name="eacute.smcp" unicode="&#xe23d;" horiz-adv-x="485" 
d="M70 0v596h359v-72h-282v-189h282v-72h-282v-190h282v-73h-359zM195 654l117 162h100l-145 -162h-72z" />
    <glyph glyph-name="eacute.smcp" unicode="&#xf7e9;" horiz-adv-x="485" 
d="M70 0v596h359v-72h-282v-189h282v-72h-282v-190h282v-73h-359zM195 654l117 162h100l-145 -162h-72z" />
    <glyph glyph-name="egrave.smcp" unicode="&#xe23e;" horiz-adv-x="485" 
d="M70 0v596h359v-72h-282v-189h282v-72h-282v-190h282v-73h-359zM231 654l-145 162h99l118 -162h-72z" />
    <glyph glyph-name="egrave.smcp" unicode="&#xf7e8;" horiz-adv-x="485" 
d="M70 0v596h359v-72h-282v-189h282v-72h-282v-190h282v-73h-359zM231 654l-145 162h99l118 -162h-72z" />
    <glyph glyph-name="ecircumflex.smcp" unicode="&#xe23f;" horiz-adv-x="485" 
d="M70 0v596h359v-72h-282v-189h282v-72h-282v-190h282v-73h-359zM100 654l119 162h66l119 -162h-80l-72 100l-71 -100h-81z" />
    <glyph glyph-name="ecircumflex.smcp" unicode="&#xf7ea;" horiz-adv-x="485" 
d="M70 0v596h359v-72h-282v-189h282v-72h-282v-190h282v-73h-359zM100 654l119 162h66l119 -162h-80l-72 100l-71 -100h-81z" />
    <glyph glyph-name="edieresis.smcp" unicode="&#xe230;" horiz-adv-x="485" 
d="M70 0v596h359v-72h-282v-189h282v-72h-282v-190h282v-73h-359zM150 661v139h77v-139h-77zM284 661v139h77v-139h-77z" />
    <glyph glyph-name="edieresis.smcp" unicode="&#xf7eb;" horiz-adv-x="485" 
d="M70 0v596h359v-72h-282v-189h282v-72h-282v-190h282v-73h-359zM150 661v139h77v-139h-77zM284 661v139h77v-139h-77z" />
    <glyph glyph-name="ecaron.smcp" unicode="&#xe241;" horiz-adv-x="485" 
d="M70 0v596h359v-72h-282v-189h282v-72h-282v-190h282v-73h-359zM218 654l-119 162h80l71 -100l72 100h80l-119 -162h-65z" />
    <glyph glyph-name="ecaron.smcp" unicode="&#xf647;" horiz-adv-x="485" 
d="M70 0v596h359v-72h-282v-189h282v-72h-282v-190h282v-73h-359zM218 654l-119 162h80l71 -100l72 100h80l-119 -162h-65z" />
    <glyph glyph-name="emacron.smcp" unicode="&#xe242;" horiz-adv-x="485" 
d="M70 0v596h359v-72h-282v-189h282v-72h-282v-190h282v-73h-359zM118 654v67h264v-67h-264z" />
    <glyph glyph-name="emacron.smcp" unicode="&#xf649;" horiz-adv-x="485" 
d="M70 0v596h359v-72h-282v-189h282v-72h-282v-190h282v-73h-359zM118 654v67h264v-67h-264z" />
    <glyph glyph-name="ebreve.smcp" unicode="&#xe243;" horiz-adv-x="485" 
d="M70 0v596h359v-72h-282v-189h282v-72h-282v-190h282v-73h-359zM250 647c-110 0 -161 74 -161 163h66c0 -63 33 -104 95 -105c60 1 94 42 94 105h68c0 -89 -62 -163 -162 -163z" />
    <glyph glyph-name="ebreve.smcp" unicode="&#xf62a;" horiz-adv-x="485" 
d="M70 0v596h359v-72h-282v-189h282v-72h-282v-190h282v-73h-359zM250 647c-110 0 -161 74 -161 163h66c0 -63 33 -104 95 -105c60 1 94 42 94 105h68c0 -89 -62 -163 -162 -163z" />
    <glyph glyph-name="eogonek.smcp" unicode="&#xe249;" horiz-adv-x="485" 
d="M70 0v596h359v-72h-282v-189h282v-72h-282v-190h282v-73c-101 -61 -125 -82 -125 -111c0 -27 25 -41 57 -41c33 0 53 16 74 34l61 -42c-34 -30 -86 -56 -135 -56c-80 0 -135 45 -135 101c0 39 20 76 81 115h-237z" />
    <glyph glyph-name="eogonek.smcp" unicode="&#xf64a;" horiz-adv-x="485" 
d="M70 0v596h359v-72h-282v-189h282v-72h-282v-190h282v-73c-101 -61 -125 -82 -125 -111c0 -27 25 -41 57 -41c33 0 53 16 74 34l61 -42c-34 -30 -86 -56 -135 -56c-80 0 -135 45 -135 101c0 39 20 76 81 115h-237z" />
    <glyph glyph-name="edotaccent.smcp" unicode="&#xe246;" horiz-adv-x="485" 
d="M70 0v596h359v-72h-282v-189h282v-72h-282v-190h282v-73h-359zM220 661v139h77v-139h-77z" />
    <glyph glyph-name="edotaccent.smcp" unicode="&#xf648;" horiz-adv-x="485" 
d="M70 0v596h359v-72h-282v-189h282v-72h-282v-190h282v-73h-359zM220 661v139h77v-139h-77z" />
    <glyph glyph-name="gcircumflex.smcp" unicode="&#xe24b;" horiz-adv-x="702" 
d="M356 -8c-174 0 -308 138 -308 306c0 169 135 306 309 306c118 0 215 -62 266 -154l-68 -40c-39 73 -109 122 -198 122c-134 0 -230 -108 -230 -234c0 -127 95 -234 229 -234c122 0 198 80 216 185h-225v74h307v-25c0 -166 -115 -306 -298 -306zM200 653l119 162h66
l119 -162h-80l-72 100l-71 -100h-81z" />
    <glyph glyph-name="gcircumflex.smcp" unicode="&#xf62c;" horiz-adv-x="702" 
d="M356 -8c-174 0 -308 138 -308 306c0 169 135 306 309 306c118 0 215 -62 266 -154l-68 -40c-39 73 -109 122 -198 122c-134 0 -230 -108 -230 -234c0 -127 95 -234 229 -234c122 0 198 80 216 185h-225v74h307v-25c0 -166 -115 -306 -298 -306zM200 653l119 162h66
l119 -162h-80l-72 100l-71 -100h-81z" />
    <glyph glyph-name="gbreve.smcp" unicode="&#xe24e;" horiz-adv-x="702" 
d="M356 -8c-174 0 -308 138 -308 306c0 169 135 306 309 306c118 0 215 -62 266 -154l-68 -40c-39 73 -109 122 -198 122c-134 0 -230 -108 -230 -234c0 -127 95 -234 229 -234c122 0 198 80 216 185h-225v74h307v-25c0 -166 -115 -306 -298 -306zM353 653
c-110 0 -161 74 -161 163h66c0 -63 33 -104 95 -105c60 1 94 42 94 105h68c0 -89 -62 -163 -162 -163z" />
    <glyph glyph-name="gbreve.smcp" unicode="&#xf64b;" horiz-adv-x="702" 
d="M356 -8c-174 0 -308 138 -308 306c0 169 135 306 309 306c118 0 215 -62 266 -154l-68 -40c-39 73 -109 122 -198 122c-134 0 -230 -108 -230 -234c0 -127 95 -234 229 -234c122 0 198 80 216 185h-225v74h307v-25c0 -166 -115 -306 -298 -306zM353 653
c-110 0 -161 74 -161 163h66c0 -63 33 -104 95 -105c60 1 94 42 94 105h68c0 -89 -62 -163 -162 -163z" />
    <glyph glyph-name="gdotaccent.smcp" unicode="&#xe24f;" horiz-adv-x="702" 
d="M356 -8c-174 0 -308 138 -308 306c0 169 135 306 309 306c118 0 215 -62 266 -154l-68 -40c-39 73 -109 122 -198 122c-134 0 -230 -108 -230 -234c0 -127 95 -234 229 -234c122 0 198 80 216 185h-225v74h307v-25c0 -166 -115 -306 -298 -306zM318 661v139h77v-139h-77z
" />
    <glyph glyph-name="gdotaccent.smcp" unicode="&#xf62d;" horiz-adv-x="702" 
d="M356 -8c-174 0 -308 138 -308 306c0 169 135 306 309 306c118 0 215 -62 266 -154l-68 -40c-39 73 -109 122 -198 122c-134 0 -230 -108 -230 -234c0 -127 95 -234 229 -234c122 0 198 80 216 185h-225v74h307v-25c0 -166 -115 -306 -298 -306zM318 661v139h77v-139h-77z
" />
    <glyph glyph-name="gcommaaccent.smcp" unicode="&#xe240;" horiz-adv-x="702" 
d="M356 -8c-174 0 -308 138 -308 306c0 169 135 306 309 306c118 0 215 -62 266 -154l-68 -40c-39 73 -109 122 -198 122c-134 0 -230 -108 -230 -234c0 -127 95 -234 229 -234c122 0 198 80 216 185h-225v74h307v-25c0 -166 -115 -306 -298 -306zM332 -274h-53l41 204h71z
" />
    <glyph glyph-name="gcommaaccent.smcp" unicode="&#xf64c;" horiz-adv-x="702" 
d="M356 -8c-174 0 -308 138 -308 306c0 169 135 306 309 306c118 0 215 -62 266 -154l-68 -40c-39 73 -109 122 -198 122c-134 0 -230 -108 -230 -234c0 -127 95 -234 229 -234c122 0 198 80 216 185h-225v74h307v-25c0 -166 -115 -306 -298 -306zM332 -274h-53l41 204h71z
" />
    <glyph glyph-name="hbar.smcp" unicode="&#xe257;" horiz-adv-x="637" 
d="M464 0v263h-291v-263h-77v430h-70v73h70v93h77v-93h291v93h77v-93h70v-73h-70v-430h-77zM173 430v-94h291v94h-291z" />
    <glyph glyph-name="hbar.smcp" unicode="&#xf62e;" horiz-adv-x="637" 
d="M464 0v263h-291v-263h-77v430h-70v73h70v93h77v-93h291v93h77v-93h70v-73h-70v-430h-77zM173 430v-94h291v94h-291z" />
    <glyph glyph-name="hcircumflex.smcp" unicode="&#xe253;" horiz-adv-x="585" 
d="M438 0v263h-291v-263h-77v596h77v-260h291v260h77v-596h-77zM137 653l119 162h66l119 -162h-80l-72 100l-71 -100h-81z" />
    <glyph glyph-name="hcircumflex.smcp" unicode="&#xf62f;" horiz-adv-x="585" 
d="M438 0v263h-291v-263h-77v596h77v-260h291v260h77v-596h-77zM137 653l119 162h66l119 -162h-80l-72 100l-71 -100h-81z" />
    <glyph glyph-name="iacute.smcp" unicode="&#xe258;" horiz-adv-x="229" 
d="M72 654l117 162h100l-145 -162h-72zM75 0v596h79v-596h-79z" />
    <glyph glyph-name="iacute.smcp" unicode="&#xf7ed;" horiz-adv-x="229" 
d="M72 654l117 162h100l-145 -162h-72zM75 0v596h79v-596h-79z" />
    <glyph glyph-name="igrave.smcp" unicode="&#xe259;" horiz-adv-x="229" 
d="M77 654l-145 162h99l118 -162h-72zM75 0v596h79v-596h-79z" />
    <glyph glyph-name="igrave.smcp" unicode="&#xf7ec;" horiz-adv-x="229" 
d="M77 654l-145 162h99l118 -162h-72zM75 0v596h79v-596h-79z" />
    <glyph glyph-name="icircumflex.smcp" unicode="&#xe25a;" horiz-adv-x="229" 
d="M75 0v596h79v-596h-79zM-40 646l119 162h66l119 -162h-80l-72 100l-71 -100h-81z" />
    <glyph glyph-name="icircumflex.smcp" unicode="&#xf7ee;" horiz-adv-x="229" 
d="M75 0v596h79v-596h-79zM-40 646l119 162h66l119 -162h-80l-72 100l-71 -100h-81z" />
    <glyph glyph-name="idieresis.smcp" unicode="&#xe25b;" horiz-adv-x="229" 
d="M178 661v139h77v-139h-77zM-25 661v139h77v-139h-77zM75 0v596h79v-596h-79z" />
    <glyph glyph-name="idieresis.smcp" unicode="&#xf7ef;" horiz-adv-x="229" 
d="M178 661v139h77v-139h-77zM-25 661v139h77v-139h-77zM75 0v596h79v-596h-79z" />
    <glyph glyph-name="itilde.smcp" unicode="&#xe25c;" horiz-adv-x="229" 
d="M-58 654c0 73 41 120 99 120c33 0 57 -13 81 -27c22 -14 42 -28 63 -28c24 0 39 17 39 52h62c0 -74 -35 -121 -100 -121c-38 0 -66 18 -91 33c-19 11 -33 22 -54 22c-23 0 -37 -16 -37 -51h-62zM75 0v596h79v-596h-79z" />
    <glyph glyph-name="itilde.smcp" unicode="&#xf632;" horiz-adv-x="229" 
d="M-58 654c0 73 41 120 99 120c33 0 57 -13 81 -27c22 -14 42 -28 63 -28c24 0 39 17 39 52h62c0 -74 -35 -121 -100 -121c-38 0 -66 18 -91 33c-19 11 -33 22 -54 22c-23 0 -37 -16 -37 -51h-62zM75 0v596h79v-596h-79z" />
    <glyph glyph-name="imacron.smcp" unicode="&#xe25e;" horiz-adv-x="229" 
d="M-20 654v67h264v-67h-264zM75 0v596h79v-596h-79z" />
    <glyph glyph-name="imacron.smcp" unicode="&#xf64d;" horiz-adv-x="229" 
d="M-20 654v67h264v-67h-264zM75 0v596h79v-596h-79z" />
    <glyph glyph-name="ibreve.smcp" unicode="&#xe25f;" horiz-adv-x="229" 
d="M113 647c-110 0 -161 74 -161 163h66c0 -63 33 -104 95 -105c60 1 94 42 94 105h68c0 -89 -62 -163 -162 -163zM75 0v596h79v-596h-79z" />
    <glyph glyph-name="ibreve.smcp" unicode="&#xf630;" horiz-adv-x="229" 
d="M113 647c-110 0 -161 74 -161 163h66c0 -63 33 -104 95 -105c60 1 94 42 94 105h68c0 -89 -62 -163 -162 -163zM75 0v596h79v-596h-79z" />
    <glyph glyph-name="iogonek.smcp" unicode="&#xe264;" horiz-adv-x="229" 
d="M124 -217c-86 0 -122 53 -122 109c0 45 30 87 73 123v581h79v-596c-54 -43 -79 -73 -79 -105c0 -27 20 -46 49 -46c28 0 46 11 64 26l44 -54c-30 -22 -71 -38 -108 -38z" />
    <glyph glyph-name="iogonek.smcp" unicode="&#xf64e;" horiz-adv-x="229" 
d="M124 -217c-86 0 -122 53 -122 109c0 45 30 87 73 123v581h79v-596c-54 -43 -79 -73 -79 -105c0 -27 20 -46 49 -46c28 0 46 11 64 26l44 -54c-30 -22 -71 -38 -108 -38z" />
    <glyph glyph-name="jcircumflex.smcp" unicode="&#xe265;" horiz-adv-x="402" 
d="M180 -8c-78 0 -137 41 -161 99l73 36c14 -36 44 -63 87 -63c50 0 81 37 81 96v436h77v-432c0 -111 -59 -172 -157 -172zM141 644l119 162h66l119 -162h-80l-72 100l-71 -100h-81z" />
    <glyph glyph-name="jcircumflex.smcp" unicode="&#xf633;" horiz-adv-x="402" 
d="M180 -8c-78 0 -137 41 -161 99l73 36c14 -36 44 -63 87 -63c50 0 81 37 81 96v436h77v-432c0 -111 -59 -172 -157 -172zM141 644l119 162h66l119 -162h-80l-72 100l-71 -100h-81z" />
    <glyph glyph-name="kcommaaccent.smcp" unicode="&#xe268;" horiz-adv-x="551" 
d="M435 0l-188 307l-100 -111v-196h-77v596h77v-303l272 303h95l-212 -235l221 -361h-88zM266 -254h-53l41 204h71z" />
    <glyph glyph-name="kcommaaccent.smcp" unicode="&#xf64f;" horiz-adv-x="551" 
d="M435 0l-188 307l-100 -111v-196h-77v596h77v-303l272 303h95l-212 -235l221 -361h-88zM266 -254h-53l41 204h71z" />
    <glyph glyph-name="lacute.smcp" unicode="&#xe26b;" horiz-adv-x="447" 
d="M70 0v596h77v-522h253v-74h-330zM67 654l117 162h100l-145 -162h-72z" />
    <glyph glyph-name="lacute.smcp" unicode="&#xf650;" horiz-adv-x="447" 
d="M70 0v596h77v-522h253v-74h-330zM67 654l117 162h100l-145 -162h-72z" />
    <glyph glyph-name="lcommaaccent.smcp" unicode="&#xe26d;" horiz-adv-x="447" 
d="M70 0v596h77v-522h253v-74h-330zM215 -254h-53l41 204h71z" />
    <glyph glyph-name="lcommaaccent.smcp" unicode="&#xf652;" horiz-adv-x="447" 
d="M70 0v596h77v-522h253v-74h-330zM215 -254h-53l41 204h71z" />
    <glyph glyph-name="ldot.smcp" unicode="&#xe271;" horiz-adv-x="447" 
d="M70 0v596h77v-522h253v-74h-330zM322 254v139h77v-139h-77z" />
    <glyph glyph-name="ldot.smcp" unicode="&#xf634;" horiz-adv-x="447" 
d="M70 0v596h77v-522h253v-74h-330zM322 254v139h77v-139h-77z" />
    <glyph glyph-name="lslash.smcp" unicode="&#xe272;" horiz-adv-x="470" 
d="M17 194v67l76 35v300h77v-265l174 81v-68l-174 -80v-190h253v-74h-330v229z" />
    <glyph glyph-name="lslash.smcp" unicode="&#xf6f9;" horiz-adv-x="470" 
d="M17 194v67l76 35v300h77v-265l174 81v-68l-174 -80v-190h253v-74h-330v229z" />
    <glyph glyph-name="nacute.smcp" unicode="&#xe276;" horiz-adv-x="629" 
d="M70 0v596h86l326 -471v471h77v-596h-82l-330 476v-476h-77zM280 646l117 162h100l-145 -162h-72z" />
    <glyph glyph-name="nacute.smcp" unicode="&#xf653;" horiz-adv-x="629" 
d="M70 0v596h86l326 -471v471h77v-596h-82l-330 476v-476h-77zM280 646l117 162h100l-145 -162h-72z" />
    <glyph glyph-name="ntilde.smcp" unicode="&#xe279;" horiz-adv-x="629" 
d="M70 0v596h86l326 -471v471h77v-596h-82l-330 476v-476h-77zM145 654c0 73 41 120 99 120c33 0 57 -13 81 -27c22 -14 42 -28 63 -28c24 0 39 17 39 52h62c0 -74 -35 -121 -100 -121c-38 0 -66 18 -91 33c-19 11 -33 22 -54 22c-23 0 -37 -16 -37 -51h-62z" />
    <glyph glyph-name="ncaron.smcp" unicode="&#xe27a;" horiz-adv-x="629" 
d="M70 0v596h86l326 -471v471h77v-596h-82l-330 476v-476h-77zM284 646l-119 162h80l71 -100l72 100h80l-119 -162h-65z" />
    <glyph glyph-name="ncaron.smcp" unicode="&#xf654;" horiz-adv-x="629" 
d="M70 0v596h86l326 -471v471h77v-596h-82l-330 476v-476h-77zM284 646l-119 162h80l71 -100l72 100h80l-119 -162h-65z" />
    <glyph glyph-name="ncommaaccent.smcp" unicode="&#xe27d;" horiz-adv-x="629" 
d="M70 0v596h86l326 -471v471h77v-596h-82l-330 476v-476h-77zM303 -254h-53l41 204h71z" />
    <glyph glyph-name="ncommaaccent.smcp" unicode="&#xf655;" horiz-adv-x="629" 
d="M70 0v596h86l326 -471v471h77v-596h-82l-330 476v-476h-77zM303 -254h-53l41 204h71z" />
    <glyph glyph-name="oacute.smcp" unicode="&#xe281;" horiz-adv-x="707" 
d="M303 654l117 162h100l-145 -162h-72zM353 -8c-169 0 -305 137 -305 306s136 306 305 306s306 -137 306 -306s-137 -306 -306 -306zM353 64c128 0 226 105 226 234c0 128 -98 234 -226 234s-226 -106 -226 -234c0 -129 98 -234 226 -234z" />
    <glyph glyph-name="oacute.smcp" unicode="&#xf7f3;" horiz-adv-x="707" 
d="M303 654l117 162h100l-145 -162h-72zM353 -8c-169 0 -305 137 -305 306s136 306 305 306s306 -137 306 -306s-137 -306 -306 -306zM353 64c128 0 226 105 226 234c0 128 -98 234 -226 234s-226 -106 -226 -234c0 -129 98 -234 226 -234z" />
    <glyph glyph-name="ograve.smcp" unicode="&#xe282;" horiz-adv-x="707" 
d="M353 -8c-169 0 -305 137 -305 306s136 306 305 306s306 -137 306 -306s-137 -306 -306 -306zM353 64c128 0 226 105 226 234c0 128 -98 234 -226 234s-226 -106 -226 -234c0 -129 98 -234 226 -234zM317 654l-145 162h99l118 -162h-72z" />
    <glyph glyph-name="ograve.smcp" unicode="&#xf7f2;" horiz-adv-x="707" 
d="M353 -8c-169 0 -305 137 -305 306s136 306 305 306s306 -137 306 -306s-137 -306 -306 -306zM353 64c128 0 226 105 226 234c0 128 -98 234 -226 234s-226 -106 -226 -234c0 -129 98 -234 226 -234zM317 654l-145 162h99l118 -162h-72z" />
    <glyph glyph-name="ocircumflex.smcp" unicode="&#xe283;" horiz-adv-x="707" 
d="M353 -8c-169 0 -305 137 -305 306s136 306 305 306s306 -137 306 -306s-137 -306 -306 -306zM353 64c128 0 226 105 226 234c0 128 -98 234 -226 234s-226 -106 -226 -234c0 -129 98 -234 226 -234zM201 650l119 162h66l119 -162h-80l-72 100l-71 -100h-81z" />
    <glyph glyph-name="ocircumflex.smcp" unicode="&#xf7f4;" horiz-adv-x="707" 
d="M353 -8c-169 0 -305 137 -305 306s136 306 305 306s306 -137 306 -306s-137 -306 -306 -306zM353 64c128 0 226 105 226 234c0 128 -98 234 -226 234s-226 -106 -226 -234c0 -129 98 -234 226 -234zM201 650l119 162h66l119 -162h-80l-72 100l-71 -100h-81z" />
    <glyph glyph-name="odieresis.smcp" unicode="&#xe284;" horiz-adv-x="707" 
d="M384 660v139h77v-139h-77zM250 660v139h77v-139h-77zM353 -8c-169 0 -305 137 -305 306s136 306 305 306s306 -137 306 -306s-137 -306 -306 -306zM353 64c128 0 226 105 226 234c0 128 -98 234 -226 234s-226 -106 -226 -234c0 -129 98 -234 226 -234z" />
    <glyph glyph-name="odieresis.smcp" unicode="&#xf7f6;" horiz-adv-x="707" 
d="M384 660v139h77v-139h-77zM250 660v139h77v-139h-77zM353 -8c-169 0 -305 137 -305 306s136 306 305 306s306 -137 306 -306s-137 -306 -306 -306zM353 64c128 0 226 105 226 234c0 128 -98 234 -226 234s-226 -106 -226 -234c0 -129 98 -234 226 -234z" />
    <glyph glyph-name="otilde.smcp" unicode="&#xe285;" horiz-adv-x="707" 
d="M353 -8c-169 0 -305 137 -305 306s136 306 305 306s306 -137 306 -306s-137 -306 -306 -306zM353 64c128 0 226 105 226 234c0 128 -98 234 -226 234s-226 -106 -226 -234c0 -129 98 -234 226 -234zM182 654c0 73 41 120 99 120c33 0 57 -13 81 -27c22 -14 42 -28 63 -28
c24 0 39 17 39 52h62c0 -74 -35 -121 -100 -121c-38 0 -66 18 -91 33c-19 11 -33 22 -54 22c-23 0 -37 -16 -37 -51h-62z" />
    <glyph glyph-name="otilde.smcp" unicode="&#xf7f5;" horiz-adv-x="707" 
d="M353 -8c-169 0 -305 137 -305 306s136 306 305 306s306 -137 306 -306s-137 -306 -306 -306zM353 64c128 0 226 105 226 234c0 128 -98 234 -226 234s-226 -106 -226 -234c0 -129 98 -234 226 -234zM182 654c0 73 41 120 99 120c33 0 57 -13 81 -27c22 -14 42 -28 63 -28
c24 0 39 17 39 52h62c0 -74 -35 -121 -100 -121c-38 0 -66 18 -91 33c-19 11 -33 22 -54 22c-23 0 -37 -16 -37 -51h-62z" />
    <glyph glyph-name="obreve.smcp" unicode="&#xe288;" horiz-adv-x="707" 
d="M353 -8c-169 0 -305 137 -305 306s136 306 305 306s306 -137 306 -306s-137 -306 -306 -306zM353 64c128 0 226 105 226 234c0 128 -98 234 -226 234s-226 -106 -226 -234c0 -129 98 -234 226 -234zM352 653c-110 0 -161 74 -161 163h66c0 -63 33 -104 95 -105
c60 1 94 42 94 105h68c0 -89 -62 -163 -162 -163z" />
    <glyph glyph-name="obreve.smcp" unicode="&#xf635;" horiz-adv-x="707" 
d="M353 -8c-169 0 -305 137 -305 306s136 306 305 306s306 -137 306 -306s-137 -306 -306 -306zM353 64c128 0 226 105 226 234c0 128 -98 234 -226 234s-226 -106 -226 -234c0 -129 98 -234 226 -234zM352 653c-110 0 -161 74 -161 163h66c0 -63 33 -104 95 -105
c60 1 94 42 94 105h68c0 -89 -62 -163 -162 -163z" />
    <glyph glyph-name="omacron.smcp" unicode="&#xe287;" horiz-adv-x="707" 
d="M222 654v67h264v-67h-264zM353 -8c-169 0 -305 137 -305 306s136 306 305 306s306 -137 306 -306s-137 -306 -306 -306zM353 64c128 0 226 105 226 234c0 128 -98 234 -226 234s-226 -106 -226 -234c0 -129 98 -234 226 -234z" />
    <glyph glyph-name="omacron.smcp" unicode="&#xf657;" horiz-adv-x="707" 
d="M222 654v67h264v-67h-264zM353 -8c-169 0 -305 137 -305 306s136 306 305 306s306 -137 306 -306s-137 -306 -306 -306zM353 64c128 0 226 105 226 234c0 128 -98 234 -226 234s-226 -106 -226 -234c0 -129 98 -234 226 -234z" />
    <glyph glyph-name="ohungarumlaut.smcp" unicode="&#xe28a;" horiz-adv-x="707" 
d="M242 654l117 162h94l-145 -162h-66zM384 654l118 162h94l-145 -162h-67zM353 -8c-169 0 -305 137 -305 306s136 306 305 306s306 -137 306 -306s-137 -306 -306 -306zM353 64c128 0 226 105 226 234c0 128 -98 234 -226 234s-226 -106 -226 -234c0 -129 98 -234 226 -234
z" />
    <glyph glyph-name="ohungarumlaut.smcp" unicode="&#xf656;" horiz-adv-x="707" 
d="M242 654l117 162h94l-145 -162h-66zM384 654l118 162h94l-145 -162h-67zM353 -8c-169 0 -305 137 -305 306s136 306 305 306s306 -137 306 -306s-137 -306 -306 -306zM353 64c128 0 226 105 226 234c0 128 -98 234 -226 234s-226 -106 -226 -234c0 -129 98 -234 226 -234
z" />
    <glyph glyph-name="oslash.smcp" unicode="&#xe295;" horiz-adv-x="707" 
d="M353 -8c-58 0 -111 16 -157 43l-28 -35h-91l62 79c-57 56 -91 133 -91 219c0 169 136 306 305 306c58 0 112 -17 159 -45l29 37h90l-63 -81c56 -55 91 -132 91 -217c0 -169 -137 -306 -306 -306zM126 298c0 -61 23 -116 60 -158l279 359c-33 19 -71 30 -112 30
c-128 0 -227 -105 -227 -231zM353 67c128 0 227 104 227 231c0 59 -22 114 -59 156l-279 -359c33 -18 70 -28 111 -28z" />
    <glyph glyph-name="oslash.smcp" unicode="&#xf7f8;" horiz-adv-x="707" 
d="M353 -8c-58 0 -111 16 -157 43l-28 -35h-91l62 79c-57 56 -91 133 -91 219c0 169 136 306 305 306c58 0 112 -17 159 -45l29 37h90l-63 -81c56 -55 91 -132 91 -217c0 -169 -137 -306 -306 -306zM126 298c0 -61 23 -116 60 -158l279 359c-33 19 -71 30 -112 30
c-128 0 -227 -105 -227 -231zM353 67c128 0 227 104 227 231c0 59 -22 114 -59 156l-279 -359c33 -18 70 -28 111 -28z" />
    <glyph glyph-name="oslashacute.smcp" unicode="&#xe296;" horiz-adv-x="709" 
d="M354 -8c-58 0 -111 16 -157 43l-28 -35h-91l62 79c-57 56 -91 133 -91 219c0 169 136 306 305 306c58 0 112 -17 159 -45l29 37h90l-63 -81c56 -55 91 -132 91 -217c0 -169 -137 -306 -306 -306zM127 298c0 -61 23 -116 60 -158l279 359c-33 19 -71 30 -112 30
c-128 0 -227 -105 -227 -231zM354 67c128 0 227 104 227 231c0 59 -22 114 -59 156l-279 -359c33 -18 70 -28 111 -28zM307 654l117 162h100l-145 -162h-72z" />
    <glyph glyph-name="oslashacute.smcp" unicode="&#xf627;" horiz-adv-x="709" 
d="M354 -8c-58 0 -111 16 -157 43l-28 -35h-91l62 79c-57 56 -91 133 -91 219c0 169 136 306 305 306c58 0 112 -17 159 -45l29 37h90l-63 -81c56 -55 91 -132 91 -217c0 -169 -137 -306 -306 -306zM127 298c0 -61 23 -116 60 -158l279 359c-33 19 -71 30 -112 30
c-128 0 -227 -105 -227 -231zM354 67c128 0 227 104 227 231c0 59 -22 114 -59 156l-279 -359c33 -18 70 -28 111 -28zM307 654l117 162h100l-145 -162h-72z" />
    <glyph glyph-name="oe.smcp" unicode="&#xe298;" horiz-adv-x="994" 
d="M579 0v103c-52 -68 -131 -111 -226 -111c-169 0 -305 137 -305 306s136 306 305 306c95 0 174 -44 226 -112v104h359v-72h-282v-189h282v-72h-282v-190h282v-73h-359zM353 64c125 0 221 100 226 224v10c0 128 -98 234 -226 234s-226 -106 -226 -234
c0 -129 98 -234 226 -234z" />
    <glyph glyph-name="oe.smcp" unicode="&#xf6fa;" horiz-adv-x="994" 
d="M579 0v103c-52 -68 -131 -111 -226 -111c-169 0 -305 137 -305 306s136 306 305 306c95 0 174 -44 226 -112v104h359v-72h-282v-189h282v-72h-282v-190h282v-73h-359zM353 64c125 0 221 100 226 224v10c0 128 -98 234 -226 234s-226 -106 -226 -234
c0 -129 98 -234 226 -234z" />
    <glyph glyph-name="thorn.smcp" unicode="&#xe32d;" horiz-adv-x="532" 
d="M75 0v596h77v-120h145c109 0 186 -78 186 -178c0 -101 -77 -179 -187 -179h-144v-119h-77zM293 404h-141v-212h141c69 0 112 47 112 106s-43 106 -112 106z" />
    <glyph glyph-name="thorn.smcp" unicode="&#xf7fe;" horiz-adv-x="532" 
d="M75 0v596h77v-120h145c109 0 186 -78 186 -178c0 -101 -77 -179 -187 -179h-144v-119h-77zM293 404h-141v-212h141c69 0 112 47 112 106s-43 106 -112 106z" />
    <glyph glyph-name="racute.smcp" unicode="&#xe29a;" horiz-adv-x="511" 
d="M70 0v596h185c122 0 207 -85 207 -193c0 -81 -50 -157 -138 -180l146 -223h-92l-178 279h45c89 0 137 65 137 124c0 71 -42 121 -131 121h-102v-524h-79zM204 654l117 162h100l-145 -162h-72z" />
    <glyph glyph-name="racute.smcp" unicode="&#xf658;" horiz-adv-x="511" 
d="M70 0v596h185c122 0 207 -85 207 -193c0 -81 -50 -157 -138 -180l146 -223h-92l-178 279h45c89 0 137 65 137 124c0 71 -42 121 -131 121h-102v-524h-79zM204 654l117 162h100l-145 -162h-72z" />
    <glyph glyph-name="rcaron.smcp" unicode="&#xe29b;" horiz-adv-x="511" 
d="M70 0v596h185c122 0 207 -85 207 -193c0 -81 -50 -157 -138 -180l146 -223h-92l-178 279h45c89 0 137 65 137 124c0 71 -42 121 -131 121h-102v-524h-79zM234 654l-119 162h80l71 -100l72 100h80l-119 -162h-65z" />
    <glyph glyph-name="rcaron.smcp" unicode="&#xf659;" horiz-adv-x="511" 
d="M70 0v596h185c122 0 207 -85 207 -193c0 -81 -50 -157 -138 -180l146 -223h-92l-178 279h45c89 0 137 65 137 124c0 71 -42 121 -131 121h-102v-524h-79zM234 654l-119 162h80l71 -100l72 100h80l-119 -162h-65z" />
    <glyph glyph-name="rcommaaccent.smcp" unicode="&#xe29e;" horiz-adv-x="511" 
d="M70 0v596h185c122 0 207 -85 207 -193c0 -81 -50 -157 -138 -180l146 -223h-92l-178 279h45c89 0 137 65 137 124c0 71 -42 121 -131 121h-102v-524h-79zM239 -254h-53l41 204h71z" />
    <glyph glyph-name="rcommaaccent.smcp" unicode="&#xf65a;" horiz-adv-x="511" 
d="M70 0v596h185c122 0 207 -85 207 -193c0 -81 -50 -157 -138 -180l146 -223h-92l-178 279h45c89 0 137 65 137 124c0 71 -42 121 -131 121h-102v-524h-79zM239 -254h-53l41 204h71z" />
    <glyph glyph-name="sacute.smcp" unicode="&#xe302;" horiz-adv-x="478" 
d="M190 654l117 162h100l-145 -162h-72zM238 -8c-99 0 -167 45 -216 108l68 53c35 -57 85 -89 147 -89c68 0 115 45 115 103c0 67 -67 86 -139 110c-81 27 -167 59 -167 168c0 91 81 159 186 159c87 0 145 -33 190 -88l-63 -48c-28 45 -70 68 -126 68
c-63 0 -107 -38 -107 -90c0 -65 63 -83 137 -108c81 -27 169 -60 169 -171c0 -90 -75 -175 -194 -175z" />
    <glyph glyph-name="sacute.smcp" unicode="&#xf65b;" horiz-adv-x="478" 
d="M190 654l117 162h100l-145 -162h-72zM238 -8c-99 0 -167 45 -216 108l68 53c35 -57 85 -89 147 -89c68 0 115 45 115 103c0 67 -67 86 -139 110c-81 27 -167 59 -167 168c0 91 81 159 186 159c87 0 145 -33 190 -88l-63 -48c-28 45 -70 68 -126 68
c-63 0 -107 -38 -107 -90c0 -65 63 -83 137 -108c81 -27 169 -60 169 -171c0 -90 -75 -175 -194 -175z" />
    <glyph glyph-name="scircumflex.smcp" unicode="&#xe303;" horiz-adv-x="478" 
d="M238 -8c-99 0 -167 45 -216 108l68 53c35 -57 85 -89 147 -89c68 0 115 45 115 103c0 67 -67 86 -139 110c-81 27 -167 59 -167 168c0 91 81 159 186 159c87 0 145 -33 190 -88l-63 -48c-28 45 -70 68 -126 68c-63 0 -107 -38 -107 -90c0 -65 63 -83 137 -108
c81 -27 169 -60 169 -171c0 -90 -75 -175 -194 -175zM79 653l119 162h66l119 -162h-80l-72 100l-71 -100h-81z" />
    <glyph glyph-name="scircumflex.smcp" unicode="&#xf636;" horiz-adv-x="478" 
d="M238 -8c-99 0 -167 45 -216 108l68 53c35 -57 85 -89 147 -89c68 0 115 45 115 103c0 67 -67 86 -139 110c-81 27 -167 59 -167 168c0 91 81 159 186 159c87 0 145 -33 190 -88l-63 -48c-28 45 -70 68 -126 68c-63 0 -107 -38 -107 -90c0 -65 63 -83 137 -108
c81 -27 169 -60 169 -171c0 -90 -75 -175 -194 -175zM79 653l119 162h66l119 -162h-80l-72 100l-71 -100h-81z" />
    <glyph glyph-name="scaron.smcp" unicode="&#xe304;" horiz-adv-x="478" 
d="M238 -8c-99 0 -167 45 -216 108l68 53c35 -57 85 -89 147 -89c68 0 115 45 115 103c0 67 -67 86 -139 110c-81 27 -167 59 -167 168c0 91 81 159 186 159c87 0 145 -33 190 -88l-63 -48c-28 45 -70 68 -126 68c-63 0 -107 -38 -107 -90c0 -65 63 -83 137 -108
c81 -27 169 -60 169 -171c0 -90 -75 -175 -194 -175zM204 654l-119 162h80l71 -100l72 100h80l-119 -162h-65z" />
    <glyph glyph-name="scaron.smcp" unicode="&#xf6fd;" horiz-adv-x="478" 
d="M238 -8c-99 0 -167 45 -216 108l68 53c35 -57 85 -89 147 -89c68 0 115 45 115 103c0 67 -67 86 -139 110c-81 27 -167 59 -167 168c0 91 81 159 186 159c87 0 145 -33 190 -88l-63 -48c-28 45 -70 68 -126 68c-63 0 -107 -38 -107 -90c0 -65 63 -83 137 -108
c81 -27 169 -60 169 -171c0 -90 -75 -175 -194 -175zM204 654l-119 162h80l71 -100l72 100h80l-119 -162h-65z" />
    <glyph glyph-name="scedilla.smcp" unicode="&#xe306;" horiz-adv-x="478" 
d="M229 -234c-63 0 -110 22 -146 56l61 37c25 -20 46 -36 85 -36c38 0 68 18 68 41s-25 36 -71 36h-41v97c-71 12 -124 52 -163 103l68 53c35 -57 85 -89 147 -89c68 0 115 45 115 103c0 67 -67 86 -139 110c-81 27 -167 59 -167 168c0 91 81 159 186 159
c87 0 145 -33 190 -88l-63 -48c-28 45 -70 68 -126 68c-63 0 -107 -38 -107 -90c0 -65 63 -83 137 -108c81 -27 169 -60 169 -171c0 -87 -70 -169 -182 -175v-44c71 0 119 -34 119 -81c0 -59 -64 -101 -140 -101z" />
    <glyph glyph-name="scedilla.smcp" unicode="&#xf65c;" horiz-adv-x="478" 
d="M229 -234c-63 0 -110 22 -146 56l61 37c25 -20 46 -36 85 -36c38 0 68 18 68 41s-25 36 -71 36h-41v97c-71 12 -124 52 -163 103l68 53c35 -57 85 -89 147 -89c68 0 115 45 115 103c0 67 -67 86 -139 110c-81 27 -167 59 -167 168c0 91 81 159 186 159
c87 0 145 -33 190 -88l-63 -48c-28 45 -70 68 -126 68c-63 0 -107 -38 -107 -90c0 -65 63 -83 137 -108c81 -27 169 -60 169 -171c0 -87 -70 -169 -182 -175v-44c71 0 119 -34 119 -81c0 -59 -64 -101 -140 -101z" />
    <glyph glyph-name="scommaaccent.smcp" unicode="&#xe305;" horiz-adv-x="478" 
d="M211 -254h-53l41 204h71zM238 -8c-99 0 -167 45 -216 108l68 53c35 -57 85 -89 147 -89c68 0 115 45 115 103c0 67 -67 86 -139 110c-81 27 -167 59 -167 168c0 91 81 159 186 159c87 0 145 -33 190 -88l-63 -48c-28 45 -70 68 -126 68c-63 0 -107 -38 -107 -90
c0 -65 63 -83 137 -108c81 -27 169 -60 169 -171c0 -90 -75 -175 -194 -175z" />
    <glyph glyph-name="scommaaccent.smcp" unicode="&#xf65d;" horiz-adv-x="478" 
d="M211 -254h-53l41 204h71zM238 -8c-99 0 -167 45 -216 108l68 53c35 -57 85 -89 147 -89c68 0 115 45 115 103c0 67 -67 86 -139 110c-81 27 -167 59 -167 168c0 91 81 159 186 159c87 0 145 -33 190 -88l-63 -48c-28 45 -70 68 -126 68c-63 0 -107 -38 -107 -90
c0 -65 63 -83 137 -108c81 -27 169 -60 169 -171c0 -90 -75 -175 -194 -175z" />
    <glyph glyph-name="tcommaaccent.smcp" unicode="&#xe30a;" horiz-adv-x="511" 
d="M231 -254h-53l41 204h71zM217 0v522h-174v74h425v-74h-173v-522h-78z" />
    <glyph glyph-name="tcommaaccent.smcp" unicode="&#xf65f;" horiz-adv-x="511" 
d="M231 -254h-53l41 204h71zM217 0v522h-174v74h425v-74h-173v-522h-78z" />
    <glyph glyph-name="uacute.smcp" unicode="&#xe30e;" horiz-adv-x="537" 
d="M213 644l117 162h100l-145 -162h-72zM268 -8c-118 0 -203 76 -203 202v402h77v-406c0 -77 51 -126 127 -126c74 0 126 49 126 126v406h77v-402c0 -126 -86 -202 -204 -202z" />
    <glyph glyph-name="uacute.smcp" unicode="&#xf7fa;" horiz-adv-x="537" 
d="M213 644l117 162h100l-145 -162h-72zM268 -8c-118 0 -203 76 -203 202v402h77v-406c0 -77 51 -126 127 -126c74 0 126 49 126 126v406h77v-402c0 -126 -86 -202 -204 -202z" />
    <glyph glyph-name="ugrave.smcp" unicode="&#xe30f;" horiz-adv-x="537" 
d="M268 -8c-118 0 -203 76 -203 202v402h77v-406c0 -77 51 -126 127 -126c74 0 126 49 126 126v406h77v-402c0 -126 -86 -202 -204 -202zM234 644l-145 162h99l118 -162h-72z" />
    <glyph glyph-name="ugrave.smcp" unicode="&#xf7f9;" horiz-adv-x="537" 
d="M268 -8c-118 0 -203 76 -203 202v402h77v-406c0 -77 51 -126 127 -126c74 0 126 49 126 126v406h77v-402c0 -126 -86 -202 -204 -202zM234 644l-145 162h99l118 -162h-72z" />
    <glyph glyph-name="ucircumflex.smcp" unicode="&#xe300;" horiz-adv-x="537" 
d="M268 -8c-118 0 -203 76 -203 202v402h77v-406c0 -77 51 -126 127 -126c74 0 126 49 126 126v406h77v-402c0 -126 -86 -202 -204 -202zM111 654l119 162h66l119 -162h-80l-72 100l-71 -100h-81z" />
    <glyph glyph-name="ucircumflex.smcp" unicode="&#xf7fb;" horiz-adv-x="537" 
d="M268 -8c-118 0 -203 76 -203 202v402h77v-406c0 -77 51 -126 127 -126c74 0 126 49 126 126v406h77v-402c0 -126 -86 -202 -204 -202zM111 654l119 162h66l119 -162h-80l-72 100l-71 -100h-81z" />
    <glyph glyph-name="udieresis.smcp" unicode="&#xe311;" horiz-adv-x="537" 
d="M298 661v139h77v-139h-77zM164 661v139h77v-139h-77zM268 -8c-118 0 -203 76 -203 202v402h77v-406c0 -77 51 -126 127 -126c74 0 126 49 126 126v406h77v-402c0 -126 -86 -202 -204 -202z" />
    <glyph glyph-name="udieresis.smcp" unicode="&#xf7fc;" horiz-adv-x="537" 
d="M298 661v139h77v-139h-77zM164 661v139h77v-139h-77zM268 -8c-118 0 -203 76 -203 202v402h77v-406c0 -77 51 -126 127 -126c74 0 126 49 126 126v406h77v-402c0 -126 -86 -202 -204 -202z" />
    <glyph glyph-name="utilde.smcp" unicode="&#xe312;" horiz-adv-x="537" 
d="M268 -8c-118 0 -203 76 -203 202v402h77v-406c0 -77 51 -126 127 -126c74 0 126 49 126 126v406h77v-402c0 -126 -86 -202 -204 -202zM93 654c0 73 41 120 99 120c33 0 57 -13 81 -27c22 -14 42 -28 63 -28c24 0 39 17 39 52h62c0 -74 -35 -121 -100 -121
c-38 0 -66 18 -91 33c-19 11 -33 22 -54 22c-23 0 -37 -16 -37 -51h-62z" />
    <glyph glyph-name="utilde.smcp" unicode="&#xf639;" horiz-adv-x="537" 
d="M268 -8c-118 0 -203 76 -203 202v402h77v-406c0 -77 51 -126 127 -126c74 0 126 49 126 126v406h77v-402c0 -126 -86 -202 -204 -202zM93 654c0 73 41 120 99 120c33 0 57 -13 81 -27c22 -14 42 -28 63 -28c24 0 39 17 39 52h62c0 -74 -35 -121 -100 -121
c-38 0 -66 18 -91 33c-19 11 -33 22 -54 22c-23 0 -37 -16 -37 -51h-62z" />
    <glyph glyph-name="uring.smcp" unicode="&#xe313;" horiz-adv-x="537" 
d="M265 641c-58 0 -106 48 -106 107c0 61 48 108 106 108c61 0 109 -47 109 -108c0 -59 -48 -107 -109 -107zM265 701c27 0 49 21 49 47s-22 49 -49 49c-25 0 -47 -23 -47 -49s22 -47 47 -47zM268 -8c-118 0 -203 76 -203 202v402h77v-406c0 -77 51 -126 127 -126
c74 0 126 49 126 126v406h77v-402c0 -126 -86 -202 -204 -202z" />
    <glyph glyph-name="uring.smcp" unicode="&#xf663;" horiz-adv-x="537" 
d="M265 641c-58 0 -106 48 -106 107c0 61 48 108 106 108c61 0 109 -47 109 -108c0 -59 -48 -107 -109 -107zM265 701c27 0 49 21 49 47s-22 49 -49 49c-25 0 -47 -23 -47 -49s22 -47 47 -47zM268 -8c-118 0 -203 76 -203 202v402h77v-406c0 -77 51 -126 127 -126
c74 0 126 49 126 126v406h77v-402c0 -126 -86 -202 -204 -202z" />
    <glyph glyph-name="ubreve.smcp" unicode="&#xe316;" horiz-adv-x="537" 
d="M268 -8c-118 0 -203 76 -203 202v402h77v-406c0 -77 51 -126 127 -126c74 0 126 49 126 126v406h77v-402c0 -126 -86 -202 -204 -202zM269 642c-110 0 -161 74 -161 163h66c0 -63 33 -104 95 -105c60 1 94 42 94 105h68c0 -89 -62 -163 -162 -163z" />
    <glyph glyph-name="ubreve.smcp" unicode="&#xf638;" horiz-adv-x="537" 
d="M268 -8c-118 0 -203 76 -203 202v402h77v-406c0 -77 51 -126 127 -126c74 0 126 49 126 126v406h77v-402c0 -126 -86 -202 -204 -202zM269 642c-110 0 -161 74 -161 163h66c0 -63 33 -104 95 -105c60 1 94 42 94 105h68c0 -89 -62 -163 -162 -163z" />
    <glyph glyph-name="umacron.smcp" unicode="&#xe315;" horiz-adv-x="537" 
d="M268 -8c-118 0 -203 76 -203 202v402h77v-406c0 -77 51 -126 127 -126c74 0 126 49 126 126v406h77v-402c0 -126 -86 -202 -204 -202zM137 654v67h264v-67h-264z" />
    <glyph glyph-name="umacron.smcp" unicode="&#xf661;" horiz-adv-x="537" 
d="M268 -8c-118 0 -203 76 -203 202v402h77v-406c0 -77 51 -126 127 -126c74 0 126 49 126 126v406h77v-402c0 -126 -86 -202 -204 -202zM137 654v67h264v-67h-264z" />
    <glyph glyph-name="uhungarumlaut.smcp" unicode="&#xe318;" horiz-adv-x="537" 
d="M268 -8c-118 0 -203 76 -203 202v402h77v-406c0 -77 51 -126 127 -126c74 0 126 49 126 126v406h77v-402c0 -126 -86 -202 -204 -202zM144 646l117 162h94l-145 -162h-66zM286 646l118 162h94l-145 -162h-67z" />
    <glyph glyph-name="uhungarumlaut.smcp" unicode="&#xf660;" horiz-adv-x="537" 
d="M268 -8c-118 0 -203 76 -203 202v402h77v-406c0 -77 51 -126 127 -126c74 0 126 49 126 126v406h77v-402c0 -126 -86 -202 -204 -202zM144 646l117 162h94l-145 -162h-66zM286 646l118 162h94l-145 -162h-67z" />
    <glyph glyph-name="uogonek.smcp" unicode="&#xe31b;" horiz-adv-x="537" 
d="M292 -208c-80 0 -135 45 -135 101c0 35 16 69 64 104c-93 17 -156 88 -156 197v402h77v-406c0 -77 51 -126 127 -126c74 0 126 49 126 126v406h77v-402c0 -91 -45 -156 -114 -185l2 -1c-101 -61 -125 -82 -125 -111c0 -27 25 -41 57 -41c33 0 53 16 74 34l61 -42
c-34 -30 -86 -56 -135 -56z" />
    <glyph glyph-name="uogonek.smcp" unicode="&#xf662;" horiz-adv-x="537" 
d="M292 -208c-80 0 -135 45 -135 101c0 35 16 69 64 104c-93 17 -156 88 -156 197v402h77v-406c0 -77 51 -126 127 -126c74 0 126 49 126 126v406h77v-402c0 -91 -45 -156 -114 -185l2 -1c-101 -61 -125 -82 -125 -111c0 -27 25 -41 57 -41c33 0 53 16 74 34l61 -42
c-34 -30 -86 -56 -135 -56z" />
    <glyph glyph-name="wacute.smcp" unicode="&#xe31d;" horiz-adv-x="874" 
d="M200 0l-170 596h82l131 -475l152 475h74l152 -481l144 481h79l-183 -596h-79l-150 474l-152 -474h-80zM395 654l117 162h100l-145 -162h-72z" />
    <glyph glyph-name="wacute.smcp" unicode="&#xf63a;" horiz-adv-x="874" 
d="M200 0l-170 596h82l131 -475l152 475h74l152 -481l144 481h79l-183 -596h-79l-150 474l-152 -474h-80zM395 654l117 162h100l-145 -162h-72z" />
    <glyph glyph-name="wgrave.smcp" unicode="&#xe31e;" horiz-adv-x="874" 
d="M200 0l-170 596h82l131 -475l152 475h74l152 -481l144 481h79l-183 -596h-79l-150 474l-152 -474h-80zM397 654l-145 162h99l118 -162h-72z" />
    <glyph glyph-name="wgrave.smcp" unicode="&#xf63d;" horiz-adv-x="874" 
d="M200 0l-170 596h82l131 -475l152 475h74l152 -481l144 481h79l-183 -596h-79l-150 474l-152 -474h-80zM397 654l-145 162h99l118 -162h-72z" />
    <glyph glyph-name="wcircumflex.smcp" unicode="&#xe31f;" horiz-adv-x="874" 
d="M200 0l-170 596h82l131 -475l152 475h74l152 -481l144 481h79l-183 -596h-79l-150 474l-152 -474h-80zM280 648l119 162h66l119 -162h-80l-72 100l-71 -100h-81z" />
    <glyph glyph-name="wcircumflex.smcp" unicode="&#xf63b;" horiz-adv-x="874" 
d="M200 0l-170 596h82l131 -475l152 475h74l152 -481l144 481h79l-183 -596h-79l-150 474l-152 -474h-80zM280 648l119 162h66l119 -162h-80l-72 100l-71 -100h-81z" />
    <glyph glyph-name="wdieresis.smcp" unicode="&#xe310;" horiz-adv-x="874" 
d="M200 0l-170 596h82l131 -475l152 475h74l152 -481l144 481h79l-183 -596h-79l-150 474l-152 -474h-80zM331 661v139h77v-139h-77zM465 661v139h77v-139h-77z" />
    <glyph glyph-name="wdieresis.smcp" unicode="&#xf63c;" horiz-adv-x="874" 
d="M200 0l-170 596h82l131 -475l152 475h74l152 -481l144 481h79l-183 -596h-79l-150 474l-152 -474h-80zM331 661v139h77v-139h-77zM465 661v139h77v-139h-77z" />
    <glyph glyph-name="yacute.smcp" unicode="&#xe321;" horiz-adv-x="523" 
d="M223 0v281l-196 315h85l148 -241l150 241h86l-196 -315v-281h-77zM214 646l117 162h100l-145 -162h-72z" />
    <glyph glyph-name="yacute.smcp" unicode="&#xf7fd;" horiz-adv-x="523" 
d="M223 0v281l-196 315h85l148 -241l150 241h86l-196 -315v-281h-77zM214 646l117 162h100l-145 -162h-72z" />
    <glyph glyph-name="ygrave.smcp" unicode="&#xe322;" horiz-adv-x="536" 
d="M230 0v281l-196 315h85l148 -241l150 241h86l-196 -315v-281h-77zM237 646l-145 162h99l118 -162h-72z" />
    <glyph glyph-name="ygrave.smcp" unicode="&#xf63f;" horiz-adv-x="536" 
d="M230 0v281l-196 315h85l148 -241l150 241h86l-196 -315v-281h-77zM237 646l-145 162h99l118 -162h-72z" />
    <glyph glyph-name="ycircumflex.smcp" unicode="&#xe323;" horiz-adv-x="523" 
d="M223 0v281l-196 315h85l148 -241l150 241h86l-196 -315v-281h-77zM106 653l119 162h66l119 -162h-80l-72 100l-71 -100h-81z" />
    <glyph glyph-name="ycircumflex.smcp" unicode="&#xf63e;" horiz-adv-x="523" 
d="M223 0v281l-196 315h85l148 -241l150 241h86l-196 -315v-281h-77zM106 653l119 162h66l119 -162h-80l-72 100l-71 -100h-81z" />
    <glyph glyph-name="ydieresis.smcp" unicode="&#xe324;" horiz-adv-x="523" 
d="M223 0v281l-196 315h85l148 -241l150 241h86l-196 -315v-281h-77zM157 653v139h77v-139h-77zM291 653v139h77v-139h-77z" />
    <glyph glyph-name="ydieresis.smcp" unicode="&#xf7ff;" horiz-adv-x="523" 
d="M223 0v281l-196 315h85l148 -241l150 241h86l-196 -315v-281h-77zM157 653v139h77v-139h-77zM291 653v139h77v-139h-77z" />
    <glyph glyph-name="zacute.smcp" unicode="&#xe328;" horiz-adv-x="492" 
d="M47 0v72l303 450h-293v74h385v-71l-303 -450h303v-75h-395zM192 654l117 162h100l-145 -162h-72z" />
    <glyph glyph-name="zacute.smcp" unicode="&#xf664;" horiz-adv-x="492" 
d="M47 0v72l303 450h-293v74h385v-71l-303 -450h303v-75h-395zM192 654l117 162h100l-145 -162h-72z" />
    <glyph glyph-name="zcaron.smcp" unicode="&#xe329;" horiz-adv-x="492" 
d="M47 0v72l303 450h-293v74h385v-71l-303 -450h303v-75h-395zM214 654l-119 162h80l71 -100l72 100h80l-119 -162h-65z" />
    <glyph glyph-name="zcaron.smcp" unicode="&#xf6ff;" horiz-adv-x="492" 
d="M47 0v72l303 450h-293v74h385v-71l-303 -450h303v-75h-395zM214 654l-119 162h80l71 -100l72 100h80l-119 -162h-65z" />
    <glyph glyph-name="zdotaccent.smcp" unicode="&#xe32a;" horiz-adv-x="492" 
d="M47 0v72l303 450h-293v74h385v-71l-303 -450h303v-75h-395zM215 661v139h77v-139h-77z" />
    <glyph glyph-name="zdotaccent.smcp" unicode="&#xf665;" horiz-adv-x="492" 
d="M47 0v72l303 450h-293v74h385v-71l-303 -450h303v-75h-395zM215 661v139h77v-139h-77z" />
    <glyph glyph-name="one.LT" unicode="&#xe541;" 
d="M42 0v75h208v501c-21 -31 -74 -47 -119 -47h-12v81h5c96 0 129 68 129 120h75v-655h218v-75h-504z" />
    <glyph glyph-name="two.LT" unicode="&#xe542;" 
d="M60 0v77c0 115 102 190 199 259c89 64 181 122 181 202c0 77 -56 132 -149 132c-75 0 -133 -44 -166 -107l-68 36c41 81 129 141 233 141c139 0 230 -92 230 -203c0 -112 -106 -184 -202 -252c-90 -63 -176 -123 -176 -208v-2h392v-75h-474z" />
    <glyph glyph-name="three.LT" unicode="&#xe543;" 
d="M286 -9c-114 0 -190 37 -247 107l62 51c45 -56 101 -88 185 -88c104 0 170 62 170 142c0 85 -78 139 -177 139h-71v74h71c95 0 159 48 159 126s-59 128 -156 128c-64 0 -137 -33 -169 -81l-64 45c45 59 137 106 235 106c149 0 231 -83 231 -198c0 -75 -39 -131 -105 -162
c76 -31 124 -91 124 -177c0 -124 -93 -212 -248 -212z" />
    <glyph glyph-name="four.LT" unicode="&#xe544;" 
d="M363 0v168h-321v72l320 490h79v-491h105v-71h-105v-168h-78zM127 239h236v361z" />
    <glyph glyph-name="five.LT" unicode="&#xe545;" 
d="M296 -10c-110 0 -198 53 -242 131l73 47c32 -59 85 -105 169 -105c97 0 166 68 166 170c0 112 -85 172 -170 172c-68 0 -120 -30 -153 -75l-78 25l56 375h374v-74h-308l-35 -228c36 29 85 49 144 49c127 0 249 -78 249 -244c0 -145 -101 -243 -245 -243z" />
    <glyph glyph-name="six.LT" unicode="&#xe546;" 
d="M294 -10c-143 0 -247 108 -247 242c0 61 21 122 53 167l216 331h94l-172 -263c21 5 43 8 67 8c133 0 236 -104 236 -243c0 -137 -108 -242 -247 -242zM293 61c94 0 172 77 172 171c0 96 -78 172 -172 172s-170 -76 -170 -171c0 -94 76 -172 170 -172z" />
    <glyph glyph-name="seven.LT" unicode="&#xe547;" 
d="M157 0l301 655h-416v75h504v-68l-304 -662h-85z" />
    <glyph glyph-name="eight.LT" unicode="&#xe548;" 
d="M294 -10c-162 0 -246 92 -246 216c0 77 44 143 115 180c-59 35 -93 92 -93 160c0 111 88 194 224 194c133 0 226 -83 226 -194c0 -68 -37 -125 -96 -160c71 -37 116 -103 116 -180c0 -124 -90 -216 -246 -216zM294 61c109 0 171 66 171 145c0 77 -58 144 -171 144
s-171 -67 -171 -144c0 -79 62 -145 171 -145zM294 420c103 0 153 55 153 126c0 69 -53 125 -153 125c-97 0 -152 -56 -152 -125c0 -71 49 -126 152 -126z" />
    <glyph glyph-name="nine.LT" unicode="&#xe549;" 
d="M272 0h-94l172 263c-21 -6 -44 -8 -67 -8c-133 0 -236 104 -236 243c0 137 108 242 247 242c143 0 247 -108 247 -242c0 -61 -21 -122 -53 -167zM295 326c94 0 170 76 170 171c0 94 -76 172 -170 172s-172 -77 -172 -171c0 -96 78 -172 172 -172z" />
    <glyph glyph-name="zero.LT" unicode="&#xe53f;" 
d="M293 61c103 0 155 63 155 160v281c0 106 -53 167 -153 167c-103 0 -155 -67 -155 -167v-280c0 -100 50 -161 153 -161zM294 -10c-152 0 -232 91 -232 231v281c0 137 93 238 232 238c143 0 232 -104 232 -238v-281c0 -143 -84 -231 -232 -231z" />
    <glyph glyph-name="copyright.LT" unicode="&#xf465;" 
d="M294 -10c-152 0 -232 91 -232 231v281c0 137 93 238 232 238c143 0 232 -104 232 -238v-281c0 -143 -84 -231 -232 -231zM293 61c103 0 155 63 155 160v281c0 106 -53 167 -153 167c-103 0 -155 -67 -155 -167v-280c0 -100 50 -161 153 -161zM294 111
c-66 0 -108 44 -108 106v294c0 61 44 108 108 108c66 0 108 -48 108 -108v-112h-79v107c0 15 -12 28 -29 28s-29 -13 -29 -28v-291c0 -17 12 -28 29 -28s29 11 29 28v126h79v-124c0 -63 -44 -106 -108 -106z" />
    <glyph glyph-name="registered.LT" unicode="&#xf470;" 
d="M294 -10c-152 0 -232 91 -232 231v281c0 137 93 238 232 238c143 0 232 -104 232 -238v-281c0 -143 -84 -231 -232 -231zM293 61c103 0 155 63 155 160v281c0 106 -53 167 -153 167c-103 0 -155 -67 -155 -167v-280c0 -100 50 -161 153 -161zM191 116v498h110
c76 0 103 -40 103 -108v-82c0 -31 -10 -52 -26 -67c15 -15 23 -35 23 -60v-162c0 -9 2 -15 8 -19h-77c-6 2 -10 6 -10 16v156c0 23 -10 36 -34 36h-18v-208h-79zM293 542h-23v-146h18c24 0 37 11 37 40v70c0 25 -7 36 -32 36z" />
    <glyph glyph-name="dollar.LT" unicode="&#xf466;" 
d="M547 200c0 -98 -80 -192 -208 -207v-113h-78v112c-104 8 -170 52 -226 119l59 55c43 -58 91 -95 168 -103v296c-93 32 -198 75 -198 193c0 100 73 175 197 186v102h78v-103c92 -10 152 -50 197 -110l-63 -47c-30 47 -72 79 -135 89v-259c97 -34 209 -76 209 -210z
M467 199c0 75 -60 109 -129 134v-269c81 13 129 66 129 135zM143 552c0 -62 55 -92 119 -116v235c-75 -10 -119 -56 -119 -119z" />
    <glyph glyph-name="cent.LT" unicode="&#xf464;" 
d="M273 -130v123c-132 19 -226 126 -226 257c0 135 98 238 226 257v123h78v-123c92 -12 169 -68 202 -146l-70 -30c-31 69 -92 109 -170 109c-105 0 -188 -85 -188 -190s84 -190 192 -190c83 0 142 50 170 116l71 -30c-36 -82 -107 -142 -207 -154v-122h-78z" />
    <glyph glyph-name="sterling.LT" unicode="&#xf471;" 
d="M60 342v63h95c-23 38 -41 82 -41 142c0 113 91 193 198 193c98 0 159 -46 201 -109l-67 -42c-35 54 -73 79 -137 79c-59 0 -116 -48 -116 -121c0 -55 22 -99 49 -142h225v-63h-186c28 -47 52 -99 52 -167c0 -21 -4 -43 -11 -63c30 -28 57 -51 87 -51c29 0 38 16 38 48v92
h79v-89c0 -97 -52 -122 -121 -122c-42 0 -79 29 -114 62c-28 -37 -70 -62 -124 -62c-78 0 -126 46 -126 107s45 105 111 105c46 0 83 -18 115 -42v11c0 74 -32 123 -67 171h-140zM166 51c38 0 65 15 81 41c-29 26 -59 47 -91 47c-29 0 -46 -19 -46 -45c0 -28 24 -43 56 -43z
" />
    <glyph glyph-name="Euro.LT" unicode="&#xf467;" 
d="M29 443v62h63c1 135 94 235 232 235c74 0 135 -28 175 -74l-53 -49c-26 34 -66 52 -121 52c-102 0 -154 -66 -155 -164h260l-11 -62h-249v-156h224l-10 -62h-214v-3c0 -100 50 -161 153 -161c59 0 102 21 127 57l60 -49c-39 -50 -102 -79 -186 -79
c-152 0 -232 91 -232 231v4h-63v62h63v156h-63z" />
    <glyph glyph-name="yen.LT" unicode="&#xf472;" 
d="M89 310v64h167v11l-218 345h87l170 -271l169 271h87l-217 -344v-12h165v-64h-165v-110h165v-64h-165v-136h-78v136h-167v64h167v110h-167z" />
    <glyph glyph-name="florin.LT" unicode="&#xf468;" 
d="M112 340v69h160l42 127c47 150 107 194 209 194h6v-71c-67 0 -105 -27 -137 -130l-40 -120h142v-69h-164l-48 -146c-47 -147 -91 -194 -216 -194h-7v72c84 0 111 27 145 130l45 138h-137z" />
    <glyph glyph-name="percent.LT" unicode="&#xf469;" 
d="M27 0l444 730h89l-444 -730h-89zM184 496c-68 0 -122 55 -122 122c0 68 54 122 122 122c67 0 122 -54 122 -122c0 -67 -55 -122 -122 -122zM184 573c25 0 45 20 45 45s-20 45 -45 45s-45 -20 -45 -45s20 -45 45 -45zM404 -11c-68 0 -122 55 -122 122c0 68 54 122 122 122
c67 0 122 -54 122 -122c0 -67 -55 -122 -122 -122zM404 66c25 0 45 20 45 45s-20 45 -45 45s-45 -20 -45 -45s20 -45 45 -45z" />
    <glyph glyph-name="period.T" unicode="&#xf182;" horiz-adv-x="294" 
d="M103 0v137h78v-137h-78z" />
    <glyph glyph-name="comma.T" unicode="&#xf183;" horiz-adv-x="294" 
d="M101 -117l41 204h83l-62 -204h-62z" />
    <glyph glyph-name="Lcaron" unicode="&#x13d;" horiz-adv-x="533" 
d="M72 0v730h78v-655h326v-75h-404zM292 546l41 184h71l-59 -184h-53z" />
    <glyph glyph-name="caronSlovak" unicode="&#xe413;" horiz-adv-x="498" 
d="M203 536l41 184h71l-59 -184h-53z" />
    <glyph glyph-name="dcaron" unicode="&#x10f;" horiz-adv-x="668" 
d="M304 -10c-147 0 -256 117 -256 260s107 260 256 260c64 0 140 -32 183 -91v311h75v-730h-74v82c-43 -60 -120 -92 -184 -92zM308 60c107 0 187 85 187 190c0 104 -80 190 -187 190c-102 0 -182 -85 -182 -190s80 -190 182 -190zM629 546l41 184h71l-59 -184h-53z" />
    <glyph glyph-name="lcaron" unicode="&#x13e;" horiz-adv-x="246" 
d="M62 0v730h78v-730h-78zM207 546l41 184h71l-59 -184h-53z" />
    <glyph glyph-name="tcaron" unicode="&#x165;" horiz-adv-x="363" 
d="M34 430v70h86v118l78 43v-161h118v-70h-118v-238c0 -102 19 -119 118 -119v-73h-11c-146 0 -185 42 -185 191v239h-86zM250 556l41 184h71l-59 -184h-53z" />
    <glyph glyph-name="fi" unicode="&#xe38c;" horiz-adv-x="524" 
d="M36 430v70h86v39c0 149 43 191 190 191h7v-71c-106 0 -119 -19 -119 -121v-38h119v-70h-119v-430h-78v430h-86zM384 0v500h78v-500h-78zM384 587v143h78v-143h-78z" />
    <glyph glyph-name="fi" unicode="&#xfb01;" horiz-adv-x="524" 
d="M36 430v70h86v39c0 149 43 191 190 191h7v-71c-106 0 -119 -19 -119 -121v-38h119v-70h-119v-430h-78v430h-86zM384 0v500h78v-500h-78zM384 587v143h78v-143h-78z" />
    <glyph glyph-name="fl" unicode="&#xe38d;" horiz-adv-x="524" 
d="M36 430v70h86v39c0 149 43 191 190 191h7v-71c-106 0 -119 -19 -119 -121v-38h119v-70h-119v-430h-78v430h-86zM384 0v730h78v-730h-78z" />
    <glyph glyph-name="fl" unicode="&#xfb02;" horiz-adv-x="524" 
d="M36 430v70h86v39c0 149 43 191 190 191h7v-71c-106 0 -119 -19 -119 -121v-38h119v-70h-119v-430h-78v430h-86zM384 0v730h78v-730h-78z" />
    <glyph glyph-name="dcaron.smcp" unicode="&#xe239;" horiz-adv-x="595" 
d="M70 0v596h166c189 0 311 -129 311 -298c0 -170 -131 -298 -308 -298h-169zM229 524h-82v-451h85c140 0 235 97 235 225c0 130 -87 226 -238 226zM236 654l-119 162h80l71 -100l72 100h80l-119 -162h-65z" />
    <glyph glyph-name="dcaron.smcp" unicode="&#xf645;" horiz-adv-x="595" 
d="M70 0v596h166c189 0 311 -129 311 -298c0 -170 -131 -298 -308 -298h-169zM229 524h-82v-451h85c140 0 235 97 235 225c0 130 -87 226 -238 226zM236 654l-119 162h80l71 -100l72 100h80l-119 -162h-65z" />
    <glyph glyph-name="lcaron.smcp" unicode="&#xe26c;" horiz-adv-x="447" 
d="M70 0v596h77v-522h253v-74h-330zM299 412l41 184h71l-59 -184h-53z" />
    <glyph glyph-name="lcaron.smcp" unicode="&#xf651;" horiz-adv-x="447" 
d="M70 0v596h77v-522h253v-74h-330zM299 412l41 184h71l-59 -184h-53z" />
    <glyph glyph-name="tcaron.smcp" unicode="&#xe309;" horiz-adv-x="511" 
d="M217 0v522h-174v74h425v-74h-173v-522h-78zM223 654l-119 162h80l71 -100l72 100h80l-119 -162h-65z" />
    <glyph glyph-name="tcaron.smcp" unicode="&#xf65e;" horiz-adv-x="511" 
d="M217 0v522h-174v74h425v-74h-173v-522h-78zM223 654l-119 162h80l71 -100l72 100h80l-119 -162h-65z" />
    <glyph glyph-name="Anocross" unicode="&#xe731;" horiz-adv-x="705" 
d="M34 0l276 730h84l277 -730h-81l-238 625l-236 -625h-82z" />
    <glyph glyph-name="Eng" unicode="&#x14a;" horiz-adv-x="739" 
d="M460 -219v75h21c84 0 108 34 108 125v19l-439 611v-611h-78v730h87l430 -599v599h78v-750c0 -128 -46 -199 -179 -199h-28z" />
    <glyph glyph-name="Tbar" unicode="&#x166;" horiz-adv-x="609" 
d="M172 377v72h94v209h-220v72h517v-72h-219v-209h92v-72h-92v-377h-78v377h-94z" />
    <glyph glyph-name="IJ" unicode="&#x132;" horiz-adv-x="577" 
d="M235 0v73h94c72 0 108 39 108 127v530h78v-531c0 -128 -58 -199 -182 -199h-98zM62 0v730h78v-730h-78z" />
    <glyph glyph-name="idotaccent" unicode="&#xe785;" horiz-adv-x="212" 
d="M67 0v500h78v-500h-78zM67 587v143h78v-143h-78z" />
    <glyph glyph-name="kgreenlandic" unicode="&#x138;" horiz-adv-x="536" 
d="M419 0l-174 242l-101 -103v-139h-76v500h76v-272l266 272h98l-207 -212l208 -288h-90z" />
    <glyph glyph-name="eng" unicode="&#x14b;" horiz-adv-x="595" 
d="M331 -229v74c100 0 121 16 121 118v315c0 97 -50 162 -150 162c-91 0 -158 -72 -158 -163v-277h-77v500h76v-74c35 51 95 84 170 84c134 0 217 -88 217 -232v-316c0 -149 -44 -191 -187 -191h-12z" />
    <glyph glyph-name="tbar" unicode="&#x167;" horiz-adv-x="363" 
d="M34 430v70h86v118l78 43v-161h118v-70h-118v-136h114v-67h-114v-35c0 -102 19 -119 118 -119v-73h-11c-146 0 -185 42 -185 191v36h-72v67h72v136h-86z" />
    <glyph glyph-name="ij" unicode="&#x133;" horiz-adv-x="384" 
d="M67 -229v74h52c100 0 120 16 120 118v537h78v-538c0 -146 -46 -191 -186 -191h-64zM67 0v500h78v-500h-78zM67 587v143h78v-143h-78zM239 587v143h78v-143h-78z" />
    <glyph glyph-name="A" unicode="A" horiz-adv-x="705" 
d="M34 0l276 730h84l277 -730h-81l-71 185h-333l-70 -185h-82zM352 625l-138 -366h277z" />
    <glyph glyph-name="cordinal" unicode="&#xe181;" horiz-adv-x="391" 
d="M203 435c-83 0 -150 67 -150 150c0 84 67 151 150 151c56 0 105 -31 131 -75l-50 -29c-15 28 -45 48 -81 48c-53 0 -93 -42 -93 -95c0 -52 40 -94 93 -94c40 0 69 21 84 52l51 -27c-26 -48 -74 -81 -135 -81z" />
    <glyph glyph-name="ordfeminine.alt" unicode="&#xe926;" horiz-adv-x="379" 
d="M161 435c-65 0 -109 29 -109 83c0 53 37 83 123 101c45 9 89 17 89 34c0 20 -20 35 -66 35c-49 0 -76 -19 -76 -49v-2h-63v1c0 58 55 98 138 98c88 0 128 -40 128 -97v-198h-58v38c-26 -27 -60 -44 -106 -44zM162 485c55 0 93 42 106 67v47c-14 -11 -46 -18 -81 -27
c-55 -14 -73 -27 -73 -53c0 -19 21 -34 48 -34z" />
    <glyph glyph-name="anocross.smcp" unicode="&#xe220;" horiz-adv-x="581" 
d="M28 0l221 596h82l222 -596h-80l-182 492l-182 -492h-81z" />
    <glyph glyph-name="idotaccent.smcp" unicode="&#xe262;" horiz-adv-x="229" 
d="M75 0v596h79v-596h-79zM75 653v139h77v-139h-77z" />
    <glyph glyph-name="idotaccent.smcp" unicode="&#xf666;" horiz-adv-x="229" 
d="M75 0v596h79v-596h-79zM75 653v139h77v-139h-77z" />
    <glyph glyph-name="eng.smcp" unicode="&#xe32b;" horiz-adv-x="629" 
d="M360 -229v74c100 0 121 13 121 118v31l-334 482v-476h-77v596h86l326 -471v471h77v-634c0 -149 -44 -191 -187 -191h-12z" />
    <glyph glyph-name="eng.smcp" unicode="&#xf62b;" horiz-adv-x="629" 
d="M360 -229v74c100 0 121 13 121 118v31l-334 482v-476h-77v596h86l326 -471v471h77v-634c0 -149 -44 -191 -187 -191h-12z" />
    <glyph glyph-name="tbar.smcp" unicode="&#xe30d;" horiz-adv-x="511" 
d="M398 265h-103v-265h-78v265h-104v74h104v183h-174v74h425v-74h-173v-183h103v-74z" />
    <glyph glyph-name="tbar.smcp" unicode="&#xf637;" horiz-adv-x="511" 
d="M398 265h-103v-265h-78v265h-104v74h104v183h-174v74h425v-74h-173v-183h103v-74z" />
    <glyph glyph-name="ij.smcp" unicode="&#xe327;" horiz-adv-x="459" 
d="M218 0v72h21c68 0 81 34 81 93v431h77v-427c0 -111 -35 -169 -157 -169h-22zM62 0v596h79v-596h-79z" />
    <glyph glyph-name="ij.smcp" unicode="&#xf631;" horiz-adv-x="459" 
d="M218 0v72h21c68 0 81 34 81 93v431h77v-427c0 -111 -35 -169 -157 -169h-22zM62 0v596h79v-596h-79z" />
    <glyph glyph-name="uni2080" unicode="&#x2080;" horiz-adv-x="486" 
d="M243 -6c-120 0 -216 97 -216 217s96 217 216 217s216 -97 216 -217s-96 -217 -216 -217zM243 62c82 0 147 68 147 149c0 82 -65 149 -147 149s-146 -67 -146 -149c0 -81 64 -149 146 -149z" />
    <glyph glyph-name="uni2081" unicode="&#x2081;" horiz-adv-x="293" 
d="M32 0v67h84v245c-12 -19 -43 -33 -69 -33h-7v74h3c56 0 75 39 75 69h68v-355h80v-67h-234z" />
    <glyph glyph-name="uni2082" unicode="&#x2082;" horiz-adv-x="338" 
d="M35 0v66c0 71 59 114 112 151c44 31 85 57 85 94c0 31 -23 56 -65 56c-38 0 -63 -25 -79 -60l-60 30c25 55 73 91 139 91c84 0 136 -53 136 -118c0 -67 -55 -105 -107 -141c-46 -31 -90 -60 -90 -102h198v-67h-269z" />
    <glyph glyph-name="uni2083" unicode="&#x2083;" horiz-adv-x="321" 
d="M153 -6c-54 0 -100 18 -136 60l60 45c20 -28 45 -41 76 -41c41 0 70 25 70 63c0 39 -33 63 -80 63h-43v66h43c48 0 74 26 74 60s-27 57 -68 57c-34 0 -55 -17 -70 -43l-59 33c24 43 72 71 129 71c83 0 135 -46 135 -117c0 -40 -19 -72 -51 -92c37 -20 60 -53 60 -98
c0 -73 -51 -127 -140 -127z" />
    <glyph glyph-name="uni2084" unicode="&#x2084;" horiz-adv-x="379" 
d="M217 0v97h-185v64l182 261h72v-261h61v-64h-61v-97h-69zM108 161h109v155z" />
    <glyph glyph-name="uni2085" unicode="&#x2085;" horiz-adv-x="342" 
d="M171 -6c-71 0 -121 37 -143 79l64 39c14 -29 39 -53 80 -53c40 0 73 30 73 75s-32 77 -74 77c-37 0 -61 -19 -76 -47l-63 30l31 228h232v-66h-176l-14 -104c18 13 42 23 72 23c74 0 139 -49 139 -141c0 -83 -61 -140 -145 -140z" />
    <glyph glyph-name="uni2086" unicode="&#x2086;" horiz-adv-x="353" 
d="M177 -6c-87 0 -150 64 -150 145c0 39 12 78 32 107l113 176h82l-93 -142c9 2 19 4 29 4c76 0 137 -61 137 -145s-65 -145 -150 -145zM176 58c44 0 82 37 82 83c0 45 -38 81 -82 81c-45 0 -81 -36 -81 -82c0 -45 36 -82 81 -82z" />
    <glyph glyph-name="uni2087" unicode="&#x2087;" horiz-adv-x="327" 
d="M65 0l156 355h-190v67h264v-61l-155 -361h-75z" />
    <glyph glyph-name="uni2088" unicode="&#x2088;" horiz-adv-x="338" 
d="M169 -6c-84 0 -134 60 -134 130c0 43 22 78 54 99c-25 18 -41 46 -41 86c0 64 48 119 121 119c71 0 122 -55 122 -119c0 -39 -17 -67 -43 -85c31 -20 54 -55 54 -100c0 -70 -49 -130 -133 -130zM168 58c40 0 65 30 65 66s-24 66 -65 66c-39 0 -64 -30 -64 -66
s25 -66 64 -66zM168 255c32 0 52 22 52 54c0 29 -19 54 -52 54c-31 0 -50 -25 -50 -54c0 -32 19 -54 50 -54z" />
    <glyph glyph-name="uni2089" unicode="&#x2089;" horiz-adv-x="353" 
d="M98 0l94 143c-10 -3 -19 -4 -29 -4c-75 0 -137 60 -137 144c0 85 66 145 150 145c86 0 150 -64 150 -145c0 -38 -13 -78 -32 -107l-112 -176h-84zM177 200c45 0 81 38 81 83s-36 82 -81 82s-82 -37 -82 -83c0 -45 37 -82 82 -82z" />
    <glyph glyph-name="uni208A" unicode="&#x208a;" horiz-adv-x="281" 
d="M34 182v59h78v76h58v-76h77v-59h-77v-78h-58v78h-78z" />
    <glyph glyph-name="uni208B" unicode="&#x208b;" horiz-adv-x="281" 
d="M34 182v59h213v-59h-213z" />
    <glyph glyph-name="uni208C" unicode="&#x208c;" horiz-adv-x="281" 
d="M34 228v59h213v-59h-213zM34 132v59h213v-59h-213z" />
    <glyph glyph-name="uni208D" unicode="&#x208d;" horiz-adv-x="270" 
d="M181 -59c-98 68 -154 155 -154 278c0 126 60 211 152 278l46 -57c-73 -50 -126 -117 -126 -221c0 -102 54 -170 127 -220z" />
    <glyph glyph-name="uni208E" unicode="&#x208e;" horiz-adv-x="270" 
d="M89 -59l-45 58c73 50 127 118 127 220c0 104 -53 171 -126 221l46 57c92 -69 152 -152 152 -278c0 -123 -56 -210 -154 -278z" />
    <glyph glyph-name="ordmasculine.smcp" unicode="&#xe352;" horiz-adv-x="406" 
d="M203 435c-83 0 -150 67 -150 150c0 84 67 151 150 151c84 0 150 -67 150 -151c0 -83 -66 -150 -150 -150zM203 492c52 0 92 42 92 93c0 52 -40 95 -92 95c-51 0 -92 -43 -92 -95c0 -51 41 -93 92 -93z" />
    <glyph glyph-name="cordinal.smcp" unicode="&#xe353;" horiz-adv-x="391" 
d="M203 435c-83 0 -150 67 -150 150c0 84 67 151 150 151c56 0 105 -31 131 -75l-50 -29c-15 28 -45 48 -81 48c-53 0 -93 -42 -93 -95c0 -52 40 -94 93 -94c40 0 69 21 84 52l51 -27c-26 -48 -74 -81 -135 -81z" />
    <glyph glyph-name="ordfeminine.smcp" unicode="&#xe351;" horiz-adv-x="406" 
d="M59 440l113 290h63l114 -290h-62l-23 59h-121l-23 -59h-61zM203 656l-39 -101h78z" />
    <glyph glyph-name="altcedilla" unicode="&#xe416;" horiz-adv-x="498" 
d="M241 -234c-63 0 -105 16 -143 55l61 39c23 -21 43 -36 82 -36c38 0 68 16 68 40s-24 36 -73 36h-14v48h19c86 2 140 -31 140 -81c0 -59 -58 -101 -140 -101z" />
    <glyph glyph-name="dotbelow" unicode="&#xe415;" horiz-adv-x="504" 
d="M204 -184v139h77v-139h-77z" />
    <glyph glyph-name="invertedbreve" unicode="&#xe411;" horiz-adv-x="498" 
d="M87 557c0 89 51 163 161 163c100 0 162 -74 162 -163h-68c0 63 -34 104 -94 105c-62 -1 -95 -42 -95 -105h-66z" />
    <glyph glyph-name="doublegrave" unicode="&#xe412;" horiz-adv-x="498" 
d="M212 558l-135 162h92l108 -162h-65zM350 558l-135 162h92l108 -162h-65z" />
    <glyph glyph-name="doublebar" unicode="&#x2016;" horiz-adv-x="373" 
d="M62 -230v960h78v-960h-78zM233 -230v960h78v-960h-78z" />
    <glyph glyph-name="doublebar.cap" unicode="&#xe464;" horiz-adv-x="373" 
d="M62 -120v960h78v-960h-78zM233 -120v960h78v-960h-78z" />
    <glyph glyph-name="doublebar.smcp" unicode="&#xe46a;" horiz-adv-x="373" 
d="M62 -98v784h79v-784h-79zM233 -98v784h79v-784h-79z" />
    <glyph glyph-name="registered.cap" unicode="&#xe99c;" horiz-adv-x="847" 
d="M424 -10c-207 0 -375 168 -375 375s168 375 375 375s375 -168 375 -375s-168 -375 -375 -375zM424 59c171 0 300 138 300 306s-129 306 -300 306s-300 -138 -300 -306s129 -306 300 -306zM291 186v374h145c90 0 146 -57 146 -123c0 -56 -28 -106 -84 -123l83 -128h-85
l-106 175h35c46 0 81 28 81 73s-36 63 -80 63h-63v-311h-72z" />
    <glyph glyph-name="at.cap" unicode="&#xe513;" horiz-adv-x="845" 
d="M422 -11c-207 0 -373 167 -373 375c0 207 173 375 380 375c218 0 367 -162 367 -337c0 -112 -52 -208 -157 -208c-56 0 -93 24 -112 57c-26 -35 -72 -60 -132 -60c-85 0 -169 66 -157 182c14 121 101 178 180 178c50 0 89 -19 111 -48c4 37 4 42 4 42h76l-20 -181
c-8 -71 11 -97 56 -97c52 0 80 53 80 133c0 139 -117 269 -297 269c-168 0 -303 -137 -303 -305s129 -305 297 -305c85 0 160 35 215 91l56 -47c-64 -66 -161 -114 -271 -114zM410 260c62 0 101 53 106 113c7 59 -24 111 -84 111c-57 0 -108 -42 -114 -110
c-9 -62 32 -114 92 -114z" />
    <glyph glyph-name="at.smcp" unicode="&#xf60b;" horiz-adv-x="845" 
d="M422 -75c-207 0 -373 167 -373 375c0 207 173 375 380 375c218 0 367 -162 367 -337c0 -112 -52 -208 -157 -208c-56 0 -93 24 -112 57c-26 -35 -72 -60 -132 -60c-85 0 -169 66 -157 182c14 121 101 178 180 178c50 0 89 -19 111 -48c4 37 4 42 4 42h76l-20 -181
c-8 -71 11 -97 56 -97c52 0 80 53 80 133c0 139 -117 269 -297 269c-168 0 -303 -137 -303 -305s129 -305 297 -305c85 0 160 35 215 91l56 -47c-64 -66 -161 -114 -271 -114zM410 196c62 0 101 53 106 113c7 59 -24 111 -84 111c-57 0 -108 -42 -114 -110
c-9 -62 32 -114 92 -114z" />
    <glyph glyph-name="tripleprime" unicode="&#x2034;" horiz-adv-x="419" 
d="M81 500c-6 25 -22 99 -22 146v84h68v-84c0 -45 -16 -121 -22 -146h-24zM198 500c-6 25 -22 99 -22 146v84h68v-84c0 -45 -16 -121 -22 -146h-24zM315 500c-6 25 -22 99 -22 146v84h68v-84c0 -45 -16 -121 -22 -146h-24z" />
    <glyph glyph-name="servicemark" unicode="&#x2120;" horiz-adv-x="651" 
d="M278 440v290h53l106 -141l111 141h49v-290h-57v196l-103 -127l-103 128v-197h-56zM132 433c-48 0 -82 16 -105 49l51 37c13 -22 28 -35 53 -35c23 0 40 16 40 40c0 53 -132 23 -132 128c0 47 40 77 90 77c42 0 71 -16 93 -42l-51 -33c-10 16 -25 24 -44 24
c-22 0 -35 -12 -35 -27c0 -49 136 -23 136 -127c0 -50 -38 -91 -96 -91z" />
    <glyph glyph-name="uni20A1" unicode="&#x20a1;" horiz-adv-x="784" 
d="M191 -120h-65l75 183c-93 69 -152 178 -152 302c0 207 168 375 375 375c18 0 35 -1 52 -4l43 104h67l-49 -118c19 -6 37 -13 54 -22l58 140h67l-71 -173c42 -31 77 -70 104 -115l-67 -39c-17 31 -40 59 -67 82l-218 -530c9 -1 18 -1 27 -1c127 0 218 67 266 164l69 -36
c-63 -120 -183 -202 -335 -202c-19 0 -38 2 -56 5l-47 -115h-66l52 128c-19 6 -37 14 -54 23zM129 365c0 -91 39 -173 102 -229l216 529c-8 0 -15 1 -23 1c-168 0 -295 -136 -295 -301zM281 100c17 -9 36 -17 55 -23l227 554c-17 10 -35 17 -54 22z" />
    <glyph glyph-name="uni20A2" unicode="&#x20a2;" horiz-adv-x="784" 
d="M424 -10c-207 0 -375 168 -375 375s168 375 375 375c139 0 260 -76 325 -188l-67 -39c-50 91 -145 153 -258 153c-168 0 -295 -136 -295 -301c0 -149 104 -275 248 -298v343h77v-72c27 46 75 72 139 72h66v-72h-66c-101 0 -138 -53 -138 -169v-104c111 10 191 74 235 163
l69 -36c-63 -120 -183 -202 -335 -202z" />
    <glyph glyph-name="franc" unicode="&#x20a3;" horiz-adv-x="535" 
d="M62 0v730h413v-74h-335v-171h335v-72h-335v-96h335v-72h-335v-245h-78z" />
    <glyph glyph-name="anglebracketleft" unicode="&#x3008;" horiz-adv-x="368" 
d="M259 -230l-228 480l228 480h83l-228 -480l228 -480h-83z" />
    <glyph glyph-name="anglebracketright" unicode="&#x3009;" horiz-adv-x="368" 
d="M114 -230h-83l228 480l-228 480h83l228 -480z" />
    <glyph glyph-name="anglebracketleft.cap" unicode="&#xe497;" horiz-adv-x="368" 
d="M259 -120l-228 480l228 480h83l-228 -480l228 -480h-83z" />
    <glyph glyph-name="anglebracketright.cap" unicode="&#xe498;" horiz-adv-x="368" 
d="M114 -120h-83l228 480l-228 480h83l228 -480z" />
    <glyph glyph-name="lowline" unicode="&#xe511;" horiz-adv-x="573" 
d="M52 -167v67h470v-67h-470z" />
    <glyph glyph-name="lira" unicode="&#x20a4;" horiz-adv-x="679" 
d="M71 427v63h94c-3 16 -4 34 -4 53c0 120 83 197 208 197c99 0 160 -41 205 -99l-63 -48c-32 51 -72 79 -143 79c-78 0 -130 -51 -130 -128c0 -19 2 -37 5 -54h225v-63h-206c10 -25 21 -49 32 -72h174v-63h-146c14 -35 24 -72 24 -112c0 -25 -4 -48 -11 -70
c34 -31 68 -57 115 -57c65 0 97 34 97 128v20h79v-30c0 -121 -54 -181 -168 -181c-69 0 -113 31 -151 65c-30 -40 -76 -65 -134 -65c-93 0 -132 48 -132 109s46 107 121 107c50 0 87 -22 120 -48c0 6 1 12 1 18c0 42 -15 79 -33 116h-179v63h145c-12 22 -25 46 -34 72h-111z
M172 51c39 0 71 18 90 47c-29 26 -58 47 -97 47c-38 0 -56 -18 -56 -47c0 -28 25 -47 63 -47z" />
    <glyph glyph-name="uni20A6" unicode="&#x20a6;" horiz-adv-x="825" 
d="M35 399v61h80v270h84l191 -270h242v270h78v-270h80v-61h-80v-76h80v-61h-80v-262h-80l-186 262h-251v-262h-78v262h-80v61h80v76h-80zM193 399v-76h208l-54 76h-154zM434 399l54 -76h144v76h-198zM303 460l-110 155v-155h110zM531 262l101 -142v142h-101z" />
    <glyph glyph-name="peseta" unicode="&#x20a7;" horiz-adv-x="1279" 
d="M1036 0h-225c-146 0 -185 42 -185 191v239h-75c-21 -118 -121 -203 -261 -203h-150v-227h-78v730h228c151 0 255 -99 265 -230h71v118l78 43v-161h118v-70h-118v-238c0 -102 19 -119 118 -119h217c75 0 113 32 113 78c0 51 -62 60 -129 74c-80 16 -169 39 -169 141
c0 74 70 145 182 145c74 0 147 -27 190 -77l-57 -48c-34 38 -77 59 -133 59c-69 0 -106 -36 -106 -78c0 -51 63 -61 132 -76c81 -17 169 -40 169 -140c0 -82 -50 -151 -195 -151zM285 658h-145v-358h145c120 0 192 78 192 179c0 102 -72 179 -192 179z" />
    <glyph glyph-name="uni20A8" unicode="&#x20a8;" horiz-adv-x="985" 
d="M725 -12c-266 0 -398 151 -503 346h57c110 0 177 82 177 164c0 92 -67 160 -176 160h-140v-658h-78v730h224c143 0 248 -103 248 -232c0 -106 -71 -202 -188 -224c83 -122 194 -218 377 -218c98 0 138 42 138 88c0 53 -66 63 -135 79c-80 19 -166 45 -166 143
c0 74 70 145 182 145c74 0 147 -27 190 -77l-57 -48c-34 38 -77 59 -133 59c-69 0 -106 -36 -106 -78c0 -51 63 -63 131 -79c81 -19 170 -44 170 -144c0 -76 -55 -156 -212 -156z" />
    <glyph glyph-name="uni20A9" unicode="&#x20a9;" horiz-adv-x="1100" 
d="M35 399v61h97l-79 270h83l77 -270h209l90 270h75l88 -270h215l81 270h80l-83 -270h97v-61h-116l-24 -76h140v-61h-159l-80 -262h-79l-85 262h-228l-87 -262h-80l-77 262h-155v61h137l-22 76h-115zM479 399l-25 -76h188l-25 76h-138zM695 399l25 -76h129l23 76h-177z
M231 399l21 -76h125l25 76h-171zM548 608l-49 -148h98zM740 262l47 -143l43 143h-90zM270 262l40 -141l47 141h-87z" />
    <glyph glyph-name="uni20AA" unicode="&#x20aa;" horiz-adv-x="717" 
d="M62 0v730h198c146 0 224 -68 224 -246v-255c0 -59 -18 -82 -78 -82v337c0 124 -41 173 -143 173h-123v-657h-78zM233 0v570c60 0 78 -23 78 -82v-415h127c102 0 139 49 139 173v484h78v-484c0 -178 -74 -246 -220 -246h-202z" />
    <glyph glyph-name="uni20AE" unicode="&#x20ae;" horiz-adv-x="613" 
d="M130 341v61l138 56v200h-220v72h517v-72h-219v-168l137 57v-61l-137 -57v-84l137 57v-61l-137 -57v-284h-78v252l-138 -56v61l138 56v84z" />
    <glyph glyph-name="uni20B1" unicode="&#x20b1;" horiz-adv-x="715" 
d="M35 516v61h80v153h228c119 0 210 -62 247 -153h90v-61h-74c2 -12 3 -25 3 -37c0 -14 -1 -27 -3 -39h74v-61h-90c-38 -91 -128 -152 -247 -152h-150v-227h-78v379h-80v61h80v76h-80zM530 479c0 12 -2 25 -4 37h-333v-76h333c2 12 4 25 4 39zM338 658h-145v-81h310
c-31 49 -89 81 -165 81zM338 300c75 0 132 31 163 79h-308v-79h145z" />
    <glyph glyph-name="uni0E3F" unicode="&#xe3f;" horiz-adv-x="528" 
d="M62 66v596h166v68h68v-69c106 -5 174 -65 174 -159c0 -57 -26 -102 -76 -127c54 -25 85 -73 85 -139c0 -104 -73 -166 -183 -170v-66h-68v66h-166zM139 336v-199h89v199h-89zM402 237c0 56 -33 94 -106 98v-198c65 3 106 44 106 100zM139 591v-182h89v182h-89zM393 502
c0 50 -35 84 -97 88v-181c65 3 97 41 97 93z" />
    <glyph glyph-name="approxequal" unicode="&#x2248;" horiz-adv-x="460" 
d="M45 405v69c29 14 56 26 97 26c60 0 125 -38 177 -38c39 0 62 10 96 25v-69c-28 -16 -52 -25 -96 -25c-56 0 -126 38 -177 38c-40 0 -67 -12 -97 -26zM45 238v69c29 14 53 27 94 27c60 0 130 -37 182 -37c39 0 60 8 94 23v-69c-28 -16 -50 -23 -94 -23
c-56 0 -131 37 -182 37c-40 0 -64 -13 -94 -27z" />
    <glyph glyph-name="anglebracketleft.smcp" unicode="&#xe49f;" horiz-adv-x="337" 
d="M300 -98h-83l-186 392l186 392h83l-186 -392z" />
    <glyph glyph-name="anglebracketright.smcp" unicode="&#xe490;" horiz-adv-x="337" 
d="M123 -98h-83l186 392l-186 392h83l186 -392z" />
    <glyph glyph-name="slash" unicode="/" horiz-adv-x="482" 
d="M27 0l346 730h83l-346 -730h-83z" />
    <glyph glyph-name="backslash" unicode="\" horiz-adv-x="482" 
d="M373 0l-346 730h83l346 -730h-83z" />
    <glyph glyph-name="uni215F" unicode="&#x215f;" horiz-adv-x="752" 
d="M109 0l527 730h91l-527 -730h-91zM32 308v67h84v245c-12 -19 -43 -33 -69 -33h-7v74h3c56 0 75 39 75 69h68v-355h80v-67h-234z" />
    <glyph glyph-name="onehalf" unicode="&#xbd;" horiz-adv-x="846" 
d="M109 0l527 730h91l-527 -730h-91zM539 0v66c0 71 59 114 112 151c44 31 85 57 85 94c0 31 -23 56 -65 56c-38 0 -63 -25 -79 -60l-60 30c25 55 73 91 139 91c84 0 136 -53 136 -118c0 -67 -55 -105 -107 -141c-46 -31 -90 -60 -90 -102h198v-67h-269zM32 308v67h84v245
c-12 -19 -43 -33 -69 -33h-7v74h3c56 0 75 39 75 69h68v-355h80v-67h-234z" />
    <glyph glyph-name="uni2153" unicode="&#x2153;" horiz-adv-x="829" 
d="M109 0l527 730h91l-527 -730h-91zM661 -6c-54 0 -100 18 -136 60l60 45c20 -28 45 -41 76 -41c41 0 70 25 70 63c0 39 -33 63 -80 63h-43v66h43c48 0 74 26 74 60s-27 57 -68 57c-34 0 -55 -17 -70 -43l-59 33c24 43 72 71 129 71c83 0 135 -46 135 -117
c0 -40 -19 -72 -51 -92c37 -20 60 -53 60 -98c0 -73 -51 -127 -140 -127zM32 308v67h84v245c-12 -19 -43 -33 -69 -33h-7v74h3c56 0 75 39 75 69h68v-355h80v-67h-234z" />
    <glyph glyph-name="uni2154" unicode="&#x2154;" horiz-adv-x="829" 
d="M109 0l527 730h91l-527 -730h-91zM35 308v66c0 71 59 114 112 151c44 31 85 57 85 94c0 31 -23 56 -65 56c-38 0 -63 -25 -79 -60l-60 30c25 55 73 91 139 91c84 0 136 -53 136 -118c0 -67 -55 -105 -107 -141c-46 -31 -90 -60 -90 -102h198v-67h-269zM661 -6
c-54 0 -100 18 -136 60l60 45c20 -28 45 -41 76 -41c41 0 70 25 70 63c0 39 -33 63 -80 63h-43v66h43c48 0 74 26 74 60s-27 57 -68 57c-34 0 -55 -17 -70 -43l-59 33c24 43 72 71 129 71c83 0 135 -46 135 -117c0 -40 -19 -72 -51 -92c37 -20 60 -53 60 -98
c0 -73 -51 -127 -140 -127z" />
    <glyph glyph-name="onequarter" unicode="&#xbc;" horiz-adv-x="807" 
d="M645 0v97h-185v64l182 261h72v-261h61v-64h-61v-97h-69zM109 0l527 730h91l-527 -730h-91zM32 308v67h84v245c-12 -19 -43 -33 -69 -33h-7v74h3c56 0 75 39 75 69h68v-355h80v-67h-234zM536 161h109v155z" />
    <glyph glyph-name="threequarters" unicode="&#xbe;" horiz-adv-x="807" 
d="M645 0v97h-185v64l182 261h72v-261h61v-64h-61v-97h-69zM109 0l527 730h91l-527 -730h-91zM153 302c-54 0 -100 18 -136 60l60 45c20 -28 45 -41 76 -41c41 0 70 25 70 63c0 39 -33 63 -80 63h-43v66h43c48 0 74 26 74 60s-27 57 -68 57c-34 0 -55 -17 -70 -43l-59 33
c24 43 72 71 129 71c83 0 135 -46 135 -117c0 -40 -19 -72 -51 -92c37 -20 60 -53 60 -98c0 -73 -51 -127 -140 -127zM536 161h109v155z" />
    <glyph glyph-name="uni2155" unicode="&#x2155;" horiz-adv-x="850" 
d="M109 0l527 730h91l-527 -730h-91zM679 -6c-71 0 -121 37 -143 79l64 39c14 -29 39 -53 80 -53c40 0 73 30 73 75s-32 77 -74 77c-37 0 -61 -19 -76 -47l-63 30l31 228h232v-66h-176l-14 -104c18 13 42 23 72 23c74 0 139 -49 139 -141c0 -83 -61 -140 -145 -140zM32 308
v67h84v245c-12 -19 -43 -33 -69 -33h-7v74h3c56 0 75 39 75 69h68v-355h80v-67h-234z" />
    <glyph glyph-name="uni2156" unicode="&#x2156;" horiz-adv-x="850" 
d="M109 0l527 730h91l-527 -730h-91zM679 -6c-71 0 -121 37 -143 79l64 39c14 -29 39 -53 80 -53c40 0 73 30 73 75s-32 77 -74 77c-37 0 -61 -19 -76 -47l-63 30l31 228h232v-66h-176l-14 -104c18 13 42 23 72 23c74 0 139 -49 139 -141c0 -83 -61 -140 -145 -140zM35 308
v66c0 71 59 114 112 151c44 31 85 57 85 94c0 31 -23 56 -65 56c-38 0 -63 -25 -79 -60l-60 30c25 55 73 91 139 91c84 0 136 -53 136 -118c0 -67 -55 -105 -107 -141c-46 -31 -90 -60 -90 -102h198v-67h-269z" />
    <glyph glyph-name="uni2157" unicode="&#x2157;" horiz-adv-x="850" 
d="M109 0l527 730h91l-527 -730h-91zM679 -6c-71 0 -121 37 -143 79l64 39c14 -29 39 -53 80 -53c40 0 73 30 73 75s-32 77 -74 77c-37 0 -61 -19 -76 -47l-63 30l31 228h232v-66h-176l-14 -104c18 13 42 23 72 23c74 0 139 -49 139 -141c0 -83 -61 -140 -145 -140zM153 302
c-54 0 -100 18 -136 60l60 45c20 -28 45 -41 76 -41c41 0 70 25 70 63c0 39 -33 63 -80 63h-43v66h43c48 0 74 26 74 60s-27 57 -68 57c-34 0 -55 -17 -70 -43l-59 33c24 43 72 71 129 71c83 0 135 -46 135 -117c0 -40 -19 -72 -51 -92c37 -20 60 -53 60 -98
c0 -73 -51 -127 -140 -127z" />
    <glyph glyph-name="uni2158" unicode="&#x2158;" horiz-adv-x="850" 
d="M217 308v97h-185v64l182 261h72v-261h61v-64h-61v-97h-69zM109 0l527 730h91l-527 -730h-91zM679 -6c-71 0 -121 37 -143 79l64 39c14 -29 39 -53 80 -53c40 0 73 30 73 75s-32 77 -74 77c-37 0 -61 -19 -76 -47l-63 30l31 228h232v-66h-176l-14 -104c18 13 42 23 72 23
c74 0 139 -49 139 -141c0 -83 -61 -140 -145 -140zM108 469h109v155z" />
    <glyph glyph-name="uni2159" unicode="&#x2159;" horiz-adv-x="791" 
d="M615 -6c-87 0 -150 64 -150 145c0 39 12 78 32 107l113 176h82l-93 -142c9 2 19 4 29 4c76 0 137 -61 137 -145s-65 -145 -150 -145zM109 0l527 730h91l-527 -730h-91zM32 308v67h84v245c-12 -19 -43 -33 -69 -33h-7v74h3c56 0 75 39 75 69h68v-355h80v-67h-234zM614 58
c44 0 82 37 82 83c0 45 -38 81 -82 81c-45 0 -81 -36 -81 -82c0 -45 36 -82 81 -82z" />
    <glyph glyph-name="uni215A" unicode="&#x215a;" horiz-adv-x="791" 
d="M615 -6c-87 0 -150 64 -150 145c0 39 12 78 32 107l113 176h82l-93 -142c9 2 19 4 29 4c76 0 137 -61 137 -145s-65 -145 -150 -145zM109 0l527 730h91l-527 -730h-91zM171 302c-71 0 -121 37 -143 79l64 39c14 -29 39 -53 80 -53c40 0 73 30 73 75s-32 77 -74 77
c-37 0 -61 -19 -76 -47l-63 30l31 228h232v-66h-176l-14 -104c18 13 42 23 72 23c74 0 139 -49 139 -141c0 -83 -61 -140 -145 -140zM614 58c44 0 82 37 82 83c0 45 -38 81 -82 81c-45 0 -81 -36 -81 -82c0 -45 36 -82 81 -82z" />
    <glyph glyph-name="uni215B" unicode="&#x215b;" horiz-adv-x="846" 
d="M677 -6c-84 0 -134 60 -134 130c0 43 22 78 54 99c-25 18 -41 46 -41 86c0 64 48 119 121 119c71 0 122 -55 122 -119c0 -39 -17 -67 -43 -85c31 -20 54 -55 54 -100c0 -70 -49 -130 -133 -130zM109 0l527 730h91l-527 -730h-91zM32 308v67h84v245
c-12 -19 -43 -33 -69 -33h-7v74h3c56 0 75 39 75 69h68v-355h80v-67h-234zM676 58c40 0 65 30 65 66s-24 66 -65 66c-39 0 -64 -30 -64 -66s25 -66 64 -66zM676 255c32 0 52 22 52 54c0 29 -19 54 -52 54c-31 0 -50 -25 -50 -54c0 -32 19 -54 50 -54z" />
    <glyph glyph-name="uni215C" unicode="&#x215c;" horiz-adv-x="846" 
d="M677 -6c-84 0 -134 60 -134 130c0 43 22 78 54 99c-25 18 -41 46 -41 86c0 64 48 119 121 119c71 0 122 -55 122 -119c0 -39 -17 -67 -43 -85c31 -20 54 -55 54 -100c0 -70 -49 -130 -133 -130zM109 0l527 730h91l-527 -730h-91zM153 302c-54 0 -100 18 -136 60l60 45
c20 -28 45 -41 76 -41c41 0 70 25 70 63c0 39 -33 63 -80 63h-43v66h43c48 0 74 26 74 60s-27 57 -68 57c-34 0 -55 -17 -70 -43l-59 33c24 43 72 71 129 71c83 0 135 -46 135 -117c0 -40 -19 -72 -51 -92c37 -20 60 -53 60 -98c0 -73 -51 -127 -140 -127zM676 58
c40 0 65 30 65 66s-24 66 -65 66c-39 0 -64 -30 -64 -66s25 -66 64 -66zM676 255c32 0 52 22 52 54c0 29 -19 54 -52 54c-31 0 -50 -25 -50 -54c0 -32 19 -54 50 -54z" />
    <glyph glyph-name="uni215D" unicode="&#x215d;" horiz-adv-x="846" 
d="M677 -6c-84 0 -134 60 -134 130c0 43 22 78 54 99c-25 18 -41 46 -41 86c0 64 48 119 121 119c71 0 122 -55 122 -119c0 -39 -17 -67 -43 -85c31 -20 54 -55 54 -100c0 -70 -49 -130 -133 -130zM109 0l527 730h91l-527 -730h-91zM171 302c-71 0 -121 37 -143 79l64 39
c14 -29 39 -53 80 -53c40 0 73 30 73 75s-32 77 -74 77c-37 0 -61 -19 -76 -47l-63 30l31 228h232v-66h-176l-14 -104c18 13 42 23 72 23c74 0 139 -49 139 -141c0 -83 -61 -140 -145 -140zM676 58c40 0 65 30 65 66s-24 66 -65 66c-39 0 -64 -30 -64 -66s25 -66 64 -66z
M676 255c32 0 52 22 52 54c0 29 -19 54 -52 54c-31 0 -50 -25 -50 -54c0 -32 19 -54 50 -54z" />
    <glyph glyph-name="uni215E" unicode="&#x215e;" horiz-adv-x="766" 
d="M597 -6c-84 0 -134 60 -134 130c0 43 22 78 54 99c-25 18 -41 46 -41 86c0 64 48 119 121 119c71 0 122 -55 122 -119c0 -39 -17 -67 -43 -85c31 -20 54 -55 54 -100c0 -70 -49 -130 -133 -130zM29 0l527 730h91l-527 -730h-91zM65 308l156 355h-190v67h264v-61
l-155 -361h-75zM596 58c40 0 65 30 65 66s-24 66 -65 66c-39 0 -64 -30 -64 -66s25 -66 64 -66zM596 255c32 0 52 22 52 54c0 29 -19 54 -52 54c-31 0 -50 -25 -50 -54c0 -32 19 -54 50 -54z" />
    <glyph glyph-name="uni207A" unicode="&#x207a;" horiz-adv-x="281" 
d="M34 490v59h78v76h58v-76h77v-59h-77v-78h-58v78h-78z" />
    <glyph glyph-name="uni207B" unicode="&#x207b;" horiz-adv-x="281" 
d="M34 490v59h213v-59h-213z" />
    <glyph glyph-name="uni207C" unicode="&#x207c;" horiz-adv-x="281" 
d="M34 536v59h213v-59h-213zM34 440v59h213v-59h-213z" />
    <glyph glyph-name="uni207D" unicode="&#x207d;" horiz-adv-x="270" 
d="M181 249c-98 68 -154 155 -154 278c0 126 60 211 152 278l46 -57c-73 -50 -126 -117 -126 -221c0 -102 54 -170 127 -220z" />
    <glyph glyph-name="uni207E" unicode="&#x207e;" horiz-adv-x="270" 
d="M89 249l-45 58c73 50 127 118 127 220c0 104 -53 171 -126 221l46 57c92 -69 152 -152 152 -278c0 -123 -56 -210 -154 -278z" />
    <glyph glyph-name="uni2070" unicode="&#x2070;" horiz-adv-x="486" 
d="M243 302c-120 0 -216 97 -216 217s96 217 216 217s216 -97 216 -217s-96 -217 -216 -217zM243 370c82 0 147 68 147 149c0 82 -65 149 -147 149s-146 -67 -146 -149c0 -81 64 -149 146 -149z" />
    <glyph glyph-name="uni2079" unicode="&#x2079;" horiz-adv-x="353" 
d="M98 308l94 143c-10 -3 -19 -4 -29 -4c-75 0 -137 60 -137 144c0 85 66 145 150 145c86 0 150 -64 150 -145c0 -38 -13 -78 -32 -107l-112 -176h-84zM177 508c45 0 81 38 81 83s-36 82 -81 82s-82 -37 -82 -83c0 -45 37 -82 82 -82z" />
    <glyph glyph-name="uni2078" unicode="&#x2078;" horiz-adv-x="338" 
d="M169 302c-84 0 -134 60 -134 130c0 43 22 78 54 99c-25 18 -41 46 -41 86c0 64 48 119 121 119c71 0 122 -55 122 -119c0 -39 -17 -67 -43 -85c31 -20 54 -55 54 -100c0 -70 -49 -130 -133 -130zM168 366c40 0 65 30 65 66s-24 66 -65 66c-39 0 -64 -30 -64 -66
s25 -66 64 -66zM168 563c32 0 52 22 52 54c0 29 -19 54 -52 54c-31 0 -50 -25 -50 -54c0 -32 19 -54 50 -54z" />
    <glyph glyph-name="uni2077" unicode="&#x2077;" horiz-adv-x="327" 
d="M65 308l156 355h-190v67h264v-61l-155 -361h-75z" />
    <glyph glyph-name="uni2076" unicode="&#x2076;" horiz-adv-x="353" 
d="M177 302c-87 0 -150 64 -150 145c0 39 12 78 32 107l113 176h82l-93 -142c9 2 19 4 29 4c76 0 137 -61 137 -145s-65 -145 -150 -145zM176 366c44 0 82 37 82 83c0 45 -38 81 -82 81c-45 0 -81 -36 -81 -82c0 -45 36 -82 81 -82z" />
    <glyph glyph-name="uni2075" unicode="&#x2075;" horiz-adv-x="342" 
d="M171 302c-71 0 -121 37 -143 79l64 39c14 -29 39 -53 80 -53c40 0 73 30 73 75s-32 77 -74 77c-37 0 -61 -19 -76 -47l-63 30l31 228h232v-66h-176l-14 -104c18 13 42 23 72 23c74 0 139 -49 139 -141c0 -83 -61 -140 -145 -140z" />
    <glyph glyph-name="uni2074" unicode="&#x2074;" horiz-adv-x="379" 
d="M217 308v97h-185v64l182 261h72v-261h61v-64h-61v-97h-69zM108 469h109v155z" />
    <glyph glyph-name="threesuperior" unicode="&#xb3;" horiz-adv-x="321" 
d="M153 302c-54 0 -100 18 -136 60l60 45c20 -28 45 -41 76 -41c41 0 70 25 70 63c0 39 -33 63 -80 63h-43v66h43c48 0 74 26 74 60s-27 57 -68 57c-34 0 -55 -17 -70 -43l-59 33c24 43 72 71 129 71c83 0 135 -46 135 -117c0 -40 -19 -72 -51 -92c37 -20 60 -53 60 -98
c0 -73 -51 -127 -140 -127z" />
    <glyph glyph-name="twosuperior" unicode="&#xb2;" horiz-adv-x="338" 
d="M35 308v66c0 71 59 114 112 151c44 31 85 57 85 94c0 31 -23 56 -65 56c-38 0 -63 -25 -79 -60l-60 30c25 55 73 91 139 91c84 0 136 -53 136 -118c0 -67 -55 -105 -107 -141c-46 -31 -90 -60 -90 -102h198v-67h-269z" />
    <glyph glyph-name="onesuperior" unicode="&#xb9;" horiz-adv-x="293" 
d="M32 308v67h84v245c-12 -19 -43 -33 -69 -33h-7v74h3c56 0 75 39 75 69h68v-355h80v-67h-234z" />
    <glyph glyph-name="onesixteenth" unicode="&#xf215;" horiz-adv-x="1096" 
d="M920 -6c-87 0 -150 64 -150 145c0 39 12 78 32 107l113 176h82l-93 -142c9 2 19 4 29 4c76 0 137 -61 137 -145s-65 -145 -150 -145zM109 0l527 730h91l-527 -730h-91zM513 0v67h84v245c-12 -19 -43 -33 -69 -33h-7v74h3c56 0 75 39 75 69h68v-355h80v-67h-234zM32 308
v67h84v245c-12 -19 -43 -33 -69 -33h-7v74h3c56 0 75 39 75 69h68v-355h80v-67h-234zM919 58c44 0 82 37 82 83c0 45 -38 81 -82 81c-45 0 -81 -36 -81 -82c0 -45 36 -82 81 -82z" />
    <glyph glyph-name="threesixteenths" unicode="&#xf216;" horiz-adv-x="1096" 
d="M920 -6c-87 0 -150 64 -150 145c0 39 12 78 32 107l113 176h82l-93 -142c9 2 19 4 29 4c76 0 137 -61 137 -145s-65 -145 -150 -145zM109 0l527 730h91l-527 -730h-91zM153 302c-54 0 -100 18 -136 60l60 45c20 -28 45 -41 76 -41c41 0 70 25 70 63c0 39 -33 63 -80 63
h-43v66h43c48 0 74 26 74 60s-27 57 -68 57c-34 0 -55 -17 -70 -43l-59 33c24 43 72 71 129 71c83 0 135 -46 135 -117c0 -40 -19 -72 -51 -92c37 -20 60 -53 60 -98c0 -73 -51 -127 -140 -127zM513 0v67h84v245c-12 -19 -43 -33 -69 -33h-7v74h3c56 0 75 39 75 69h68v-355
h80v-67h-234zM919 58c44 0 82 37 82 83c0 45 -38 81 -82 81c-45 0 -81 -36 -81 -82c0 -45 36 -82 81 -82z" />
    <glyph glyph-name="sevensixteenths" unicode="&#xf218;" horiz-adv-x="1016" 
d="M840 -6c-87 0 -150 64 -150 145c0 39 12 78 32 107l113 176h82l-93 -142c9 2 19 4 29 4c76 0 137 -61 137 -145s-65 -145 -150 -145zM29 0l527 730h91l-527 -730h-91zM433 0v67h84v245c-12 -19 -43 -33 -69 -33h-7v74h3c56 0 75 39 75 69h68v-355h80v-67h-234zM65 308
l156 355h-190v67h264v-61l-155 -361h-75zM839 58c44 0 82 37 82 83c0 45 -38 81 -82 81c-45 0 -81 -36 -81 -82c0 -45 36 -82 81 -82z" />
    <glyph glyph-name="fivesixteenths" unicode="&#xf217;" horiz-adv-x="1095" 
d="M919 -6c-87 0 -150 64 -150 145c0 39 12 78 32 107l113 176h82l-93 -142c9 2 19 4 29 4c76 0 137 -61 137 -145s-65 -145 -150 -145zM108 0l527 730h91l-527 -730h-91zM171 302c-71 0 -121 37 -143 79l64 39c14 -29 39 -53 80 -53c40 0 73 30 73 75s-32 77 -74 77
c-37 0 -61 -19 -76 -47l-63 30l31 228h232v-66h-176l-14 -104c18 13 42 23 72 23c74 0 139 -49 139 -141c0 -83 -61 -140 -145 -140zM512 0v67h84v245c-12 -19 -43 -33 -69 -33h-7v74h3c56 0 75 39 75 69h68v-355h80v-67h-234zM918 58c44 0 82 37 82 83c0 45 -38 81 -82 81
c-45 0 -81 -36 -81 -82c0 -45 36 -82 81 -82z" />
    <glyph glyph-name="ninesixteenths" unicode="&#xf219;" horiz-adv-x="1070" 
d="M894 -6c-87 0 -150 64 -150 145c0 39 12 78 32 107l113 176h82l-93 -142c9 2 19 4 29 4c76 0 137 -61 137 -145s-65 -145 -150 -145zM98 308l94 143c-10 -3 -19 -4 -29 -4c-75 0 -137 60 -137 144c0 85 66 145 150 145c86 0 150 -64 150 -145c0 -38 -13 -78 -32 -107
l-112 -176h-84zM83 0l527 730h91l-527 -730h-91zM487 0v67h84v245c-12 -19 -43 -33 -69 -33h-7v74h3c56 0 75 39 75 69h68v-355h80v-67h-234zM177 508c45 0 81 38 81 83s-36 82 -81 82s-82 -37 -82 -83c0 -45 37 -82 82 -82zM893 58c44 0 82 37 82 83c0 45 -38 81 -82 81
c-45 0 -81 -36 -81 -82c0 -45 36 -82 81 -82z" />
    <glyph glyph-name="elevensixteenths" unicode="&#xf220;" horiz-adv-x="1354" 
d="M1178 -6c-87 0 -150 64 -150 145c0 39 12 78 32 107l113 176h82l-93 -142c9 2 19 4 29 4c76 0 137 -61 137 -145s-65 -145 -150 -145zM367 0l527 730h91l-527 -730h-91zM32 308v67h84v245c-12 -19 -43 -33 -69 -33h-7v74h3c56 0 75 39 75 69h68v-355h80v-67h-234z
M290 308v67h84v245c-12 -19 -43 -33 -69 -33h-7v74h3c56 0 75 39 75 69h68v-355h80v-67h-234zM771 0v67h84v245c-12 -19 -43 -33 -69 -33h-7v74h3c56 0 75 39 75 69h68v-355h80v-67h-234zM1177 58c44 0 82 37 82 83c0 45 -38 81 -82 81c-45 0 -81 -36 -81 -82
c0 -45 36 -82 81 -82z" />
    <glyph glyph-name="thirteensixteenths" unicode="&#xf221;" horiz-adv-x="1370" 
d="M1194 -6c-87 0 -150 64 -150 145c0 39 12 78 32 107l113 176h82l-93 -142c9 2 19 4 29 4c76 0 137 -61 137 -145s-65 -145 -150 -145zM383 0l527 730h91l-527 -730h-91zM427 302c-54 0 -100 18 -136 60l60 45c20 -28 45 -41 76 -41c41 0 70 25 70 63c0 39 -33 63 -80 63
h-43v66h43c48 0 74 26 74 60s-27 57 -68 57c-34 0 -55 -17 -70 -43l-59 33c24 43 72 71 129 71c83 0 135 -46 135 -117c0 -40 -19 -72 -51 -92c37 -20 60 -53 60 -98c0 -73 -51 -127 -140 -127zM32 308v67h84v245c-12 -19 -43 -33 -69 -33h-7v74h3c56 0 75 39 75 69h68v-355
h80v-67h-234zM787 0v67h84v245c-12 -19 -43 -33 -69 -33h-7v74h3c56 0 75 39 75 69h68v-355h80v-67h-234zM1193 58c44 0 82 37 82 83c0 45 -38 81 -82 81c-45 0 -81 -36 -81 -82c0 -45 36 -82 81 -82z" />
    <glyph glyph-name="fifteensixteenths" unicode="&#xf222;" horiz-adv-x="1357" 
d="M1181 -6c-87 0 -150 64 -150 145c0 39 12 78 32 107l113 176h82l-93 -142c9 2 19 4 29 4c76 0 137 -61 137 -145s-65 -145 -150 -145zM370 0l527 730h91l-527 -730h-91zM432 302c-71 0 -121 37 -143 79l64 39c14 -29 39 -53 80 -53c40 0 73 30 73 75s-32 77 -74 77
c-37 0 -61 -19 -76 -47l-63 30l31 228h232v-66h-176l-14 -104c18 13 42 23 72 23c74 0 139 -49 139 -141c0 -83 -61 -140 -145 -140zM774 0v67h84v245c-12 -19 -43 -33 -69 -33h-7v74h3c56 0 75 39 75 69h68v-355h80v-67h-234zM32 308v67h84v245c-12 -19 -43 -33 -69 -33h-7
v74h3c56 0 75 39 75 69h68v-355h80v-67h-234zM1180 58c44 0 82 37 82 83c0 45 -38 81 -82 81c-45 0 -81 -36 -81 -82c0 -45 36 -82 81 -82z" />
    <glyph glyph-name="underscoremonospace" unicode="&#xe512;" 
d="M52 -77v67h485v-67h-485z" />
    <glyph glyph-name="underscoremonospace" unicode="&#xff3f;" 
d="M52 -77v67h485v-67h-485z" />
    <glyph glyph-name="currency" unicode="&#xa4;" horiz-adv-x="773" 
d="M391 102c-60 0 -114 19 -158 52l-92 -96l-46 46l92 95c-35 44 -55 101 -55 163s20 117 54 161l-93 98l46 46l93 -98c44 34 99 53 159 53c59 0 113 -19 156 -52l88 92l46 -46l-87 -91c36 -44 57 -101 57 -163c0 -64 -22 -122 -59 -166l87 -89l-46 -46l-88 90
c-43 -31 -96 -49 -154 -49zM391 172c102 0 182 85 182 190s-80 190 -182 190s-181 -85 -181 -190s79 -190 181 -190z" />
    <glyph glyph-name="arrowleft" unicode="&#x2190;" horiz-adv-x="896" 
d="M258 117c-44 85 -124 180 -208 227v47c84 47 164 142 208 227l65 -43c-36 -62 -102 -132 -153 -170h654v-75h-654c52 -39 117 -108 153 -170z" />
    <glyph glyph-name="arrowright" unicode="&#x2192;" horiz-adv-x="896" 
d="M615 117l-64 43c35 62 101 132 153 170h-654v75h653c-52 39 -116 107 -152 169l66 44c43 -85 123 -181 207 -228v-46c-84 -47 -164 -141 -209 -227z" />
    <glyph glyph-name="arrowup" unicode="&#x2191;" horiz-adv-x="896" 
d="M398 0v631c-39 -51 -107 -115 -168 -150l-43 65c85 44 180 124 227 208h47c47 -84 142 -164 227 -208l-43 -65c-62 36 -131 100 -169 152v-633h-78z" />
    </font>
</defs>
</svg>
